<svg width="26" height="26" viewBox="0 0 26 26" fill="none" xmlns="http://www.w3.org/2000/svg">
<g clip-path="url(#clip0_582_8877)">
<mask id="mask0_582_8877" style="mask-type:luminance" maskUnits="userSpaceOnUse" x="0" y="0" width="26" height="26">
<path d="M0 0H26V26H0V0Z" fill="white"/>
<path fill-rule="evenodd" clip-rule="evenodd" d="M8.60387 8.44996C7.91282 9.1311 7.38462 9.95959 7.05873 10.8735C6.73284 11.7875 6.61768 12.7633 6.72187 13.728C6.72876 13.7933 6.72272 13.8593 6.70409 13.9223C6.68546 13.9853 6.6546 14.0441 6.61328 14.0951C6.57195 14.1462 6.52098 14.1886 6.46326 14.22C6.40554 14.2514 6.3422 14.2711 6.27687 14.278C6.21154 14.2849 6.14548 14.2788 6.08249 14.2602C6.01949 14.2416 5.96078 14.2107 5.9097 14.1694C5.85863 14.128 5.8162 14.0771 5.78483 14.0194C5.75346 13.9616 5.73376 13.8983 5.72687 13.833C5.60685 12.7187 5.74012 11.5916 6.11674 10.5361C6.49336 9.48048 7.1036 8.52363 7.90187 7.73696C10.8389 4.83996 15.5769 4.88696 18.4839 7.83496C21.3909 10.783 21.3719 15.52 18.4339 18.417C17.0737 19.76 15.2482 20.5272 13.3369 20.559C12.6142 20.5722 11.8934 20.4809 11.1969 20.288C11.069 20.2527 10.9604 20.1681 10.895 20.0527C10.8295 19.9374 10.8126 19.8008 10.8479 19.673C10.8831 19.5451 10.9678 19.4365 11.0831 19.3711C11.1984 19.3056 11.335 19.2887 11.4629 19.324C12.067 19.4914 12.6921 19.5705 13.3189 19.559C14.9739 19.5329 16.5549 18.8687 17.7319 17.705C20.2729 15.199 20.2939 11.095 17.7719 8.53696C15.2499 5.97896 11.1449 5.94396 8.60387 8.44996Z" fill="black"/>
<path fill-rule="evenodd" clip-rule="evenodd" d="M6.59396 14.3629C6.55023 14.4119 6.49728 14.4518 6.43813 14.4803C6.37899 14.5089 6.3148 14.5255 6.24924 14.5292C6.18368 14.5329 6.11803 14.5236 6.05605 14.502C5.99406 14.4803 5.93694 14.4467 5.88796 14.4029L4.16796 12.8729C4.11508 12.8305 4.07139 12.7777 4.03955 12.7179C4.0077 12.658 3.98836 12.5923 3.9827 12.5248C3.97704 12.4572 3.98519 12.3892 4.00664 12.3249C4.02809 12.2605 4.06239 12.2012 4.10747 12.1506C4.15255 12.1 4.20746 12.059 4.26886 12.0302C4.33026 12.0015 4.39687 11.9855 4.46464 11.9833C4.5324 11.9811 4.59991 11.9927 4.66306 12.0174C4.72621 12.0421 4.78367 12.0793 4.83196 12.1269L6.55196 13.6569C6.60108 13.7005 6.64114 13.7534 6.66984 13.8125C6.69854 13.8715 6.71532 13.9357 6.71922 14.0012C6.72312 14.0668 6.71406 14.1325 6.69257 14.1946C6.67108 14.2566 6.63757 14.3138 6.59396 14.3629Z" fill="black"/>
<path fill-rule="evenodd" clip-rule="evenodd" d="M5.81997 14.3C5.85937 14.3525 5.90873 14.3968 5.96523 14.4302C6.02173 14.4637 6.08426 14.4857 6.14926 14.495C6.21426 14.5043 6.28046 14.5007 6.34406 14.4844C6.40767 14.4681 6.46744 14.4394 6.51997 14.4L8.51997 12.9C8.5725 12.8606 8.61676 12.8112 8.65021 12.7547C8.68366 12.6982 8.70566 12.6357 8.71495 12.5707C8.72423 12.5057 8.72063 12.4395 8.70433 12.3759C8.68803 12.3123 8.65937 12.2525 8.61997 12.2C8.58058 12.1475 8.53122 12.1032 8.47472 12.0698C8.41822 12.0363 8.35568 12.0143 8.29068 12.005C8.22568 11.9957 8.15949 11.9993 8.09588 12.0156C8.03228 12.0319 7.9725 12.0606 7.91997 12.1L5.91997 13.6C5.81389 13.6796 5.74375 13.798 5.725 13.9293C5.70624 14.0606 5.74041 14.1939 5.81997 14.3ZM13 9.5C13.1326 9.5 13.2598 9.55268 13.3535 9.64645C13.4473 9.74021 13.5 9.86739 13.5 10V13.5C13.5 13.6326 13.4473 13.7598 13.3535 13.8536C13.2598 13.9473 13.1326 14 13 14C12.8674 14 12.7402 13.9473 12.6464 13.8536C12.5527 13.7598 12.5 13.6326 12.5 13.5V10C12.5 9.86739 12.5527 9.74021 12.6464 9.64645C12.7402 9.55268 12.8674 9.5 13 9.5Z" fill="black"/>
<path fill-rule="evenodd" clip-rule="evenodd" d="M16.5 13.5C16.5 13.6326 16.4473 13.7598 16.3536 13.8536C16.2598 13.9473 16.1326 14 16 14H13C12.8674 14 12.7402 13.9473 12.6464 13.8536C12.5527 13.7598 12.5 13.6326 12.5 13.5C12.5 13.3674 12.5527 13.2402 12.6464 13.1464C12.7402 13.0527 12.8674 13 13 13H16C16.1326 13 16.2598 13.0527 16.3536 13.1464C16.4473 13.2402 16.5 13.3674 16.5 13.5Z" fill="black"/>
</mask>
<g mask="url(#mask0_582_8877)">
<path d="M13 26C20.1797 26 26 20.1797 26 13C26 5.8203 20.1797 0 13 0C5.8203 0 0 5.8203 0 13C0 20.1797 5.8203 26 13 26Z" fill="#51AB7E"/>
</g>
</g>
<defs>
<clipPath id="clip0_582_8877">
<rect width="26" height="26" fill="white"/>
</clipPath>
</defs>
</svg>
