<svg width="92" height="92" viewBox="0 0 92 92" fill="none" xmlns="http://www.w3.org/2000/svg">
<g clip-path="url(#clip0_143_471)">
<path d="M34.6611 2.07568C35.5248 0.711908 37.3321 0.326468 38.6787 1.22021L42.8555 3.9917C43.7444 4.5811 44.8876 4.86084 46.0039 4.86084C47.0502 4.86081 48.1194 4.61455 48.9805 4.09814L49.1504 3.9917L53.3213 1.22021C54.6661 0.326768 56.4725 0.711529 57.3379 2.07568L60.0215 6.30713C60.5929 7.20763 61.5225 7.92843 62.542 8.38232C63.4978 8.80786 64.5749 9.01799 65.5723 8.896L65.7705 8.8667L70.709 8.03076C72.3019 7.76106 73.7969 8.84598 74.0312 10.4429V10.4438L74.7637 15.3911C74.92 16.4462 75.4762 17.4836 76.2227 18.314C76.9691 19.1442 77.9412 19.8066 78.9746 20.0728L83.8203 21.3228C85.386 21.7274 86.3094 23.3307 85.875 24.8862V24.8872L84.5322 29.6968C84.2455 30.7239 84.3322 31.8976 84.6768 32.9595C85.0213 34.0212 85.6399 35.0218 86.4756 35.6851H86.4766L90.4102 38.8062C91.6752 39.8105 91.867 41.6474 90.8369 42.8931L87.6436 46.7485C86.9637 47.5703 86.5659 48.6776 86.4492 49.7876C86.3399 50.8282 86.4727 51.9176 86.8965 52.8286L86.9854 53.0083L89.3047 57.4429C90.0523 58.8758 89.4821 60.6335 88.0361 61.3511L83.5498 63.5776C82.5943 64.0521 81.7805 64.9019 81.2227 65.8687C80.6996 66.7751 80.3778 67.8249 80.3945 68.8296L80.4023 69.0298L80.7119 74.0239V74.0249C80.8139 75.6352 79.5762 77.0107 77.9609 77.0796L72.96 77.2915C71.8944 77.3371 70.8062 77.7833 69.9033 78.4399C69.0005 79.0966 68.2406 79.9947 67.8682 80.9946L67.8672 80.9956L66.1279 85.6821C65.5634 87.1977 63.8752 87.9499 62.374 87.356L57.7148 85.5142C56.7235 85.1214 55.5478 85.0849 54.4561 85.3169C53.3642 85.5489 52.3042 86.0604 51.5576 86.8228L48.0586 90.397C46.9275 91.5507 45.0794 91.5505 43.9473 90.3979L40.4434 86.8228L40.4424 86.8218C39.6954 86.0604 38.6358 85.5497 37.5439 85.3179C36.4519 85.086 35.276 85.1217 34.2842 85.5142L29.6279 87.356L29.627 87.3569C28.1259 87.9511 26.438 87.198 25.875 85.6821L24.1309 80.9956C23.7589 79.9957 22.9986 79.0967 22.0957 78.4399C21.1928 77.7833 20.1039 77.3371 19.0381 77.2915L14.0391 77.0806C12.424 77.0115 11.1873 75.635 11.2881 74.0239L11.6006 69.0298C11.6668 67.9656 11.3375 66.8364 10.7793 65.8696C10.221 64.9028 9.40751 64.0521 8.45215 63.5776L3.9668 61.3511C2.56572 60.6554 1.98525 58.9842 2.63086 57.5776L2.69727 57.4429L5.0166 53.0093V53.0083C5.51042 52.0629 5.66966 50.8975 5.55273 49.7876C5.4358 48.6777 5.03655 47.5707 4.35547 46.7495L1.16309 42.8901H1.16211C0.13235 41.6473 0.324967 39.8098 1.58984 38.8052L5.52441 35.6841H5.52539C6.36058 35.0209 6.97949 34.0201 7.32422 32.9585C7.66884 31.897 7.75516 30.7242 7.46875 29.6968V29.6958L6.12402 24.8843C5.70329 23.3772 6.55696 21.8275 8.03223 21.3667L8.17676 21.3247L13.0264 20.0728C14.0592 19.8069 15.0316 19.1433 15.7783 18.313C16.5248 17.4829 17.0814 16.4462 17.2373 15.3911L17.9688 10.4438C18.2052 8.84611 19.7 7.76036 21.292 8.02979L26.2314 8.8667C27.2832 9.04457 28.4407 8.83619 29.46 8.38232C30.4793 7.92841 31.4088 7.2078 31.9795 6.30713L34.6611 2.07568Z" fill="#ECF5F0" stroke="#51AB7E"/>
<path d="M75.7652 46.0501C75.7652 62.4892 62.4376 75.8153 45.9999 75.8153C29.5632 75.8153 16.2356 62.4892 16.2356 46.0501C16.2356 29.6161 29.5627 16.2896 45.9999 16.2896C62.4376 16.2896 75.7652 29.6161 75.7652 46.0501Z" fill="#ECF5F0"/>
<path d="M41.0375 59.9545L29.1235 48.0399L33.0928 44.0688L41.0375 52.0121L58.9076 34.1396L62.8769 38.1122L41.0375 59.9545Z" fill="#51AB7E"/>
</g>
<defs>
<clipPath id="clip0_143_471">
<rect width="92" height="92" fill="white"/>
</clipPath>
</defs>
</svg>
