<svg width="36" height="42" viewBox="0 0 36 42" fill="none" xmlns="http://www.w3.org/2000/svg">
<path d="M22.7578 29.1562V34.1016C22.7578 35.1484 22.4531 35.6719 21.8438 35.6719C21.4844 35.6719 21.1328 35.5 20.7891 35.1562V28.1016C21.1328 27.7578 21.4844 27.5859 21.8438 27.5859C22.4531 27.5859 22.7578 28.1094 22.7578 29.1562ZM30.6797 29.1797V30.2578H28.5703V29.1797C28.5703 28.1172 28.9219 27.5859 29.625 27.5859C30.3281 27.5859 30.6797 28.1172 30.6797 29.1797ZM8.03906 24.0703H10.5469V21.8672H3.23438V24.0703H5.69531V37.4062H8.03906V24.0703ZM14.7891 37.4062H16.875V25.8281H14.7891V34.6875C14.3203 35.3438 13.875 35.6719 13.4531 35.6719C13.1719 35.6719 13.0078 35.5078 12.9609 35.1797C12.9453 35.1328 12.9375 34.8594 12.9375 34.3594V25.8281H10.8516V34.9922C10.8516 35.7578 10.9141 36.3281 11.0391 36.7031C11.2266 37.2812 11.6797 37.5703 12.3984 37.5703C13.1484 37.5703 13.9453 37.0938 14.7891 36.1406V37.4062ZM24.8438 33.9375V29.3203C24.8438 28.1797 24.7734 27.4062 24.6328 27C24.3672 26.125 23.8125 25.6875 22.9688 25.6875C22.1875 25.6875 21.4609 26.1094 20.7891 26.9531V21.8672H18.7031V37.4062H20.7891V36.2812C21.4922 37.1406 22.2188 37.5703 22.9688 37.5703C23.8125 37.5703 24.3672 37.1406 24.6328 36.2812C24.7734 35.8594 24.8438 35.0781 24.8438 33.9375ZM32.7656 33.7031V33.3984H30.6328C30.6328 34.1953 30.6172 34.6719 30.5859 34.8281C30.4766 35.3906 30.1641 35.6719 29.6484 35.6719C28.9297 35.6719 28.5703 35.1328 28.5703 34.0547V32.0156H32.7656V29.6016C32.7656 28.3672 32.5547 27.4609 32.1328 26.8828C31.5234 26.0859 30.6953 25.6875 29.6484 25.6875C28.5859 25.6875 27.75 26.0859 27.1406 26.8828C26.7031 27.4609 26.4844 28.3672 26.4844 29.6016V33.6562C26.4844 34.8906 26.7109 35.7969 27.1641 36.375C27.7734 37.1719 28.6172 37.5703 29.6953 37.5703C30.8203 37.5703 31.6641 37.1562 32.2266 36.3281C32.5078 35.9062 32.6719 35.4844 32.7188 35.0625C32.75 34.9219 32.7656 34.4688 32.7656 33.7031ZM18.5156 12.3047V7.38281C18.5156 6.30469 18.1797 5.76562 17.5078 5.76562C16.8359 5.76562 16.5 6.30469 16.5 7.38281V12.3047C16.5 13.3984 16.8359 13.9453 17.5078 13.9453C18.1797 13.9453 18.5156 13.3984 18.5156 12.3047ZM35.3672 29.9062C35.3672 33.5625 35.1641 36.2969 34.7578 38.1094C34.5391 39.0312 34.0859 39.8047 33.3984 40.4297C32.7109 41.0547 31.9141 41.4141 31.0078 41.5078C28.1328 41.8359 23.7969 42 18 42C12.2031 42 7.86719 41.8359 4.99219 41.5078C4.08594 41.4141 3.28516 41.0547 2.58984 40.4297C1.89453 39.8047 1.44531 39.0312 1.24219 38.1094C0.835937 36.3594 0.632812 33.625 0.632812 29.9062C0.632812 26.25 0.835937 23.5156 1.24219 21.7031C1.46094 20.7812 1.91406 20.0078 2.60156 19.3828C3.28906 18.7578 4.09375 18.3906 5.01562 18.2812C7.875 17.9688 12.2031 17.8125 18 17.8125C23.7969 17.8125 28.1328 17.9688 31.0078 18.2812C31.9141 18.3906 32.7148 18.7578 33.4102 19.3828C34.1055 20.0078 34.5547 20.7812 34.7578 21.7031C35.1641 23.4531 35.3672 26.1875 35.3672 29.9062ZM11.9766 0H14.3672L11.5312 9.35156V15.7031H9.1875V9.35156C8.96875 8.19531 8.49219 6.53906 7.75781 4.38281C7.17969 2.77344 6.67188 1.3125 6.23438 0H8.71875L10.3828 6.16406L11.9766 0ZM20.6484 7.80469V11.9062C20.6484 13.1719 20.4297 14.0938 19.9922 14.6719C19.3984 15.4688 18.5703 15.8672 17.5078 15.8672C16.4609 15.8672 15.6406 15.4688 15.0469 14.6719C14.6094 14.0781 14.3906 13.1562 14.3906 11.9062V7.80469C14.3906 6.55469 14.6094 5.64062 15.0469 5.0625C15.6406 4.26562 16.4609 3.86719 17.5078 3.86719C18.5703 3.86719 19.3984 4.26562 19.9922 5.0625C20.4297 5.64062 20.6484 6.55469 20.6484 7.80469ZM28.5 4.00781V15.7031H26.3672V14.4141C25.5391 15.3828 24.7344 15.8672 23.9531 15.8672C23.2344 15.8672 22.7734 15.5781 22.5703 15C22.4453 14.625 22.3828 14.0391 22.3828 13.2422V4.00781H24.5156V12.6094C24.5156 13.125 24.5234 13.3984 24.5391 13.4297C24.5859 13.7734 24.75 13.9453 25.0312 13.9453C25.4531 13.9453 25.8984 13.6094 26.3672 12.9375V4.00781H28.5Z" fill="white"/>
</svg>
