<svg width="81" height="81" viewBox="0 0 81 81" fill="none" xmlns="http://www.w3.org/2000/svg">
<path d="M0.81 35.5266C0.3564 35.5266 0 35.1702 0 34.7166V32.481C0 32.0274 0.3564 31.671 0.81 31.671C1.2636 31.671 1.62 32.0274 1.62 32.481V34.7166C1.62 35.1702 1.2636 35.5266 0.81 35.5266ZM0.81 54.9018C0.3564 54.9018 0 54.5454 0 54.0918V39.042C0 38.5884 0.3564 38.232 0.81 38.232C1.2636 38.232 1.62 38.5884 1.62 39.042V54.0918C1.62 54.5454 1.2636 54.9018 0.81 54.9018ZM75.33 81H5.67C2.5434 81 0 78.4566 0 75.33V58.8546C0 58.401 0.3564 58.0446 0.81 58.0446C1.2636 58.0446 1.62 58.401 1.62 58.8546V75.33C1.62 77.5656 3.4344 79.38 5.67 79.38H75.33C77.5656 79.38 79.38 77.5656 79.38 75.33V15.1632C79.38 12.9276 77.5656 11.1132 75.33 11.1132H64.719C64.2654 11.1132 63.909 10.7568 63.909 10.3032C63.909 9.84956 64.2654 9.49316 64.719 9.49316H75.33C78.4566 9.49316 81 12.0366 81 15.1632V75.33C81 78.4566 78.4566 81 75.33 81ZM56.619 11.1132H24.381C23.9274 11.1132 23.571 10.7568 23.571 10.3032C23.571 9.84956 23.9274 9.49316 24.381 9.49316H56.619C57.0726 9.49316 57.429 9.84956 57.429 10.3032C57.429 10.7568 57.0726 11.1132 56.619 11.1132ZM0.81 28.998C0.3564 28.998 0 28.6416 0 28.188V15.1632C0 12.0366 2.5434 9.49316 5.67 9.49316H16.281C16.7346 9.49316 17.091 9.84956 17.091 10.3032C17.091 10.7568 16.7346 11.1132 16.281 11.1132H5.67C3.4344 11.1132 1.62 12.9276 1.62 15.1632V28.188C1.62 28.6416 1.2636 28.998 0.81 28.998Z" fill="#51AB7E"/>
<path d="M62.694 24.8832H0.81C0.3564 24.8832 0 24.5268 0 24.0732C0 23.6196 0.3564 23.2632 0.81 23.2632H62.694C63.1476 23.2632 63.504 23.6196 63.504 24.0732C63.504 24.5268 63.1476 24.8832 62.694 24.8832ZM70.7778 24.8832H67.2138C66.7602 24.8832 66.4038 24.5268 66.4038 24.0732C66.4038 23.6196 66.7602 23.2632 67.2138 23.2632H70.7778C71.2314 23.2632 71.5878 23.6196 71.5878 24.0732C71.5878 24.5268 71.2314 24.8832 70.7778 24.8832ZM74.52 24.8832H73.8234C73.3698 24.8832 73.0134 24.5268 73.0134 24.0732C73.0134 23.6196 73.3698 23.2632 73.8234 23.2632H74.52C74.9736 23.2632 75.33 23.6196 75.33 24.0732C75.33 24.5268 74.9736 24.8832 74.52 24.8832ZM20.331 17.982C17.658 17.982 15.471 15.795 15.471 13.122V7.50062C15.471 4.82762 17.658 2.64062 20.331 2.64062C23.004 2.64062 25.191 4.82762 25.191 7.50062V13.122C25.191 15.795 23.004 17.982 20.331 17.982ZM20.331 4.26062C18.549 4.26062 17.091 5.71862 17.091 7.50062V13.122C17.091 14.904 18.549 16.362 20.331 16.362C22.113 16.362 23.571 14.904 23.571 13.122V7.50062C23.571 5.71862 22.113 4.26062 20.331 4.26062ZM60.669 17.982C57.996 17.982 55.809 15.795 55.809 13.122V7.50062C55.809 4.82762 57.996 2.64062 60.669 2.64062C63.342 2.64062 65.529 4.82762 65.529 7.50062V13.122C65.529 15.795 63.342 17.982 60.669 17.982ZM60.669 4.26062C58.887 4.26062 57.429 5.71862 57.429 7.50062V13.122C57.429 14.904 58.887 16.362 60.669 16.362C62.451 16.362 63.909 14.904 63.909 13.122V7.50062C63.909 5.71862 62.451 4.26062 60.669 4.26062ZM26.5356 43.1244C24.138 43.1244 22.194 41.1804 22.194 38.7828C22.194 36.3852 24.138 34.4412 26.5356 34.4412C28.9332 34.4412 30.8772 36.3852 30.8772 38.7828C30.8772 41.1804 28.9332 43.1244 26.5356 43.1244ZM26.5356 36.0612C25.029 36.0612 23.814 37.2762 23.814 38.7828C23.814 40.2894 25.029 41.5044 26.5356 41.5044C28.0422 41.5044 29.2572 40.2894 29.2572 38.7828C29.2572 37.2762 28.0422 36.0612 26.5356 36.0612ZM40.5 43.1244C38.1024 43.1244 36.1584 41.1804 36.1584 38.7828C36.1584 36.3852 38.1024 34.4412 40.5 34.4412C42.8976 34.4412 44.8416 36.3852 44.8416 38.7828C44.8416 41.1804 42.8976 43.1244 40.5 43.1244ZM40.5 36.0612C38.9934 36.0612 37.7784 37.2762 37.7784 38.7828C37.7784 40.2894 38.9934 41.5044 40.5 41.5044C42.0066 41.5044 43.2216 40.2894 43.2216 38.7828C43.2216 37.2762 42.0066 36.0612 40.5 36.0612ZM54.4644 43.1244C52.0668 43.1244 50.1228 41.1804 50.1228 38.7828C50.1228 36.3852 52.0668 34.4412 54.4644 34.4412C56.862 34.4412 58.806 36.3852 58.806 38.7828C58.806 41.1804 56.862 43.1244 54.4644 43.1244ZM54.4644 36.0612C52.9578 36.0612 51.7428 37.2762 51.7428 38.7828C51.7428 40.2894 52.9578 41.5044 54.4644 41.5044C55.971 41.5044 57.186 40.2894 57.186 38.7828C57.186 37.2762 55.971 36.0612 54.4644 36.0612ZM68.4126 43.1244C66.015 43.1244 64.071 41.1804 64.071 38.7828C64.071 36.3852 66.015 34.4412 68.4126 34.4412C70.8102 34.4412 72.7542 36.3852 72.7542 38.7828C72.7542 41.1804 70.8102 43.1244 68.4126 43.1244ZM68.4126 36.0612C66.906 36.0612 65.691 37.2762 65.691 38.7828C65.691 40.2894 66.906 41.5044 68.4126 41.5044C69.9192 41.5044 71.1342 40.2894 71.1342 38.7828C71.1342 37.2762 69.9192 36.0612 68.4126 36.0612ZM12.5874 55.4202C10.1898 55.4202 8.2458 53.4762 8.2458 51.0786C8.2458 48.681 10.1898 46.737 12.5874 46.737C14.985 46.737 16.929 48.681 16.929 51.0786C16.929 53.4762 14.985 55.4202 12.5874 55.4202ZM12.5874 48.357C11.0808 48.357 9.8658 49.572 9.8658 51.0786C9.8658 52.5852 11.0808 53.8002 12.5874 53.8002C14.094 53.8002 15.309 52.5852 15.309 51.0786C15.309 49.572 14.094 48.357 12.5874 48.357ZM26.5356 55.4202C24.138 55.4202 22.194 53.4762 22.194 51.0786C22.194 48.681 24.138 46.737 26.5356 46.737C28.9332 46.737 30.8772 48.681 30.8772 51.0786C30.8772 53.4762 28.9332 55.4202 26.5356 55.4202ZM26.5356 48.357C25.029 48.357 23.814 49.572 23.814 51.0786C23.814 52.5852 25.029 53.8002 26.5356 53.8002C28.0422 53.8002 29.2572 52.5852 29.2572 51.0786C29.2572 49.572 28.0422 48.357 26.5356 48.357ZM40.5 55.4202C38.1024 55.4202 36.1584 53.4762 36.1584 51.0786C36.1584 48.681 38.1024 46.737 40.5 46.737C42.8976 46.737 44.8416 48.681 44.8416 51.0786C44.8416 53.4762 42.8976 55.4202 40.5 55.4202ZM40.5 48.357C38.9934 48.357 37.7784 49.572 37.7784 51.0786C37.7784 52.5852 38.9934 53.8002 40.5 53.8002C42.0066 53.8002 43.2216 52.5852 43.2216 51.0786C43.2216 49.572 42.0066 48.357 40.5 48.357ZM54.4644 55.4202C52.0668 55.4202 50.1228 53.4762 50.1228 51.0786C50.1228 48.681 52.0668 46.737 54.4644 46.737C56.862 46.737 58.806 48.681 58.806 51.0786C58.806 53.4762 56.862 55.4202 54.4644 55.4202ZM54.4644 48.357C52.9578 48.357 51.7428 49.572 51.7428 51.0786C51.7428 52.5852 52.9578 53.8002 54.4644 53.8002C55.971 53.8002 57.186 52.5852 57.186 51.0786C57.186 49.572 55.971 48.357 54.4644 48.357ZM68.4126 55.4202C66.015 55.4202 64.071 53.4762 64.071 51.0786C64.071 48.681 66.015 46.737 68.4126 46.737C70.8102 46.737 72.7542 48.681 72.7542 51.0786C72.7542 53.4762 70.8102 55.4202 68.4126 55.4202ZM68.4126 48.357C66.906 48.357 65.691 49.572 65.691 51.0786C65.691 52.5852 66.906 53.8002 68.4126 53.8002C69.9192 53.8002 71.1342 52.5852 71.1342 51.0786C71.1342 49.572 69.9192 48.357 68.4126 48.357ZM12.5874 67.7322C10.1898 67.7322 8.2458 65.7882 8.2458 63.3906C8.2458 60.993 10.1898 59.049 12.5874 59.049C14.985 59.049 16.929 60.993 16.929 63.3906C16.929 65.7882 14.985 67.7322 12.5874 67.7322ZM12.5874 60.669C11.0808 60.669 9.8658 61.884 9.8658 63.3906C9.8658 64.8972 11.0808 66.1122 12.5874 66.1122C14.094 66.1122 15.309 64.8972 15.309 63.3906C15.309 61.884 14.094 60.669 12.5874 60.669ZM26.5356 67.7322C24.138 67.7322 22.194 65.7882 22.194 63.3906C22.194 60.993 24.138 59.049 26.5356 59.049C28.9332 59.049 30.8772 60.993 30.8772 63.3906C30.8772 65.7882 28.9332 67.7322 26.5356 67.7322ZM26.5356 60.669C25.029 60.669 23.814 61.884 23.814 63.3906C23.814 64.8972 25.029 66.1122 26.5356 66.1122C28.0422 66.1122 29.2572 64.8972 29.2572 63.3906C29.2572 61.884 28.0422 60.669 26.5356 60.669ZM40.5 67.7322C38.1024 67.7322 36.1584 65.7882 36.1584 63.3906C36.1584 60.993 38.1024 59.049 40.5 59.049C42.8976 59.049 44.8416 60.993 44.8416 63.3906C44.8416 65.7882 42.8976 67.7322 40.5 67.7322ZM40.5 60.669C38.9934 60.669 37.7784 61.884 37.7784 63.3906C37.7784 64.8972 38.9934 66.1122 40.5 66.1122C42.0066 66.1122 43.2216 64.8972 43.2216 63.3906C43.2216 61.884 42.0066 60.669 40.5 60.669ZM54.4644 67.7322C52.0668 67.7322 50.1228 65.7882 50.1228 63.3906C50.1228 60.993 52.0668 59.049 54.4644 59.049C56.862 59.049 58.806 60.993 58.806 63.3906C58.806 65.7882 56.862 67.7322 54.4644 67.7322ZM54.4644 60.669C52.9578 60.669 51.7428 61.884 51.7428 63.3906C51.7428 64.8972 52.9578 66.1122 54.4644 66.1122C55.971 66.1122 57.186 64.8972 57.186 63.3906C57.186 61.884 55.971 60.669 54.4644 60.669Z" fill="#51AB7E"/>
</svg>
