<svg width="99" height="107" viewBox="0 0 99 107" fill="none" xmlns="http://www.w3.org/2000/svg">
<path d="M37.8984 28.4219H59.168V36.7812H37.8984V28.4219Z" fill="#ECF5F0"/>
<path d="M39.4937 30.2766H59.168V28.4219H37.8984V36.7812H39.4937V30.2766Z" fill="#ECF5F0"/>
<path d="M59.168 45.7989C74.7682 47.9724 86.2383 55.2743 86.2383 63.9492C86.2383 74.3378 69.7892 82.7578 49.5 82.7578C29.2108 82.7578 12.7617 74.3378 12.7617 63.9492C12.7617 55.6358 23.294 48.5847 37.8984 46.0999C41.5452 45.4771 45.4453 45.1406 49.5 45.1406C52.8451 45.1406 56.0878 45.3705 59.168 45.7989Z" fill="#ECF5F0"/>
<path d="M14.5663 66.3176C14.5663 58.0042 25.0986 50.9531 39.7031 48.4683C43.3498 47.8455 47.2499 47.509 51.3046 47.509C54.6497 47.509 57.8924 47.7389 60.9726 48.1673C71.4241 49.6233 80.0212 53.3817 84.558 58.3123C80.8314 52.2313 71.2363 47.4802 59.168 45.7989C56.0878 45.3705 52.8451 45.1406 49.5 45.1406C45.4453 45.1406 41.5452 45.4771 37.8984 46.0999C23.294 48.5847 12.7617 55.6358 12.7617 63.9492C12.7617 66.8085 14.01 69.518 16.2393 71.9448C15.1528 70.168 14.5663 68.2779 14.5663 66.3176Z" fill="#ECF5F0"/>
<path d="M37.8984 58.7246C37.642 58.7246 37.3961 58.6145 37.2148 58.4186C37.0335 58.2226 36.9316 57.9568 36.9316 57.6797V22.1523C36.9316 20.1994 37.6359 18.3628 38.9143 16.9808C40.1928 15.5988 41.8923 14.8379 43.6992 14.8379C47.4309 14.8379 50.4668 18.1192 50.4668 22.1523C50.4668 22.4295 50.3649 22.6953 50.1836 22.8912C50.0023 23.0872 49.7564 23.1973 49.5 23.1973C49.2436 23.1973 48.9977 23.0872 48.8164 22.8912C48.6351 22.6953 48.5332 22.4295 48.5332 22.1523C48.5332 19.2715 46.3647 16.9277 43.6992 16.9277C42.4089 16.9277 41.195 17.4715 40.2818 18.4588C39.3684 19.4458 38.8652 20.7578 38.8652 22.1523V57.6797C38.8652 57.9568 38.7634 58.2226 38.5821 58.4186C38.4008 58.6145 38.1548 58.7246 37.8984 58.7246ZM59.168 58.7246C58.9116 58.7246 58.6657 58.6145 58.4843 58.4186C58.303 58.2226 58.2012 57.9568 58.2012 57.6797V22.1523C58.2012 20.1996 58.9054 18.363 60.1839 16.981C61.4624 15.599 63.1616 14.8379 64.9688 14.8379C68.7004 14.8379 71.7363 18.1192 71.7363 22.1523C71.7363 22.4295 71.6345 22.6953 71.4532 22.8912C71.2718 23.0872 71.0259 23.1973 70.7695 23.1973C70.5131 23.1973 70.2672 23.0872 70.0859 22.8912C69.9046 22.6953 69.8027 22.4295 69.8027 22.1523C69.8027 19.2715 67.6342 16.9277 64.9688 16.9277C63.6783 16.9277 62.4646 17.4715 61.5513 18.4585C60.6379 19.446 60.1348 20.7578 60.1348 22.1523V57.6797C60.1348 57.9568 60.0329 58.2226 59.8516 58.4186C59.6703 58.6145 59.4244 58.7246 59.168 58.7246Z" fill="#51AB7E"/>
<path d="M49.5 83.8027C39.5466 83.8027 30.1741 81.8107 23.1086 78.1936C15.8127 74.4586 11.7949 69.4 11.7949 63.9492C11.7949 59.5472 14.4001 55.402 19.3288 51.961C23.9874 48.709 30.3566 46.3251 37.748 45.0677C41.5243 44.4228 45.4785 44.0957 49.5 44.0957C52.8153 44.0957 56.1098 44.3202 59.2913 44.7626C67.053 45.8439 74.0725 48.2524 79.0575 51.5443C84.3876 55.0645 87.2051 59.3541 87.2051 63.9492C87.2051 69.4 83.1873 74.4586 75.8914 78.1936C68.8259 81.8107 59.4534 83.8027 49.5 83.8027ZM49.5 46.1855C45.5793 46.1855 41.7266 46.5038 38.0493 47.1318C31.0237 48.3272 24.7481 50.6658 20.378 53.7165C17.3445 55.8341 13.7285 59.3286 13.7285 63.9492C13.7285 68.5471 17.3536 72.9351 23.9362 76.3048C30.7484 79.7923 39.8272 81.7129 49.5 81.7129C59.1728 81.7129 68.2514 79.7923 75.0637 76.3048C81.6464 72.9349 85.2715 68.5471 85.2715 63.9492C85.2715 59.1125 81.3438 55.5035 78.0489 53.3276C73.2909 50.1855 66.5417 47.8798 59.0442 46.8353C55.9445 46.4041 52.7334 46.1855 49.5 46.1855Z" fill="#51AB7E"/>
<path d="M49.5 92.1621C37.4684 92.1621 26.142 89.5233 17.6071 84.7315C8.87152 79.8272 4.06055 73.2279 4.06055 66.1498C4.06055 65.8727 4.16241 65.6069 4.34372 65.411C4.52502 65.215 4.77093 65.1049 5.02734 65.1049C5.28375 65.1049 5.52966 65.215 5.71097 65.411C5.89228 65.6069 5.99414 65.8727 5.99414 66.1498C5.99414 72.4093 10.4348 78.3499 18.4985 82.8769C26.7631 87.5168 37.7729 90.0723 49.5 90.0723C61.2271 90.0723 72.2369 87.5168 80.5015 82.8769C88.565 78.3499 93.0059 72.4095 93.0059 66.1498C93.0059 65.8727 93.1077 65.6069 93.289 65.411C93.4703 65.215 93.7162 65.1049 93.9727 65.1049C94.2291 65.1049 94.475 65.215 94.6563 65.411C94.8376 65.6069 94.9395 65.8727 94.9395 66.1498C94.9395 73.2281 90.1285 79.827 81.3929 84.7315C72.8582 89.5233 61.5316 92.1621 49.5 92.1621ZM59.168 29.4668H37.8984C37.642 29.4668 37.3961 29.3567 37.2148 29.1607C37.0335 28.9648 36.9316 28.699 36.9316 28.4219C36.9316 28.1447 37.0335 27.879 37.2148 27.683C37.3961 27.487 37.642 27.377 37.8984 27.377H59.168C59.4244 27.377 59.6703 27.487 59.8516 27.683C60.0329 27.879 60.1348 28.1447 60.1348 28.4219C60.1348 28.699 60.0329 28.9648 59.8516 29.1607C59.6703 29.3567 59.4244 29.4668 59.168 29.4668ZM59.168 37.8262H37.8984C37.642 37.8262 37.3961 37.7161 37.2148 37.5201C37.0335 37.3242 36.9316 37.0584 36.9316 36.7812C36.9316 36.5041 37.0335 36.2383 37.2148 36.0424C37.3961 35.8464 37.642 35.7363 37.8984 35.7363H59.168C59.4244 35.7363 59.6703 35.8464 59.8516 36.0424C60.0329 36.2383 60.1348 36.5041 60.1348 36.7812C60.1348 37.0584 60.0329 37.3242 59.8516 37.5201C59.6703 37.7161 59.4244 37.8262 59.168 37.8262ZM49.4996 62.9043C49.2717 62.9045 49.0511 62.8173 48.877 62.6583C48.8078 62.5952 41.8499 56.3568 37.9711 59.9141C33.9112 63.637 29.456 62.0034 27.6678 60.6191C27.459 60.4582 27.3179 60.2142 27.2756 59.9409C27.2332 59.6676 27.2931 59.3872 27.4419 59.1616C27.5908 58.936 27.8165 58.7835 28.0694 58.7377C28.3223 58.6919 28.5817 58.7566 28.7904 58.9175C28.9529 59.041 32.8137 61.9033 36.7201 58.3206C41.8416 53.6233 49.7875 60.7545 50.1232 61.0602C50.2749 61.1983 50.3836 61.3835 50.4346 61.5906C50.4856 61.7977 50.4764 62.0168 50.4084 62.2181C50.3403 62.4194 50.2166 62.5932 50.054 62.7159C49.8915 62.8387 49.6979 62.9045 49.4996 62.9043Z" fill="#51AB7E"/>
<path d="M49.5004 62.9045C49.3022 62.9046 49.1087 62.8388 48.9461 62.7161C48.7836 62.5933 48.66 62.4195 48.5919 62.2183C48.5238 62.017 48.5147 61.798 48.5656 61.5909C48.6166 61.3838 48.7252 61.1987 48.8768 61.0606C49.2127 60.7549 57.158 53.6237 62.2801 58.321C66.2161 61.931 70.1673 58.9511 70.2065 58.9202C70.4151 58.759 70.6743 58.6939 70.9272 58.7391C71.1802 58.7843 71.4062 58.9362 71.5556 59.1613C71.7048 59.3867 71.7651 59.6669 71.7233 59.9403C71.6814 60.2137 71.5409 60.458 71.3324 60.6194C69.5439 62.0035 65.0885 63.6372 61.0291 59.9145C57.1406 56.3486 50.1928 62.595 50.1232 62.6587C49.949 62.8176 49.7284 62.9046 49.5004 62.9045ZM49.4993 71.2638C49.2875 71.264 49.0815 71.1887 48.9134 71.0494C48.8442 70.9924 41.8788 65.3421 37.971 68.9259C33.871 72.6858 29.3974 70.5698 27.605 68.9259C27.4115 68.7462 27.2916 68.4911 27.2713 68.2162C27.2511 67.9413 27.3323 67.6689 27.4971 67.4584C27.662 67.2479 27.8971 67.1164 28.1513 67.0925C28.4055 67.0685 28.6581 67.1542 28.8541 67.3308C29.0246 67.4846 32.8651 70.868 36.7199 67.3324C41.8121 62.662 49.7514 69.1117 50.0867 69.3886C50.2474 69.5213 50.3655 69.7051 50.4245 69.9142C50.4835 70.1232 50.4803 70.347 50.4154 70.554C50.3506 70.761 50.2273 70.9408 50.063 71.0682C49.8986 71.1955 49.7015 71.2639 49.4993 71.2638Z" fill="#51AB7E"/>
<path d="M49.5007 71.2638C49.2984 71.264 49.1012 71.1956 48.9368 71.0682C48.7724 70.9409 48.6491 70.761 48.5843 70.554C48.5194 70.3469 48.5163 70.1231 48.5753 69.914C48.6343 69.7049 48.7525 69.5211 48.9133 69.3884C49.2484 69.1115 57.1871 62.6618 62.2802 67.3322C66.1402 70.8724 69.9846 67.4764 70.1467 67.3299C70.3429 67.1521 70.5963 67.0657 70.8514 67.0894C71.1065 67.1132 71.3425 67.2453 71.5077 67.4567C71.6727 67.6678 71.7535 67.9409 71.7324 68.2163C71.7113 68.4916 71.59 68.7467 71.3952 68.9255C69.6023 70.5696 65.129 72.6855 61.0292 68.9255C57.1104 65.3316 50.1568 70.9915 50.0868 71.049C49.9187 71.1885 49.7126 71.264 49.5007 71.2638Z" fill="#51AB7E"/>
</svg>
