<svg width="89" height="83" viewBox="0 0 89 83" fill="none" xmlns="http://www.w3.org/2000/svg">
<path d="M43.772 12.5061L0.312127 55.5113C-0.10123 55.9192 -0.104055 56.5858 0.303842 56.9977C0.713622 57.4129 1.38159 57.4118 1.79024 57.006L7.32358 51.5305L11.2293 80.8971H4.41689C3.8365 80.8971 3.3657 81.3679 3.3657 81.9483C3.3657 82.5287 3.8365 82.9995 4.41689 82.9995H84.5831C85.1635 82.9995 85.6343 82.5287 85.6343 81.9483C85.6343 81.3679 85.1635 80.8971 84.5831 80.8971H77.7705L81.6766 51.528L87.2098 57.006C87.6203 57.4139 88.2883 57.4097 88.6962 56.9977C89.1041 56.5857 89.1012 55.9205 88.6879 55.5113L45.2501 12.5059C45.199 12.456 44.9294 12.2014 44.5053 12.2036C44.0885 12.2059 43.8243 12.4547 43.772 12.5061ZM64.3274 80.8969H45.558V48.307L64.3274 80.8969ZM47.7165 47.8409L70.3031 63.3199C66.8814 67.3111 65.7071 74.1889 65.3046 78.3814L47.7165 47.8409ZM9.19678 49.677L43.4556 15.7772V80.8969H13.3492L9.19678 49.677ZM75.6508 80.8969H67.2362C67.394 77.6927 68.2301 67.9354 72.63 63.9329C72.8667 63.7167 72.9927 63.4031 72.9709 63.0828C72.949 62.7625 72.782 62.4697 72.5164 62.2876L45.558 43.8128V15.7694L79.8036 49.6736L75.6508 80.8969Z" fill="#51AB7E"/>
<path d="M74.7352 0.543323C74.5148 0.14503 74.0618 -0.067204 73.6141 0.0190457C69.5325 0.812994 66.5693 4.41815 66.5693 8.59128C66.5693 13.4134 70.4935 17.3375 75.3156 17.3375C79.4806 17.3375 83.0912 14.3757 83.9002 10.2954C83.9891 9.84774 83.7784 9.39333 83.3801 9.17168C82.9818 8.95398 82.4835 9.01292 82.1496 9.32497C81.1709 10.2434 79.8789 10.7498 78.5102 10.7498C75.5579 10.7498 73.1571 8.3476 73.1571 5.39534C73.1571 4.03624 73.6635 2.74966 74.5819 1.77097C74.8939 1.4384 74.9555 0.941615 74.7352 0.543323ZM78.51 12.8522C79.2492 12.8522 79.9717 12.7454 80.6617 12.5401C79.4367 14.1881 77.4739 15.2351 75.3156 15.2351C71.6515 15.2351 68.6717 12.2554 68.6717 8.59128C68.6717 6.42864 69.7188 4.4673 71.3681 3.24776C71.1613 3.93625 71.0547 4.65882 71.0547 5.39534C71.0545 9.50707 74.3998 12.8522 78.51 12.8522Z" fill="#51AB7E"/>
<path d="M17.6443 17.8382C16.7988 16.7433 15.5276 16.0288 14.0883 16.0288C13.5079 16.0288 13.0371 16.4996 13.0371 17.08C13.0371 17.6604 13.5079 18.1312 14.0883 18.1312C15.4694 18.1312 16.5931 19.3699 16.5931 20.8933C16.5931 21.4736 17.0639 21.9444 17.6443 21.9444C18.2247 21.9444 18.6955 21.4736 18.6955 20.8933C18.6955 19.3699 19.8179 18.1312 21.1988 18.1312C21.7792 18.1312 22.25 17.6604 22.25 17.08C22.25 16.4996 21.7792 16.0288 21.1988 16.0288C19.7604 16.0288 18.4897 16.7433 17.6443 17.8382Z" fill="#51AB7E"/>
<path d="M30.6387 3.75516C29.7933 2.66047 28.5225 1.9458 27.0842 1.9458C26.5038 1.9458 26.033 2.4166 26.033 2.99699C26.033 3.57739 26.5038 4.04818 27.0842 4.04818C28.4653 4.04818 29.5875 5.28694 29.5875 6.80892C29.5875 7.38932 30.0583 7.86012 30.6387 7.86012C31.219 7.86012 31.6898 7.38932 31.6898 6.80892C31.6898 5.28694 32.8135 4.04818 34.1947 4.04818C34.7751 4.04818 35.2459 3.57739 35.2459 2.99699C35.2459 2.4166 34.7751 1.9458 34.1947 1.9458C32.7555 1.94599 31.4842 2.66047 30.6387 3.75516Z" fill="#51AB7E"/>
</svg>
