<svg width="157" height="56" viewBox="0 0 157 56" fill="none" xmlns="http://www.w3.org/2000/svg">
<mask id="mask0_292_1072" style="mask-type:luminance" maskUnits="userSpaceOnUse" x="0" y="0" width="157" height="56">
<path d="M0 0.310062H157V55.3101H0V0.310062Z" fill="white"/>
</mask>
<g mask="url(#mask0_292_1072)">
<path d="M37.2433 24.5696C35.4588 20.6291 33.0227 17.5718 30.6045 15.9586L31.2388 14.6474C31.3499 14.4104 31.3638 14.1398 31.2763 13.8934C31.1894 13.6468 31.0087 13.4459 30.7744 13.3339C30.5403 13.2221 30.271 13.208 30.0267 13.2963C29.7824 13.384 29.5831 13.5662 29.4722 13.8032L28.8953 15.0041C28.3554 14.7734 27.7699 14.6702 27.1844 14.7046C26.605 14.6788 26.0272 14.7812 25.4914 15.0049L24.9151 13.8041C24.6918 13.316 24.097 13.1101 23.613 13.3347C23.1289 13.5599 22.925 14.1608 23.1477 14.649L23.7805 15.9617C21.3615 17.5764 18.9053 20.6354 17.1378 24.5759C14.0092 31.5363 14.2862 38.2353 17.7832 39.8476C18.3416 40.1098 18.955 40.2224 19.6065 40.2224C21.9316 40.2216 24.7421 38.7023 27.1588 36.5055C29.7259 38.7938 32.6449 40.1817 34.8779 40.1809C35.5099 40.1809 36.0869 40.0683 36.5894 39.843C38.3747 39.0175 39.3984 36.8966 39.4365 33.8573C39.4552 31.0801 38.6749 27.7772 37.2433 24.5696ZM27.1782 33.7847C26.6189 33.1721 26.1033 32.5197 25.6349 31.8334L28.7232 31.8328C28.2601 32.5234 27.7435 33.1759 27.1782 33.7847ZM30.1369 29.2433L24.2217 29.2448C23.8751 28.4476 23.6075 27.6184 23.4229 26.7688L30.9372 26.7665C30.7519 27.6167 30.4843 28.446 30.1369 29.2433ZM27.1821 16.672C27.573 16.6918 27.9815 16.8035 28.4292 16.9921C29.5452 17.6672 30.5301 19.3007 30.9775 21.2682C31.2025 22.2266 31.2962 23.2108 31.2567 24.1949L23.1065 24.1972C23.0863 23.2146 23.1801 22.232 23.3865 21.2707C23.8331 19.3007 24.8197 17.668 25.9374 16.9936C26.3282 16.8082 26.7509 16.6995 27.1821 16.672ZM18.5834 38.0648C16.464 37.0891 16.0746 31.6489 18.903 25.3997C19.5995 23.835 20.4604 22.3501 21.4709 20.9701C20.8178 23.9742 21.1902 27.2749 22.5659 30.2955C23.3843 32.1151 24.5188 33.7478 25.8016 35.1544C23.067 37.557 20.0531 38.721 18.5834 38.0648ZM35.7721 38.0593C34.3024 38.7344 31.2715 37.5539 28.5362 35.1326C29.8941 33.6501 31.0465 31.9813 31.7927 30.3096C33.1514 27.2883 33.5423 23.9868 32.8923 20.9842C33.8022 22.2243 34.677 23.7075 35.4579 25.4146C36.778 28.36 37.5023 31.3618 37.4651 33.8573C37.4458 36.0338 36.8306 37.5725 35.7721 38.0593Z" fill="#655F50"/>
<path d="M53.8223 31.5024C54.7535 31.5024 55.5159 31.1978 56.1105 30.5886C56.7049 29.9785 57.002 29.1742 57.002 28.1749C57.002 27.1764 56.7049 26.3721 56.1105 25.762C55.5159 25.1527 54.7535 24.8472 53.8223 24.8472C52.891 24.8472 52.1286 25.1527 51.534 25.762C50.9396 26.3721 50.6425 27.1764 50.6425 28.1749C50.6425 29.1742 50.9396 29.9785 51.534 30.5886C52.1286 31.1978 52.891 31.5024 53.8223 31.5024ZM62.321 31.9526C62.6183 31.9526 62.8457 31.9021 63.0052 31.8023L62.7372 35.0698C62.4993 35.1297 62.1823 35.1897 61.786 35.2497C61.3897 35.3097 61.0236 35.3391 60.6868 35.3391C59.1214 35.3391 58.042 34.8099 57.4476 33.7506C56.8332 34.2902 56.1444 34.7053 55.382 34.9945C54.6196 35.2839 53.8025 35.4294 52.9305 35.4294C51.9794 35.4294 51.0924 35.2449 50.2706 34.8747C49.4487 34.5054 48.7308 33.9962 48.1164 33.346C47.5022 32.6969 47.022 31.9325 46.6748 31.0531C46.3284 30.1735 46.1548 29.2143 46.1548 28.1749C46.1548 27.1363 46.3284 26.177 46.6748 25.2975C47.022 24.4181 47.5022 23.6536 48.1164 23.0037C48.7308 22.3544 49.4487 21.85 50.2706 21.4901C51.0924 21.1304 51.9794 20.9505 52.9305 20.9505C54.6734 20.9505 56.1596 21.4901 57.3881 22.5696L57.5966 21.2798H61.2519V30.8132C61.2519 31.2129 61.3454 31.5024 61.534 31.6823C61.722 31.8622 61.9841 31.9526 62.321 31.9526Z" fill="#0387CA"/>
<path d="M73.2869 31.5023C74.2381 31.5023 75.0051 31.1873 75.5901 30.5581C76.1743 29.9289 76.4667 29.1341 76.4667 28.1748C76.4667 27.2153 76.1743 26.4215 75.5901 25.7915C75.0051 25.1623 74.2381 24.8471 73.2869 24.8471C72.316 24.8471 71.5384 25.1669 70.9535 25.8066C70.3693 26.4463 70.0768 27.2363 70.0768 28.1748C70.0768 29.1142 70.3693 29.9042 70.9535 30.5428C71.5384 31.1835 72.316 31.5023 73.2869 31.5023ZM74.0296 20.9504C74.9805 20.9504 75.877 21.1304 76.7187 21.49C77.5613 21.8499 78.2944 22.3543 78.9181 23.0036C79.5418 23.6536 80.0325 24.418 80.3893 25.2974C80.7458 26.177 80.9242 27.1362 80.9242 28.1748C80.9242 29.2142 80.7458 30.1735 80.3893 31.0531C80.0325 31.9324 79.5418 32.6969 78.9181 33.346C78.2944 33.9961 77.5613 34.5053 76.7187 34.8747C75.877 35.2448 74.9805 35.4294 74.0296 35.4294C72.5235 35.4294 71.2064 35.0003 70.0768 34.1406V40.3162H65.7685V25.4773L65.4712 21.3997L69.4531 21.0408L69.572 22.6295C70.8005 21.5102 72.2858 20.9504 74.0296 20.9504Z" fill="#0387CA"/>
<path d="M88.9177 31.9525C89.096 31.9525 89.2499 31.9372 89.3782 31.9068C89.5075 31.8772 89.6112 31.8422 89.6905 31.8021L89.4235 35.0696C89.2046 35.1296 88.9224 35.1896 88.5761 35.2496C88.2289 35.3095 87.7683 35.3391 87.1947 35.3391C86.0246 35.3391 85.1481 35.0298 84.564 34.41C83.9798 33.7913 83.6875 32.9214 83.6875 31.8021V25.5068L83.4203 21.3702L87.9968 21.0703V30.9026C87.9968 31.2434 88.0806 31.5022 88.2496 31.6821C88.4176 31.8621 88.6403 31.9525 88.9177 31.9525ZM85.8566 19.3915C85.1433 19.3915 84.5441 19.1515 84.0592 18.6719C83.5731 18.1931 83.3203 17.583 83.3014 16.8433C83.2817 16.0847 83.5241 15.4652 84.0291 14.9854C84.5347 14.5057 85.1433 14.2658 85.8566 14.2658C86.5699 14.2658 87.1739 14.5057 87.6694 14.9854C88.1646 15.4652 88.4129 16.0743 88.4129 16.8139C88.4318 17.5734 88.1902 18.1931 87.6843 18.6719C87.1795 19.1515 86.5699 19.3915 85.8566 19.3915Z" fill="#0387CA"/>
<path d="M98.9922 31.5024C99.9234 31.5024 100.686 31.1978 101.28 30.5886C101.875 29.9785 102.172 29.1742 102.172 28.1749C102.172 27.1764 101.875 26.3721 101.28 25.762C100.686 25.1527 99.9234 24.8472 98.9922 24.8472C98.061 24.8472 97.2986 25.1576 96.7039 25.7771C96.1095 26.3968 95.8124 27.1963 95.8124 28.1749C95.8124 29.1941 96.1191 30.0032 96.7333 30.6028C97.3476 31.2024 98.1005 31.5024 98.9922 31.5024ZM107.491 31.9526C107.768 31.9526 108.006 31.9021 108.204 31.8023L107.937 35.0698C107.699 35.1297 107.383 35.1897 106.986 35.2497C106.59 35.3097 106.213 35.3391 105.857 35.3391C104.252 35.3391 103.162 34.79 102.588 33.6906C102.014 34.2502 101.344 34.6805 100.582 34.9802C99.8188 35.2791 98.9922 35.4294 98.1005 35.4294C97.189 35.4294 96.3218 35.2497 95.4999 34.8898C94.6781 34.5301 93.9554 34.0352 93.3308 33.406C92.7071 32.7768 92.2164 32.0269 91.8597 31.1578C91.5031 30.2889 91.3247 29.3445 91.3247 28.3252C91.3247 27.2059 91.5031 26.197 91.8597 25.2975C92.2164 24.3979 92.6967 23.6232 93.3015 22.9741C93.9053 22.325 94.6186 21.8253 95.4405 21.475C96.2623 21.1256 97.1495 20.9505 98.1005 20.9505C99.665 20.9505 101.003 21.3607 102.113 22.1793V15.6147L106.422 15.4052V30.8132C106.422 31.2129 106.515 31.5024 106.704 31.6823C106.892 31.8622 107.154 31.9526 107.491 31.9526Z" fill="#0387CA"/>
<path d="M117.535 31.5024C118.466 31.5024 119.229 31.1978 119.823 30.5886C120.418 29.9785 120.715 29.1742 120.715 28.1749C120.715 27.1764 120.418 26.3721 119.823 25.762C119.229 25.1527 118.466 24.8472 117.535 24.8472C116.604 24.8472 115.842 25.1527 115.247 25.762C114.652 26.3721 114.355 27.1764 114.355 28.1749C114.355 29.1742 114.652 29.9785 115.247 30.5886C115.842 31.1978 116.604 31.5024 117.535 31.5024ZM126.034 31.9526C126.331 31.9526 126.559 31.9021 126.718 31.8023L126.45 35.0698C126.212 35.1297 125.895 35.1897 125.499 35.2497C125.103 35.3097 124.736 35.3391 124.4 35.3391C122.834 35.3391 121.755 34.8099 121.16 33.7506C120.546 34.2902 119.857 34.7053 119.095 34.9945C118.332 35.2839 117.515 35.4294 116.643 35.4294C115.692 35.4294 114.805 35.2449 113.983 34.8747C113.162 34.5054 112.444 33.9962 111.829 33.346C111.215 32.6969 110.735 31.9325 110.388 31.0531C110.041 30.1735 109.868 29.2143 109.868 28.1749C109.868 27.1363 110.041 26.177 110.388 25.2975C110.735 24.4181 111.215 23.6536 111.829 23.0037C112.444 22.3544 113.162 21.85 113.983 21.4901C114.805 21.1304 115.692 20.9505 116.643 20.9505C118.386 20.9505 119.872 21.4901 121.101 22.5696L121.31 21.2798H124.965V30.8132C124.965 31.2129 125.058 31.5024 125.247 31.6823C125.435 31.8622 125.697 31.9526 126.034 31.9526Z" fill="#0387CA"/>
<path d="M136.139 24.4875C135.366 24.4875 134.657 24.7379 134.014 25.2375C133.37 25.7373 132.959 26.4568 132.78 27.3954C134.523 27.4363 135.772 27.3012 136.524 26.9908C137.278 26.6815 137.654 26.237 137.654 25.6574C137.654 25.2576 137.52 24.9626 137.253 24.7732C136.986 24.5827 136.614 24.4875 136.139 24.4875ZM132.721 28.8945C132.86 29.7539 133.271 30.4439 133.954 30.9628C134.637 31.4825 135.653 31.7423 137 31.7423C138.13 31.7423 139.036 31.6024 139.719 31.3224C140.403 31.0427 140.992 30.7134 141.488 30.3336L141.16 34.2007C140.764 34.4807 140.136 34.7548 139.274 35.0251C138.412 35.2944 137.327 35.4297 136.02 35.4297C134.87 35.4297 133.825 35.2697 132.884 34.9498C131.943 34.63 131.14 34.176 130.477 33.586C129.813 32.9967 129.299 32.2725 128.932 31.4128C128.565 30.5534 128.382 29.5836 128.382 28.5052C128.382 27.4258 128.576 26.4216 128.962 25.4917C129.348 24.5628 129.887 23.7642 130.581 23.0941C131.274 22.4249 132.097 21.9006 133.047 21.5197C133.999 21.141 135.039 20.9505 136.168 20.9505C137.139 20.9505 137.981 21.0705 138.694 21.3104C139.407 21.5501 139.997 21.8796 140.462 22.2993C140.927 22.7191 141.275 23.2044 141.503 23.7537C141.73 24.3038 141.844 24.8883 141.844 25.507C141.844 26.9661 141.349 28.0958 140.358 28.8945C139.367 29.6939 138.041 30.0937 136.376 30.0937C135.544 30.0937 134.811 29.989 134.177 29.7787C133.543 29.5694 133.058 29.2743 132.721 28.8945Z" fill="#0387CA"/>
<path d="M156.987 55.2988H0.000976562V0.313303H156.987V55.2988Z" stroke="white" stroke-width="0.0133333" stroke-miterlimit="10"/>
</g>
</svg>
