<svg width="25" height="25" viewBox="0 0 25 25" fill="none" xmlns="http://www.w3.org/2000/svg">
<path d="M20.8555 13.3231C21.14 13.0454 21.3026 12.6662 21.3077 12.2687C21.3127 11.8713 21.1598 11.488 20.8825 11.2032L15.2991 5.47259C15.0214 5.18763 14.6417 5.02469 14.2438 5.01962C13.8459 5.01455 13.4623 5.16776 13.1773 5.44554C12.8924 5.72333 12.7294 6.10293 12.7243 6.50085C12.7193 6.89877 12.8725 7.28241 13.1503 7.56737L16.2065 10.7036L4.67247 10.5565C4.27467 10.5515 3.89116 10.7046 3.60629 10.9823C3.32142 11.26 3.15854 11.6395 3.15347 12.0373C3.1484 12.4351 3.30155 12.8186 3.57925 13.1035C3.85695 13.3883 4.23643 13.5512 4.63422 13.5563L16.1683 13.7033L13.0331 16.7596C12.892 16.8972 12.7794 17.0612 12.7016 17.2422C12.6239 17.4233 12.5826 17.6179 12.5801 17.8149C12.5776 18.012 12.6139 18.2076 12.687 18.3906C12.7601 18.5735 12.8685 18.7404 13.006 18.8815C13.1436 19.0225 13.3076 19.1352 13.4886 19.2129C13.6697 19.2906 13.8643 19.3319 14.0613 19.3344C14.2584 19.3369 14.454 19.3006 14.637 19.2275C14.8199 19.1545 14.9868 19.046 15.1278 18.9085L20.8555 13.3231Z" fill="#E9B237"/>
</svg>
