<svg width="61" height="61" viewBox="0 0 61 61" fill="none" xmlns="http://www.w3.org/2000/svg">
<rect x="0.500341" y="0.500404" width="59" height="59" rx="29.5" transform="matrix(0.999992 0.000801003 0.000689141 1.00001 -0.000341002 -0.000404353)" stroke="#51AB7E"/>
<path d="M41.7273 30.7416L32.7343 39.7337C32.5393 39.9287 32.2833 40.0261 32.0273 40.0259C31.7713 40.0257 31.5153 39.9279 31.32 39.7326C30.9293 39.3419 30.9288 38.7091 31.319 38.3182L38.6067 31.0312L19.0212 31.0155C18.4692 31.015 18.0209 30.5667 18.0206 30.0147C18.0202 29.4627 18.4679 29.015 19.0199 29.0154L38.6053 29.0311L31.3075 21.7324C30.9169 21.3417 30.9164 20.7089 31.3066 20.318C31.6967 19.9271 32.3295 19.9284 32.721 20.3192L41.7263 29.3256C41.8192 29.4177 41.892 29.529 41.9433 29.6514C42.0443 29.8955 42.0445 30.1707 41.9438 30.4154C41.8927 30.5386 41.82 30.6489 41.7273 30.7416Z" fill="#51AB7E"/>
</svg>
