<svg width="25" height="25" viewBox="0 0 25 25" fill="none" xmlns="http://www.w3.org/2000/svg">
<g clip-path="url(#clip0_587_448)">
<path d="M3.33495 10.953C3.05293 11.2331 2.89363 11.6138 2.89205 12.0113C2.89046 12.4088 3.04672 12.7906 3.3265 13.073L8.95991 18.7545C9.24018 19.037 9.6212 19.1966 10.0191 19.1982C10.4171 19.1998 10.7994 19.0432 11.0819 18.7629C11.3644 18.4827 11.524 18.1016 11.5256 17.7037C11.5272 17.3057 11.3706 16.9235 11.0903 16.641L8.00671 13.5316L19.5416 13.5776C19.9394 13.5792 20.3216 13.4227 20.604 13.1425C20.8864 12.8623 21.046 12.4814 21.0476 12.0836C21.0492 11.6858 20.8927 11.3036 20.6125 11.0212C20.3323 10.7388 19.9514 10.5792 19.5536 10.5776L8.01866 10.5317L11.127 7.44803C11.2669 7.30925 11.378 7.14428 11.4542 6.96254C11.5303 6.78079 11.5699 6.58583 11.5707 6.38879C11.5715 6.19174 11.5334 5.99647 11.4587 5.81413C11.3841 5.63178 11.2742 5.46593 11.1354 5.32604C10.9966 5.18616 10.8317 5.07497 10.6499 4.99884C10.4682 4.92271 10.2732 4.88312 10.0762 4.88234C9.87914 4.88155 9.68387 4.91959 9.50153 4.99427C9.31918 5.06895 9.15333 5.17881 9.01344 5.31759L3.33495 10.953Z" fill="#E9B237"/>
</g>
<defs>
<clipPath id="clip0_587_448">
<rect width="24" height="24" fill="white" transform="translate(0 23.9998) rotate(-89.7717)"/>
</clipPath>
</defs>
</svg>
