<svg width="61" height="61" viewBox="0 0 61 61" fill="none" xmlns="http://www.w3.org/2000/svg">
<rect x="-0.500296" y="-0.500448" width="59" height="59" rx="29.5" transform="matrix(-0.999992 -0.000889552 -0.000600592 -1.00001 59.0343 59.0525)" stroke="#51AB7E"/>
<path d="M18.3105 29.3085L27.3043 20.3172C27.4994 20.1222 27.7553 20.0248 28.0113 20.0251C28.2673 20.0253 28.5233 20.1231 28.7187 20.3185C29.1093 20.7092 29.1097 21.3421 28.7195 21.7329L21.4311 29.0193L41.0166 29.0367C41.5686 29.0372 42.0169 29.4856 42.0172 30.0376C42.0175 30.5896 41.5698 31.0372 41.0178 31.0367L21.4323 31.0193L28.7295 38.3186C29.1201 38.7094 29.1205 39.3422 28.7303 39.733C28.3402 40.1239 27.7074 40.1225 27.3159 39.7318L18.3114 30.7245C18.2185 30.6324 18.1457 30.5212 18.0944 30.3987C17.9935 30.1546 17.9933 29.8794 18.0939 29.6347C18.1451 29.5116 18.2178 29.4012 18.3105 29.3085Z" fill="#51AB7E"/>
</svg>
