<svg width="61" height="61" viewBox="0 0 61 61" fill="none" xmlns="http://www.w3.org/2000/svg">
<rect x="0.500341" y="0.500404" width="59" height="59" rx="29.5" transform="matrix(0.999992 0.000801003 0.000689141 1.00001 -0.000341002 -0.000404353)" stroke="#51AB7E"/>
<path d="M41.7273 30.7415L32.7343 39.7336C32.5393 39.9286 32.2833 40.026 32.0273 40.0258C31.7713 40.0256 31.5153 39.9278 31.32 39.7324C30.9293 39.3417 30.9288 38.7089 31.319 38.318L38.6067 31.031L19.0212 31.0153C18.4692 31.0149 18.0209 30.5665 18.0206 30.0145C18.0202 29.4625 18.4679 29.0149 19.0199 29.0153L38.6053 29.031L31.3075 21.7323C30.9169 21.3416 30.9164 20.7088 31.3066 20.3179C31.6967 19.927 32.3295 19.9283 32.721 20.319L41.7263 29.3255C41.8192 29.4176 41.892 29.5288 41.9433 29.6513C42.0443 29.8954 42.0445 30.1706 41.9438 30.4153C41.8927 30.5385 41.82 30.6488 41.7273 30.7415Z" fill="#51AB7E"/>
</svg>
