<svg width="18" height="18" viewBox="0 0 18 18" fill="none" xmlns="http://www.w3.org/2000/svg">
<g clip-path="url(#clip0_523_5984)">
<path d="M0.150892 0.151062C0.236116 0.0658831 0.348502 0.0132731 0.468502 0.00238218C0.588502 -0.00850871 0.708522 0.0230086 0.807689 0.0914522L0.878783 0.151062L17.3496 16.6218C17.4431 16.712 17.499 16.8343 17.506 16.964C17.513 17.0937 17.4707 17.2213 17.3875 17.3211C17.3043 17.4209 17.1863 17.4854 17.0575 17.5018C16.9286 17.5182 16.7983 17.4851 16.6928 17.4093L16.6217 17.3497L0.150892 0.878952C0.103023 0.831201 0.0650435 0.774475 0.0391301 0.712023C0.0132166 0.649571 -0.00012207 0.582621 -0.00012207 0.515007C-0.00012207 0.447392 0.0132166 0.380442 0.0391301 0.317991C0.0650435 0.255539 0.103023 0.198813 0.150892 0.151062Z" fill="#51AB7E" stroke="#51AB7E" stroke-width="0.8"/>
<path d="M17.349 0.150938C17.2638 0.0657591 17.1514 0.0131491 17.0314 0.0022582C16.9114 -0.00863269 16.7914 0.0228846 16.6922 0.0913282L16.6211 0.150938L0.150345 16.6217C0.0568378 16.7119 0.000948704 16.8342 -0.00608205 16.9639C-0.0131128 17.0936 0.0292363 17.2212 0.112448 17.321C0.19566 17.4207 0.313563 17.4853 0.442445 17.5017C0.571326 17.5181 0.701627 17.485 0.807142 17.4092L0.878236 17.3496L17.349 0.878828C17.3969 0.831077 17.4349 0.774351 17.4608 0.711899C17.4867 0.649448 17.5 0.582497 17.5 0.514883C17.5 0.447268 17.4867 0.380318 17.4608 0.317867C17.4349 0.255415 17.3969 0.198689 17.349 0.150938Z" fill="#51AB7E" stroke="#51AB7E" stroke-width="0.8"/>
</g>
<defs>
<clipPath id="clip0_523_5984">
<rect width="17.5" height="17.5" fill="white"/>
</clipPath>
</defs>
</svg>
