<svg width="30" height="30" viewBox="0 0 30 30" fill="none" xmlns="http://www.w3.org/2000/svg">
<path d="M29.6777 8.90625C29.6387 8.125 29.5605 7.45117 29.4434 6.88477C29.3262 6.31836 29.1699 5.80078 28.9746 5.33203C28.7988 4.84375 28.5742 4.38965 28.3008 3.96973C28.0273 3.5498 27.6855 3.13477 27.2754 2.72461C26.8652 2.31445 26.4502 1.97266 26.0303 1.69922C25.6104 1.42578 25.1562 1.19141 24.668 0.996094C24.1992 0.820312 23.6816 0.673828 23.1152 0.556641C22.5488 0.439453 21.875 0.361328 21.0938 0.322266C20.293 0.283203 19.5801 0.258789 18.9551 0.249023C18.3301 0.239258 17.0117 0.234375 15 0.234375C12.9883 0.234375 11.6699 0.239258 11.0449 0.249023C10.4199 0.258789 9.70703 0.283203 8.90625 0.322266C8.125 0.361328 7.45117 0.439453 6.88477 0.556641C6.31836 0.673828 5.80078 0.830078 5.33203 1.02539C4.84375 1.20117 4.38965 1.42578 3.96973 1.69922C3.5498 1.97266 3.13477 2.31445 2.72461 2.72461C2.31445 3.13477 1.97266 3.5498 1.69922 3.96973C1.42578 4.38965 1.20117 4.84375 1.02539 5.33203C0.830078 5.80078 0.673828 6.31836 0.556641 6.88477C0.439453 7.45117 0.361328 8.125 0.322266 8.90625C0.283203 9.70703 0.258789 10.4199 0.249023 11.0449C0.239258 11.6699 0.234375 12.9883 0.234375 15C0.234375 17.0117 0.239258 18.3301 0.249023 18.9551C0.258789 19.5801 0.283203 20.293 0.322266 21.0938C0.361328 21.875 0.439453 22.5488 0.556641 23.1152C0.673828 23.6816 0.830078 24.1992 1.02539 24.668C1.20117 25.1562 1.42578 25.6104 1.69922 26.0303C1.97266 26.4502 2.31445 26.8652 2.72461 27.2754C3.13477 27.6855 3.5498 28.0273 3.96973 28.3008C4.38965 28.5742 4.84375 28.8086 5.33203 29.0039C5.80078 29.1797 6.31836 29.3262 6.88477 29.4434C7.45117 29.5605 8.125 29.6387 8.90625 29.6777C9.70703 29.7168 10.4199 29.7412 11.0449 29.751C11.6699 29.7607 12.9883 29.7656 15 29.7656C17.0117 29.7656 18.335 29.7607 18.9697 29.751C19.6045 29.7412 20.3125 29.7168 21.0938 29.6777C21.875 29.6387 22.5488 29.5605 23.1152 29.4434C23.6816 29.3262 24.1992 29.1797 24.668 29.0039C25.1562 28.8086 25.6152 28.5742 26.0449 28.3008C26.4746 28.0273 26.8945 27.6855 27.3047 27.2754C27.7148 26.8652 28.0518 26.4502 28.3154 26.0303C28.5791 25.6104 28.8086 25.1562 29.0039 24.668C29.1797 24.1992 29.3262 23.6816 29.4434 23.1152C29.5605 22.5488 29.6387 21.875 29.6777 21.0938C29.7168 20.293 29.7412 19.5801 29.751 18.9551C29.7607 18.3301 29.7656 17.0117 29.7656 15C29.7656 12.9883 29.7607 11.6699 29.751 11.0449C29.7412 10.4199 29.7168 9.70703 29.6777 8.90625ZM27.0117 20.9766C26.9922 21.6992 26.9287 22.2705 26.8213 22.6904C26.7139 23.1104 26.6113 23.4473 26.5137 23.7012C26.377 24.0527 26.2207 24.3604 26.0449 24.624C25.8691 24.8877 25.6543 25.1465 25.4004 25.4004C25.1465 25.6543 24.8877 25.8691 24.624 26.0449C24.3604 26.2207 24.0527 26.377 23.7012 26.5137C23.4473 26.6113 23.1104 26.7139 22.6904 26.8213C22.2705 26.9287 21.6992 26.9922 20.9766 27.0117C20.1953 27.0508 19.4971 27.0752 18.8818 27.085C18.2666 27.0947 16.9727 27.0996 15 27.0996C13.0273 27.0996 11.7334 27.0947 11.1182 27.085C10.5029 27.0752 9.80469 27.0508 9.02344 27.0117C8.32031 26.9922 7.75391 26.9287 7.32422 26.8213C6.89453 26.7139 6.55273 26.6113 6.29883 26.5137C5.94727 26.377 5.63965 26.2207 5.37598 26.0449C5.1123 25.8691 4.85352 25.6543 4.59961 25.4004C4.3457 25.1465 4.13086 24.8877 3.95508 24.624C3.7793 24.3604 3.62305 24.0527 3.48633 23.7012C3.38867 23.4473 3.28613 23.1104 3.17871 22.6904C3.07129 22.2705 3.00781 21.6992 2.98828 20.9766C2.94922 20.1953 2.9248 19.4971 2.91504 18.8818C2.90527 18.2666 2.90039 16.9727 2.90039 15C2.90039 13.0273 2.90527 11.7334 2.91504 11.1182C2.9248 10.5029 2.94922 9.80469 2.98828 9.02344C3.00781 8.32031 3.07129 7.75391 3.17871 7.32422C3.28613 6.89453 3.38867 6.55273 3.48633 6.29883C3.62305 5.94727 3.7793 5.63965 3.95508 5.37598C4.13086 5.1123 4.3457 4.85352 4.59961 4.59961C4.85352 4.3457 5.1123 4.13086 5.37598 3.95508C5.63965 3.7793 5.94727 3.62305 6.29883 3.48633C6.55273 3.38867 6.88965 3.28613 7.30957 3.17871C7.72949 3.07129 8.30078 3.00781 9.02344 2.98828C9.80469 2.94922 10.5029 2.9248 11.1182 2.91504C11.7334 2.90527 13.0273 2.90039 15 2.90039C16.9727 2.90039 18.2666 2.90527 18.8818 2.91504C19.4971 2.9248 20.1953 2.94922 20.9766 2.98828C21.6797 3.00781 22.2461 3.07129 22.6758 3.17871C23.1055 3.28613 23.4473 3.38867 23.7012 3.48633C24.0527 3.62305 24.3604 3.7793 24.624 3.95508C24.8877 4.13086 25.1465 4.3457 25.4004 4.59961C25.6543 4.85352 25.8691 5.1123 26.0449 5.37598C26.2207 5.63965 26.377 5.94727 26.5137 6.29883C26.6113 6.55273 26.7139 6.88965 26.8213 7.30957C26.9287 7.72949 26.9922 8.30078 27.0117 9.02344C27.0508 9.80469 27.0752 10.5029 27.085 11.1182C27.0947 11.7334 27.0996 13.0273 27.0996 15C27.0996 16.9727 27.0947 18.2666 27.085 18.8818C27.0752 19.4971 27.0508 20.1953 27.0117 20.9766ZM15 7.41211C13.9453 7.41211 12.959 7.61719 12.041 8.02734C11.123 8.41797 10.3223 8.95508 9.63867 9.63867C8.95508 10.3223 8.41797 11.123 8.02734 12.041C7.61719 12.959 7.41211 13.9453 7.41211 15C7.41211 16.0547 7.61719 17.041 8.02734 17.959C8.41797 18.877 8.95508 19.6777 9.63867 20.3613C10.3223 21.0449 11.123 21.582 12.041 21.9727C12.959 22.3828 13.9453 22.5879 15 22.5879C16.0547 22.5879 17.041 22.3828 17.959 21.9727C18.877 21.582 19.6777 21.0449 20.3613 20.3613C21.0449 19.6777 21.582 18.877 21.9727 17.959C22.3828 17.041 22.5879 16.0547 22.5879 15C22.5879 13.9453 22.3828 12.959 21.9727 12.041C21.582 11.123 21.0449 10.3223 20.3613 9.63867C19.6777 8.95508 18.877 8.41797 17.959 8.02734C17.041 7.61719 16.0547 7.41211 15 7.41211ZM15 19.9219C13.6328 19.9219 12.4707 19.4434 11.5137 18.4863C10.5566 17.5293 10.0781 16.3672 10.0781 15C10.0781 13.6328 10.5566 12.4707 11.5137 11.5137C12.4707 10.5566 13.6328 10.0781 15 10.0781C16.3672 10.0781 17.5293 10.5566 18.4863 11.5137C19.4434 12.4707 19.9219 13.6328 19.9219 15C19.9219 16.3672 19.4434 17.5293 18.4863 18.4863C17.5293 19.4434 16.3672 19.9219 15 19.9219ZM24.6387 7.11914C24.6387 7.60742 24.4678 8.02246 24.126 8.36426C23.7842 8.70605 23.3691 8.87695 22.8809 8.87695C22.3926 8.87695 21.9775 8.70605 21.6357 8.36426C21.2939 8.02246 21.123 7.60742 21.123 7.11914C21.123 6.63086 21.2939 6.21582 21.6357 5.87402C21.9775 5.53223 22.3926 5.36133 22.8809 5.36133C23.3691 5.36133 23.7842 5.53223 24.126 5.87402C24.4678 6.21582 24.6387 6.63086 24.6387 7.11914Z" fill="#51AB7E"/>
</svg>
