<svg width="58" height="58" viewBox="0 0 58 58" fill="none" xmlns="http://www.w3.org/2000/svg">
<g clip-path="url(#clip0_442_600)">
<path fill-rule="evenodd" clip-rule="evenodd" d="M42.8912 57.8206C42.1042 57.8206 40.7681 57.8301 40.8596 56.954C40.9513 56.0755 42.0306 56.4037 42.9345 56.4626C43.8017 56.5192 43.755 57.8206 42.8912 57.8206ZM46.9443 57.5786C46.1532 57.5786 46.0052 56.4337 46.7791 56.2396C47.7134 56.0054 48.4166 55.3568 48.8153 56.1068C49.3771 57.1637 47.0491 57.5786 46.9443 57.5786ZM37.5008 57.1223L36.0323 56.8598C35.1519 56.687 35.4189 55.3527 36.2947 55.526C37.1919 55.7036 38.3235 55.6921 38.1692 56.5616C38.1106 56.8903 37.8236 57.1223 37.5008 57.1223ZM32.1804 55.9998L30.6926 55.6519C29.8257 55.4324 30.1592 54.1154 31.0272 54.3347C31.9108 54.5579 33.0471 54.6215 32.8403 55.4793C32.7655 55.7908 32.4876 55.9998 32.1804 55.9998ZM26.9256 54.6003L25.425 54.1844C24.5697 53.9254 24.9609 52.6249 25.8187 52.8837C26.6897 53.1464 27.8236 53.2606 27.5778 54.1094C27.4919 54.4068 27.2204 54.6003 26.9256 54.6003ZM49.806 53.6789C49.0512 53.6789 49.1734 52.8976 48.8175 51.9208C48.5113 51.0807 49.7871 50.6136 50.0943 51.455C50.3161 52.0628 50.9368 53.6789 49.806 53.6789ZM21.7362 52.9757L20.2267 52.5007C19.3817 52.2088 19.8236 50.9234 20.6707 51.2156C21.5292 51.5117 22.6608 51.6722 22.3807 52.5108C22.2856 52.7959 22.0209 52.9757 21.7362 52.9757ZM47.5016 48.8026C46.9839 48.8026 46.6987 48.1468 46.1512 47.4655C45.5928 46.7705 46.6522 45.9199 47.2103 46.6141C47.7427 47.2762 48.6348 48.1515 47.8941 48.6772C47.7755 48.7616 47.6381 48.8026 47.5016 48.8026ZM43.9163 44.7254C43.4832 44.7254 42.9683 44.0735 42.4673 43.6095C41.8104 43.001 42.7349 42.0049 43.3911 42.6123C44.0341 43.2077 45.0282 43.8766 44.4039 44.5192C44.2709 44.6559 44.0938 44.7254 43.9163 44.7254ZM39.8968 41.0608C39.4727 41.0608 38.8749 40.376 38.4293 39.9647C37.7717 39.3576 38.6953 38.3592 39.352 38.9663C40.0186 39.5827 40.9934 40.1767 40.4012 40.8356C40.2677 40.9848 40.0822 41.0608 39.8968 41.0608ZM36.0418 37.2295C35.5298 37.2295 35.0177 36.3838 34.6527 35.875C34.1333 35.1504 35.2392 34.3581 35.7582 35.0829C36.2985 35.8376 37.1505 36.5053 36.4791 37.0696C36.3514 37.1771 36.1961 37.2295 36.0418 37.2295ZM33.4491 32.5133C32.6669 32.5133 32.6182 31.3157 32.5572 30.5505C32.4858 29.655 33.8418 29.5545 33.9123 30.4424C33.9688 31.1551 34.5112 32.5133 33.4491 32.5133ZM33.8017 27.1692C32.5521 27.1692 33.4446 25.4662 33.6875 24.9422C34.0639 24.1309 35.297 24.7029 34.9198 25.5153C34.4978 26.4246 34.4721 27.1692 33.8017 27.1692ZM36.6398 22.6001C36.0349 22.6001 35.7278 21.8585 36.1657 21.4327C36.7266 20.8874 37.6406 19.8776 38.2091 20.6208C38.7372 21.3112 37.7936 21.7475 37.1136 22.4078C36.9811 22.5364 36.8106 22.6001 36.6398 22.6001ZM41.2481 19.7916C40.4947 19.7916 40.3037 18.7308 41.0164 18.4727C41.7839 18.1948 42.9609 17.638 43.2008 18.5242C43.429 19.3674 42.3653 19.43 41.4789 19.7509C41.4029 19.7785 41.3249 19.7916 41.2481 19.7916ZM46.5723 18.7542C45.7 18.7542 45.6652 17.4375 46.5397 17.3959C47.6594 17.3428 48.6675 17.2413 48.6114 18.1109C48.562 18.8777 47.7635 18.7542 46.5723 18.7542Z" fill="#E9B237" fill-opacity="0.91"/>
<path fill-rule="evenodd" clip-rule="evenodd" d="M10.5275 52.0799C10.2704 52.0799 10.0349 51.9339 9.91955 51.7036L5.19101 42.2464C1.98376 40.3571 0.000488281 36.8995 0.000488281 33.1712C0.000488281 27.3666 4.72287 22.644 10.5275 22.644C16.3322 22.644 21.0547 27.3666 21.0547 33.1712C21.0547 36.8992 19.0713 40.3571 15.8642 42.2464L11.1355 51.7036C11.0203 51.934 10.7848 52.0799 10.5275 52.0799ZM10.5275 24.0034C5.4724 24.0034 1.35973 28.116 1.35973 33.1712C1.35973 36.4796 3.15341 39.5433 6.04075 41.167C6.15863 41.2335 6.25456 41.3341 6.31544 41.4554L10.5272 49.8798L14.7393 41.4554C14.8002 41.3335 14.896 41.2332 15.014 41.167C17.9013 39.5432 19.695 36.4791 19.695 33.1712C19.6953 28.116 15.5828 24.0034 10.5275 24.0034Z" fill="#E9B237" fill-opacity="0.91"/>
<path fill-rule="evenodd" clip-rule="evenodd" d="M10.5275 38.6707C7.49597 38.6707 5.0293 36.2035 5.0293 33.1718C5.0293 30.1401 7.49599 27.6729 10.5275 27.6729C13.5598 27.6729 16.0265 30.1395 16.0265 33.1718C16.0265 36.204 13.5597 38.6707 10.5275 38.6707ZM10.5275 29.0317C8.24537 29.0317 6.38813 30.8887 6.38813 33.1712C6.38813 35.4538 8.24497 37.3108 10.5275 37.3108C12.8101 37.3108 14.6671 35.4538 14.6671 33.1712C14.6671 30.8887 12.8101 29.0317 10.5275 29.0317Z" fill="#E9B237" fill-opacity="0.91"/>
<path fill-rule="evenodd" clip-rule="evenodd" d="M10.5275 55.2901C-2.78617 55.2901 -3.5567 47.8597 8.68909 47.1314C8.96618 47.1163 9.21879 47.2618 9.34042 47.5063L10.5272 49.8795L11.7142 47.5058C11.8364 47.2618 12.0928 47.1163 12.3656 47.1314C24.6297 47.8661 23.822 55.2901 10.5275 55.2901ZM8.32837 48.5211C3.78019 48.8893 1.36287 50.281 1.36287 51.1822C1.36287 52.3027 4.93312 53.9308 10.5278 53.9308C16.1226 53.9308 19.6928 52.3029 19.6928 51.1822C19.6928 50.2816 17.2751 48.8895 12.727 48.5211L11.1353 51.7038C10.8854 52.2032 10.1698 52.204 9.91935 51.7033L8.32837 48.5211Z" fill="#E9B237" fill-opacity="0.91"/>
<path fill-rule="evenodd" clip-rule="evenodd" d="M47.9338 18.7471C47.5587 18.7471 47.2542 18.4426 47.2542 18.0674V0.859504C47.2542 -0.0351993 48.6135 -0.0351993 48.6135 0.859504V18.0674C48.6141 18.4431 48.309 18.7471 47.9338 18.7471Z" fill="#E9B237" fill-opacity="0.91"/>
<path fill-rule="evenodd" clip-rule="evenodd" d="M47.9338 10.1434C47.5611 10.1434 47.2542 9.84059 47.2542 9.46369V0.859454C47.2542 0.367616 47.7703 0.036332 48.217 0.241445L57.6028 4.54331C58.1304 4.78521 58.1304 5.53715 57.6028 5.77893C56.5405 6.26541 48.309 10.1434 47.9338 10.1434ZM48.6141 1.91858V8.40401L55.6886 5.1613L48.6141 1.91858Z" fill="#E9B237" fill-opacity="0.91"/>
</g>
<defs>
<clipPath id="clip0_442_600">
<rect width="58" height="58" fill="white"/>
</clipPath>
</defs>
</svg>
