<svg width="22" height="22" viewBox="0 0 22 22" fill="none" xmlns="http://www.w3.org/2000/svg">
<path d="M21 9.00016V8.21716C21 6.27716 21 5.30816 20.414 4.70516C19.828 4.10316 18.886 4.10316 17 4.10316H14.921C14.004 4.10316 13.996 4.10116 13.171 3.68816L9.84 2.02116C8.449 1.32516 7.753 0.977162 7.012 1.00116C6.271 1.02516 5.6 1.41816 4.253 2.20416L3.026 2.92016C2.037 3.49716 1.543 3.78616 1.272 4.26616C1 4.74616 1 5.33016 1 6.49916V14.7162C1 16.2512 1 17.0192 1.342 17.4462C1.57 17.7312 1.889 17.9222 2.242 17.9862C2.772 18.0812 3.422 17.7022 4.72 16.9442C5.602 16.4292 6.45 15.8942 7.505 16.0392C8.389 16.1612 9.21 16.7192 10 17.1142M7 1.00016V16.0002M14 4.00016V8.50016" stroke="white" stroke-width="1.5" stroke-linecap="round" stroke-linejoin="round"/>
<path d="M16.4999 15.5002H16.5089M17.3079 20.6842C17.0885 20.8884 16.7996 21.0013 16.4999 21.0002C16.1979 21.0002 15.9089 20.8872 15.6919 20.6832C13.7059 18.8132 11.0459 16.7232 12.3429 13.6902C13.0449 12.0502 14.7299 11.0002 16.4999 11.0002C18.2699 11.0002 19.9559 12.0502 20.6569 13.6902C21.9529 16.7202 19.2989 18.8212 17.3079 20.6842Z" stroke="white" stroke-width="1.5" stroke-linecap="round" stroke-linejoin="round"/>
</svg>
