<svg width="54" height="55" viewBox="0 0 54 55" fill="none" xmlns="http://www.w3.org/2000/svg">
<path d="M26.88 1.82617C32.5931 1.83083 38.1289 3.88254 42.55 7.63379C46.9711 11.385 50.0056 16.6052 51.1395 22.4102C52.2734 28.2151 51.4371 34.248 48.7722 39.4869C46.1073 44.7259 41.7776 48.8489 36.5165 51.1575C30.4764 53.7387 23.6974 53.7417 17.6552 51.166C11.613 48.5902 6.79696 43.6442 4.25546 37.4048C1.71396 31.1654 1.65284 24.1378 4.0854 17.8519C6.51796 11.566 11.2472 6.53076 17.2436 3.84248C20.2924 2.50559 23.5698 1.81982 26.88 1.82617ZM26.88 0C12.2306 0 0.354004 12.3127 0.354004 27.5C0.354004 42.6873 12.2306 55 26.88 55C41.5295 55 53.4061 42.6873 53.4061 27.5C53.4061 12.3127 41.5295 0 26.88 0Z" fill="#E9B237" fill-opacity="0.91"/>
<path d="M42.8976 23.6845C42.8469 23.5221 42.7533 23.3778 42.6275 23.2679C42.5017 23.1579 42.3486 23.0868 42.1857 23.0625L32.1566 21.5511L27.672 12.1312C27.5991 11.9781 27.4863 11.8492 27.3464 11.759C27.2065 11.6689 27.0451 11.6211 26.8804 11.6211C26.7157 11.6211 26.5542 11.6689 26.4143 11.759C26.2744 11.8492 26.1617 11.9781 26.0888 12.1312L21.6042 21.5511L11.5751 23.0625C11.4121 23.0869 11.259 23.1581 11.1331 23.2681C11.0071 23.378 10.9134 23.5223 10.8625 23.6846C10.8116 23.847 10.8056 24.0208 10.8451 24.1865C10.8846 24.3522 10.968 24.5032 11.086 24.6223L18.3392 31.9559L16.6254 42.3093C16.5971 42.4777 16.615 42.651 16.6768 42.8095C16.7387 42.9679 16.8422 43.1053 16.9755 43.2059C17.1088 43.3065 17.2666 43.3664 17.4311 43.3788C17.5956 43.3912 17.7601 43.3556 17.9061 43.2761L26.8804 38.3851L35.8505 43.2739C35.9965 43.3535 36.161 43.3891 36.3255 43.3767C36.49 43.3643 36.6478 43.3044 36.7811 43.2037C36.9145 43.1031 37.0179 42.9658 37.0798 42.8073C37.1417 42.6488 37.1595 42.4756 37.1313 42.3071L35.4174 31.9538L42.6706 24.6201C42.7888 24.5015 42.8726 24.3511 42.9127 24.1858C42.9528 24.0205 42.9475 23.8469 42.8976 23.6845ZM33.8538 30.9806C33.7514 31.0842 33.6748 31.212 33.6306 31.3531C33.5864 31.4942 33.5759 31.6443 33.6 31.7905L35.089 40.7925L27.2949 36.5418C27.1682 36.4733 27.0274 36.4376 26.8845 36.4376C26.7417 36.4376 26.6009 36.4733 26.4742 36.5418L18.676 40.7925L20.1649 31.7905C20.189 31.6443 20.1785 31.4942 20.1343 31.3531C20.0901 31.212 20.0135 31.0842 19.9111 30.9806L13.6029 24.6061L22.3212 23.2934C22.4627 23.2719 22.597 23.215 22.7127 23.1279C22.8284 23.0407 22.922 22.9257 22.9854 22.7929L26.8804 14.603L30.7795 22.7929C30.843 22.9257 30.9365 23.0407 31.0522 23.1279C31.1679 23.215 31.3022 23.2719 31.4437 23.2934L40.1621 24.6061L33.8538 30.9806Z" fill="#E9B237" fill-opacity="0.91"/>
</svg>
