<svg width="30" height="30" viewBox="0 0 30 30" fill="none" xmlns="http://www.w3.org/2000/svg">
<g clip-path="url(#clip0_313_1414)">
<path d="M30 15C30 23.2819 23.2881 29.9963 15.0069 30H14.845C14.1179 29.9924 13.3923 29.9325 12.6738 29.8206C12.0854 29.7297 11.5031 29.6032 10.93 29.4419C7.7836 28.554 5.01326 26.6629 3.04032 24.056C1.06739 21.4492 -0.000176144 18.2693 2.17993e-08 15C2.17993e-08 6.71688 6.71375 5.98418e-06 15 5.98418e-06H15.0069C17.0476 -0.00181957 19.067 0.414057 20.9409 1.22203C22.8149 2.03001 24.5036 3.21298 25.9031 4.69813C28.5354 7.48216 30.0014 11.1686 30 15Z" fill="white"/>
<path d="M11.2143 10.5387V11.2137H9.03369L2.90869 6.12058C3.28729 5.60557 3.69855 5.1154 4.13994 4.65308L11.2143 10.5387Z" fill="#C8102E"/>
<path d="M27.1106 6.14809L21.0213 11.2106H18.7856V10.5843L25.8844 4.67871L25.9031 4.69809C26.3123 5.12943 26.6951 5.58505 27.0494 6.06246L27.1106 6.14809Z" fill="#C8102E"/>
<path d="M11.2142 18.7849V19.4599L4.1398 25.3468C4.0773 25.2843 4.0148 25.2168 3.95605 25.1512C3.58392 24.7468 3.23443 24.3222 2.90918 23.8793L9.03418 18.7849H11.2142Z" fill="#C8102E"/>
<path d="M27.1113 23.8512C26.7342 24.3666 26.3246 24.8573 25.885 25.3205L18.7856 19.4143V18.7849H21.0213L27.1113 23.8512Z" fill="#C8102E"/>
<path d="M5.99068 11.2138H0.481934C0.794888 10.0137 1.25681 8.85741 1.85693 7.77197L5.99068 11.2138Z" fill="#012169"/>
<path d="M5.86631 18.7852L1.81256 22.1564C1.23326 21.0911 0.786403 19.9589 0.481934 18.7852H5.86631Z" fill="#012169"/>
<path d="M11.2143 21.9551V29.5176C11.1193 29.4932 11.0268 29.4676 10.9299 29.4407C8.96447 28.8872 7.13326 27.9368 5.54932 26.6482L11.2143 21.9551Z" fill="#012169"/>
<path d="M11.2144 0.481934V7.92568L5.63379 3.28318C7.27604 1.96697 9.17774 1.01239 11.2144 0.481934Z" fill="#012169"/>
<path d="M24.4519 3.35329L18.7856 8.05017V0.482666L18.8713 0.504541C20.912 1.04892 22.814 2.01986 24.4519 3.35329Z" fill="#012169"/>
<path d="M29.5181 11.2139H24.1431L28.1874 7.84888C28.7662 8.91226 29.213 10.0423 29.5181 11.2139Z" fill="#012169"/>
<path d="M24.4998 26.6114C22.8285 27.9817 20.88 28.9734 18.7886 29.5182V21.8601L24.4998 26.6114Z" fill="#012169"/>
<path d="M29.5181 18.7852C29.2201 19.9306 28.7869 21.0365 28.2274 22.0795L24.2681 18.7852H29.5181Z" fill="#012169"/>
<path d="M30 14.8431V15.1425C29.9935 15.8419 29.9386 16.54 29.8356 17.2319H17.2319V29.835C16.5444 29.9376 15.8507 29.9927 15.1556 30H14.8431C14.1478 29.9928 13.4539 29.9375 12.7662 29.8344V17.2319H0.165C0.062439 16.5436 0.00730912 15.849 0 15.1531C0 15.055 0 14.9563 0 14.8575C0.00646581 14.1579 0.0613889 13.4595 0.164375 12.7675H12.7681V0.165C13.4226 0.0671525 14.0827 0.0120358 14.7444 0L15.2281 0C15.8595 0.00902751 16.4897 0.0578745 17.115 0.14625L17.2319 0.16375V12.7675H29.835C29.9376 13.4548 29.9927 14.1483 30 14.8431Z" fill="#C8102E"/>
</g>
<defs>
<clipPath id="clip0_313_1414">
<rect width="30" height="30" fill="white"/>
</clipPath>
</defs>
</svg>
