<svg width="60" height="60" viewBox="0 0 60 60" fill="none" xmlns="http://www.w3.org/2000/svg">
<path d="M58.125 15C58.125 14.25 57.75 13.6875 57.1875 13.3125L44.0625 5.8125C43.6875 5.625 43.5 5.625 43.125 5.625C42.75 5.625 42.5625 5.625 42.1875 5.8125L30 12.75L17.8125 5.8125C17.4375 5.625 17.25 5.625 16.875 5.625C16.5 5.625 16.3125 5.625 15.9375 5.8125L2.8125 13.3125C2.25 13.6875 1.875 14.25 1.875 15V52.5C1.875 53.625 2.625 54.375 3.75 54.375C4.125 54.375 4.3125 54.1875 4.6875 54.1875L16.875 47.25L29.0625 54.1875C29.4375 54.375 29.625 54.375 30 54.375C30.375 54.375 30.5625 54.375 30.9375 54.1875L43.125 47.25L55.3125 54.1875C55.5 54.375 55.875 54.375 56.25 54.375C57.375 54.375 58.125 53.625 58.125 52.5V15ZM5.625 16.125L15 10.6875V43.875L5.625 49.3125V16.125ZM28.125 49.3125L18.75 43.875V10.6875L28.125 16.125V49.3125ZM41.25 43.875L31.875 49.3125V16.125L41.25 10.6875V43.875ZM45 43.875V10.6875L54.375 16.125V49.3125L45 43.875Z" fill="#51AB7E"/>
</svg>
