<svg width="60" height="60" viewBox="0 0 60 60" fill="none" xmlns="http://www.w3.org/2000/svg">
<g clip-path="url(#clip0_557_8147)">
<mask id="mask0_557_8147" style="mask-type:luminance" maskUnits="userSpaceOnUse" x="0" y="0" width="60" height="60">
<path d="M0 0H60V60H0V0Z" fill="white"/>
</mask>
<g mask="url(#mask0_557_8147)">
<path d="M30 0C30.663 0 31.2989 0.263392 31.7678 0.732233C32.2366 1.20107 32.5 1.83696 32.5 2.5V7.5C32.5 8.16304 32.2366 8.79893 31.7678 9.26777C31.2989 9.73661 30.663 10 30 10C29.337 10 28.7011 9.73661 28.2322 9.26777C27.7634 8.79893 27.5 8.16304 27.5 7.5V2.5C27.5 1.83696 27.7634 1.20107 28.2322 0.732233C28.7011 0.263392 29.337 0 30 0ZM0 30C0 29.337 0.263392 28.7011 0.732233 28.2322C1.20107 27.7634 1.83696 27.5 2.5 27.5H7.5C8.16304 27.5 8.79893 27.7634 9.26777 28.2322C9.73661 28.7011 10 29.337 10 30C10 30.663 9.73661 31.2989 9.26777 31.7678C8.79893 32.2366 8.16304 32.5 7.5 32.5H2.5C1.83696 32.5 1.20107 32.2366 0.732233 31.7678C0.263392 31.2989 0 30.663 0 30ZM52.5 27.5C51.837 27.5 51.2011 27.7634 50.7322 28.2322C50.2634 28.7011 50 29.337 50 30C50 30.663 50.2634 31.2989 50.7322 31.7678C51.2011 32.2366 51.837 32.5 52.5 32.5H57.5C58.163 32.5 58.7989 32.2366 59.2678 31.7678C59.7366 31.2989 60 30.663 60 30C60 29.337 59.7366 28.7011 59.2678 28.2322C58.7989 27.7634 58.163 27.5 57.5 27.5H52.5ZM32.5 52.5C32.5 51.837 32.2366 51.2011 31.7678 50.7322C31.2989 50.2634 30.663 50 30 50C29.337 50 28.7011 50.2634 28.2322 50.7322C27.7634 51.2011 27.5 51.837 27.5 52.5V57.5C27.5 58.163 27.7634 58.7989 28.2322 59.2678C28.7011 59.7366 29.337 60 30 60C30.663 60 31.2989 59.7366 31.7678 59.2678C32.2366 58.7989 32.5 58.163 32.5 57.5V52.5ZM15.8575 44.1425C16.3262 44.6113 16.5895 45.2471 16.5895 45.91C16.5895 46.5729 16.3262 47.2087 15.8575 47.6775L12.325 51.2125C12.0944 51.4513 11.8185 51.6417 11.5135 51.7728C11.2085 51.9038 10.8805 51.9727 10.5485 51.9756C10.2166 51.9785 9.88736 51.9153 9.58012 51.7896C9.27287 51.6639 8.99374 51.4782 8.75901 51.2435C8.52428 51.0088 8.33865 50.7296 8.21295 50.4224C8.08724 50.1151 8.02399 49.7859 8.02687 49.454C8.02976 49.122 8.09872 48.794 8.22975 48.489C8.36077 48.184 8.55122 47.9081 8.79 47.6775L12.325 44.1425C12.7938 43.6738 13.4296 43.4105 14.0925 43.4105C14.7554 43.4105 15.3887 43.6738 15.8575 44.1425ZM51.2125 8.7875C51.6812 9.25632 51.9445 9.89209 51.9445 10.555C51.9445 11.2179 51.6812 11.8537 51.2125 12.3225L47.6775 15.8575C47.4469 16.0963 47.171 16.2867 46.866 16.4178C46.561 16.5488 46.233 16.6177 45.901 16.6206C45.5691 16.6235 45.2399 16.5603 44.9326 16.4346C44.6254 16.3089 44.3462 16.1232 44.1115 15.8885C43.8768 15.6538 43.6911 15.3746 43.5654 15.0674C43.4397 14.7601 43.3765 14.4309 43.3794 14.099C43.3823 13.767 43.4512 13.439 43.5822 13.134C43.7133 12.829 43.9037 12.5531 44.1425 12.3225L47.6775 8.7875C48.1463 8.31882 48.7821 8.05553 49.445 8.05553C50.1079 8.05553 50.7437 8.31882 51.2125 8.7875ZM8.7875 8.7875C9.25632 8.31882 9.89209 8.05553 10.555 8.05553C11.2179 8.05553 11.8537 8.31882 12.3225 8.7875L15.8575 12.3225C16.1019 12.5516 16.2977 12.8276 16.4333 13.1339C16.5689 13.4402 16.6416 13.7706 16.6471 14.1055C16.6525 14.4405 16.5906 14.7731 16.465 15.0836C16.3393 15.3942 16.1526 15.6763 15.9158 15.9133C15.679 16.1502 15.397 16.3372 15.0866 16.463C14.7761 16.5889 14.4435 16.651 14.1086 16.6458C13.7736 16.6406 13.4432 16.5682 13.1368 16.4327C12.8304 16.2973 12.5543 16.1017 12.325 15.8575L8.7875 12.325C8.31882 11.8562 8.05553 11.2204 8.05553 10.5575C8.05553 9.89459 8.31882 9.25632 8.7875 8.7875ZM44.1425 44.1425C44.6113 43.6738 45.2471 43.4105 45.91 43.4105C46.5729 43.4105 47.2087 43.6738 47.6775 44.1425L51.2125 47.6775C51.4513 47.9081 51.6417 48.184 51.7728 48.489C51.9038 48.794 51.9727 49.122 51.9756 49.454C51.9785 49.7859 51.9153 50.1151 51.7896 50.4224C51.6639 50.7296 51.4782 51.0088 51.2435 51.2435C51.0088 51.4782 50.7296 51.6639 50.4224 51.7896C50.1151 51.9153 49.7859 51.9785 49.454 51.9756C49.122 51.9727 48.794 51.9038 48.489 51.7728C48.184 51.6417 47.9081 51.4513 47.6775 51.2125L44.1425 47.6775C43.6738 47.2087 43.4105 46.5729 43.4105 45.91C43.4105 45.2471 43.6738 44.6113 44.1425 44.1425ZM12.5 30C12.5 27.7019 12.9527 25.4262 13.8321 23.303C14.7116 21.1798 16.0006 19.2507 17.6256 17.6256C19.2507 16.0006 21.1798 14.7116 23.303 13.8321C25.4262 12.9527 27.7019 12.5 30 12.5C32.2981 12.5 34.5738 12.9527 36.697 13.8321C38.8202 14.7116 40.7493 16.0006 42.3744 17.6256C43.9994 19.2507 45.2884 21.1798 46.1679 23.303C47.0474 25.4262 47.5 27.7019 47.5 30C47.5 34.6413 45.6563 39.0925 42.3744 42.3744C39.0925 45.6563 34.6413 47.5 30 47.5C25.3587 47.5 20.9075 45.6563 17.6256 42.3744C14.3437 39.0925 12.5 34.6413 12.5 30Z" fill="#51AB7E"/>
</g>
</g>
<defs>
<clipPath id="clip0_557_8147">
<rect width="60" height="60" fill="white"/>
</clipPath>
</defs>
</svg>
