<svg width="30" height="30" viewBox="0 0 30 30" fill="none" xmlns="http://www.w3.org/2000/svg">
<path d="M15.0001 0C23.2846 0 30 6.71522 30 14.999C30 23.2834 23.2846 30 15.0001 30C6.71603 30 0 23.2835 0 14.999C0.000107996 6.71532 6.71614 0 15.0001 0Z" fill="#D6D4D1"/>
<mask id="mask0_1634_725" style="mask-type:luminance" maskUnits="userSpaceOnUse" x="0" y="0" width="30" height="30">
<path d="M15.0004 0.366699C23.082 0.366699 29.6336 6.91809 29.6336 14.999C29.6336 23.0804 23.0821 29.6319 15.0004 29.6319C6.91863 29.6319 0.367188 23.0804 0.367188 14.999C0.367188 6.91809 6.91874 0.366699 15.0004 0.366699Z" fill="white"/>
</mask>
<g mask="url(#mask0_1634_725)">
<path d="M-6.94922 0.366699H10.6113V29.6344H-6.94922V0.366699Z" fill="#076629"/>
<path d="M10.6084 0.366699H36.9489V29.6344H10.6084V0.366699Z" fill="#E32121"/>
<path d="M4.49648 12.0526C4.53623 12.115 4.57651 12.1779 4.61744 12.2384C5.4165 12.5031 6.93276 12.8749 9.31806 12.9638C9.81657 12.9834 10.2136 12.9858 10.4385 12.9834H10.5892H10.6396H10.7908C11.0151 12.9858 11.4127 12.9834 11.9106 12.9638C14.2959 12.8762 15.8121 12.5044 16.6125 12.2384C16.6529 12.1779 16.6945 12.1149 16.7323 12.0526C16.8243 11.9057 16.9112 11.7545 16.9931 11.5994C16.9541 11.5251 16.9138 11.4527 16.8708 11.3789C16.063 11.6782 14.0936 12.2359 10.6395 12.2138V12.2125C10.6319 12.2138 10.5973 12.2138 10.5891 12.2125V12.2138C7.13547 12.2359 5.16617 11.6782 4.3576 11.3789C4.31538 11.4527 4.27509 11.5251 4.23535 11.5994C4.31689 11.7532 4.40447 11.9057 4.49648 12.0526C4.49767 12.0526 4.49767 12.0526 4.49648 12.0526Z" fill="#F5E600"/>
<path d="M10.9314 13.0004C10.8785 13.0004 10.8305 13.0004 10.7896 13.0004H10.7701H10.6988L10.6213 12.9985H10.6137H10.5986L10.5286 13.0004H10.4574H10.4386C10.3971 13.0004 10.3491 13.0004 10.2962 13.0004C10.0794 13.0004 9.73342 12.996 9.31688 12.9809C6.97694 12.8933 5.46705 12.5366 4.61119 12.2542L4.60611 12.2517L4.60363 12.2466C4.56572 12.1905 4.52609 12.13 4.48202 12.0607L4.45492 12.0166C4.37489 11.8874 4.29606 11.7493 4.21862 11.6076L4.21484 11.5981L4.21862 11.5906C4.2602 11.513 4.29984 11.4399 4.34152 11.3688L4.34908 11.3555L4.36355 11.3612C5.20236 11.6718 7.10114 12.1949 10.3883 12.1949C10.4488 12.1949 10.5094 12.1949 10.5705 12.1936H10.5882H10.614H10.6581C10.7187 12.1949 10.7791 12.1949 10.839 12.1949C14.1273 12.1949 16.0255 11.6718 16.8637 11.3612L16.8788 11.3555L16.8864 11.3688C16.9267 11.4381 16.9684 11.5118 17.01 11.5906L17.015 11.5981L17.01 11.6076C16.9318 11.7506 16.8537 11.8887 16.773 12.0179L16.7453 12.0607C16.7025 12.13 16.662 12.1905 16.6243 12.2466L16.6218 12.2517L16.6154 12.2542C15.7622 12.5365 14.2497 12.892 11.9099 12.9809C11.4942 12.9961 11.1483 13.0004 10.9314 13.0004ZM10.7702 12.9639H10.7897H10.9315C11.1483 12.9639 11.4943 12.9614 11.9096 12.9444C14.2407 12.858 15.7456 12.5045 16.5989 12.2221C16.6292 12.1768 16.6606 12.1288 16.6947 12.0746L16.7149 12.0437C16.8031 11.9057 16.8888 11.7557 16.972 11.5994C16.9355 11.5314 16.8989 11.4652 16.8624 11.4022C16.0142 11.7148 14.1142 12.2335 10.839 12.2335C10.7728 12.2335 10.7072 12.2335 10.6398 12.2335H10.6216H10.614H10.5989H10.5882C10.5214 12.2335 10.454 12.2335 10.3884 12.2335C7.11258 12.2335 5.21262 11.7161 4.36496 11.4022C4.32846 11.4652 4.2912 11.5327 4.25523 11.5994C4.33785 11.7557 4.42414 11.9044 4.51172 12.0437L4.53883 12.0853C4.56972 12.1351 4.60125 12.1804 4.62836 12.2221C5.48098 12.5044 6.9859 12.8567 9.31699 12.9444C9.73234 12.9613 10.0783 12.9639 10.2951 12.9639H10.4376H10.7702Z" fill="#101211"/>
<path d="M10.5875 12.8373H10.6379C13.9074 12.858 15.8471 12.3603 16.7294 12.0527C16.6915 12.1152 16.65 12.1781 16.6096 12.2386C15.6758 12.5473 13.7662 13.0031 10.638 12.9822C10.6305 12.9822 10.5951 12.9822 10.5876 12.9822C7.45928 13.0031 5.54916 12.5474 4.61705 12.2386C4.57612 12.1781 4.53584 12.115 4.49609 12.0527C5.3782 12.3603 7.31856 12.858 10.5875 12.8373Z" fill="#F5E600"/>
<path d="M10.8378 13.0005C10.7716 13.0005 10.7049 13.0005 10.6375 12.9985H10.6192H10.6117H10.5979H10.5872C7.40087 13.0207 5.46861 12.5391 4.61037 12.2555L4.6053 12.2531L4.60281 12.2481C4.5649 12.1919 4.52527 12.1315 4.48121 12.0621L4.4541 12.0181L4.50324 12.0363C5.34334 12.3294 7.22505 12.8196 10.39 12.8196H10.5722V12.8183H10.5898H10.6156H10.6597V12.8196H10.8419C14.0049 12.8196 15.8873 12.3275 16.7292 12.0363L16.7771 12.0181L16.7506 12.0621C16.7078 12.1302 16.6686 12.1906 16.6283 12.2481L16.6259 12.2531L16.6208 12.2555C15.7736 12.533 13.907 13.0005 10.8378 13.0005ZM10.657 12.964C13.82 12.9835 15.7408 12.5072 16.5992 12.2236C16.6282 12.1807 16.6572 12.1365 16.6886 12.088C15.8039 12.3887 13.8667 12.8764 10.6388 12.8568H10.6205H10.613H10.5979H10.5872C10.5203 12.8568 10.4542 12.8568 10.3887 12.8568C7.27927 12.8568 5.40565 12.383 4.53909 12.088C4.57128 12.1378 4.60152 12.182 4.62862 12.2236C5.48632 12.5072 7.40465 12.9822 10.5708 12.964H10.5885H10.6143H10.657Z" fill="#101211"/>
<path d="M10.5877 12.3592H10.6381C14.1912 12.3819 16.1749 11.7927 16.9363 11.4997C16.9136 11.4593 16.8934 11.4184 16.8682 11.3794C16.0604 11.6786 14.091 12.2364 10.6368 12.2143V12.213C10.6293 12.2143 10.594 12.2143 10.5864 12.213V12.2143C7.1328 12.2364 5.16285 11.6786 4.35494 11.3794C4.33226 11.4184 4.31012 11.4594 4.28809 11.4997C5.05194 11.7927 7.03463 12.3819 10.5877 12.3592Z" fill="#F5E600"/>
<path d="M10.8384 12.3779C10.7722 12.3779 10.7055 12.3779 10.6381 12.3766H10.6199H10.6123H10.5985H10.5878C10.5209 12.3779 10.4536 12.3779 10.388 12.3779C6.90298 12.3779 4.95819 11.7754 4.28322 11.5158L4.26367 11.5082L4.27372 11.49C4.29575 11.4502 4.31789 11.41 4.34121 11.3702L4.34877 11.3569L4.36324 11.3627C5.20205 11.6732 7.10083 12.1964 10.388 12.1964C10.4485 12.1964 10.5091 12.1964 10.5702 12.1951H10.5879H10.6137H10.6578C10.7184 12.1964 10.7788 12.1964 10.8387 12.1964C14.127 12.1964 16.0252 11.6732 16.8634 11.3627L16.8785 11.3569L16.8861 11.3702C16.9088 11.41 16.9315 11.4502 16.9541 11.49L16.9643 11.5082L16.944 11.5158C16.2683 11.7754 14.3228 12.3779 10.8384 12.3779ZM10.6577 12.3419C14.2183 12.3628 16.2104 11.7572 16.9111 11.49C16.8959 11.4616 16.8796 11.432 16.8633 11.4037C16.015 11.7162 14.115 12.2349 10.8399 12.2349C10.7736 12.2349 10.7081 12.2349 10.6407 12.2349H10.6225H10.6149H10.5985H10.5878C10.5209 12.2349 10.4536 12.2349 10.388 12.2349C7.11217 12.2349 5.2122 11.7175 4.36454 11.4037C4.34748 11.432 4.33236 11.4617 4.3154 11.49C5.00614 11.7521 6.94207 12.3419 10.388 12.3419H10.5702H10.5879H10.6137H10.6577Z" fill="#101211"/>
<path d="M10.1219 16.6044C14.7009 19.231 15.9885 19.4503 16.3249 19.4288C16.4307 19.294 16.5329 19.1503 16.6287 19.008C16.7749 18.7697 16.911 18.5241 17.0307 18.2706C16.5971 18.2543 15.1993 17.9127 10.9014 15.4449C5.79055 12.5133 4.91892 11.0487 4.78598 10.7544C4.67766 10.8937 4.57485 11.038 4.47528 11.1854C4.31523 11.4425 4.17094 11.7097 4.04297 11.9883C4.26987 12.4061 5.34118 13.8637 10.1219 16.6044Z" fill="#F5E600"/>
<path d="M16.2807 19.448C15.9077 19.448 14.5604 19.1731 10.1112 16.6197C5.29195 13.857 4.2364 12.3817 4.02722 11.996L4.02344 11.9872L4.02722 11.9796C4.1539 11.7029 4.29947 11.4332 4.46082 11.1742C4.56039 11.0268 4.66504 10.8812 4.77347 10.7419L4.79301 10.7173L4.80435 10.7444C4.92218 11.0084 5.77232 12.4812 10.9103 15.4248C15.2826 17.933 16.6476 18.2354 17.0321 18.2493H17.0598L17.0485 18.2757C16.9288 18.5291 16.7926 18.7774 16.6439 19.0157C16.5494 19.1593 16.4474 19.3042 16.3414 19.4391L16.3363 19.4442H16.3275C16.3111 19.448 16.2984 19.448 16.2807 19.448ZM4.06383 11.9859C4.28187 12.3817 5.35319 13.8481 10.1307 16.5894C14.5718 19.1379 15.9115 19.4127 16.282 19.4127C16.2947 19.4127 16.306 19.4127 16.316 19.4102C16.4194 19.2766 16.5177 19.1379 16.6122 18.9968C16.7546 18.7674 16.8857 18.5292 17.0016 18.286C16.495 18.2569 15.0354 17.8348 10.8925 15.4615C5.89759 12.5972 4.94464 11.1176 4.7834 10.788C4.68318 10.921 4.58491 11.0564 4.49225 11.1945C4.3322 11.449 4.18727 11.7149 4.06383 11.9859Z" fill="#101211"/>
<path d="M10.1216 16.6044C14.7006 19.231 15.9882 19.4503 16.3246 19.4288C16.3473 19.4024 16.3662 19.3722 16.3901 19.347C15.9276 19.3192 14.4864 18.941 10.213 16.4897C5.57219 13.8271 4.38737 12.3625 4.09686 11.8735C4.07861 11.9107 4.0622 11.9491 4.04395 11.9882C4.26955 12.4062 5.34086 13.8637 10.1216 16.6044Z" fill="#F5E600"/>
<path d="M16.2807 19.4478C15.9077 19.4478 14.5604 19.1729 10.1112 16.6195C5.29195 13.8567 4.2364 12.3815 4.02722 11.9958L4.02344 11.987L4.02722 11.9794C4.04547 11.9403 4.06253 11.9019 4.08014 11.8641L4.09461 11.8345L4.11232 11.8629C4.41222 12.3689 5.60838 13.8259 10.2214 16.4733C14.435 18.8881 15.8951 19.2966 16.3892 19.3268H16.422L16.4018 19.3546C16.3803 19.381 16.3589 19.4126 16.3374 19.439L16.3323 19.4441H16.3235C16.3111 19.4478 16.2984 19.4478 16.2807 19.4478ZM4.06383 11.9857C4.28187 12.3815 5.35319 13.8479 10.1307 16.5892C14.5718 19.1377 15.9115 19.4124 16.282 19.4124C16.2947 19.4124 16.306 19.4124 16.316 19.41C16.3299 19.3948 16.3425 19.3784 16.3538 19.3595C15.8246 19.3142 14.3316 18.873 10.2032 16.5035C5.66756 13.9021 4.42734 12.4439 4.09839 11.912C4.08651 11.9352 4.07506 11.9611 4.06383 11.9857Z" fill="#101211"/>
<path d="M4.78596 10.7534C4.75129 10.7988 4.71544 10.8448 4.68066 10.8914C4.91015 11.3175 5.9953 12.7915 10.8277 15.5637C14.968 17.9382 16.4471 18.3668 16.9588 18.4147C16.9828 18.3668 17.0066 18.3189 17.0293 18.2684C16.5957 18.2532 15.1979 17.9104 10.9 15.4451C5.78924 12.5123 4.91771 11.049 4.78596 10.7534Z" fill="#F5E600"/>
<path d="M16.9685 18.4346L16.956 18.4321C16.4366 18.3842 14.9457 17.9456 10.8185 15.5786C5.94519 12.7818 4.87635 11.2914 4.66328 10.9001L4.6582 10.8901L4.66447 10.8812C4.69913 10.8334 4.73445 10.788 4.7703 10.7419L4.78985 10.7173L4.80119 10.7444C4.91836 11.0084 5.76915 12.4812 10.9073 15.4248C15.2795 17.933 16.6445 18.2354 17.029 18.2493H17.0568L17.0454 18.2757C17.0214 18.3261 16.9988 18.3727 16.9736 18.4207L16.9685 18.4346ZM4.70183 10.8936C4.92549 11.2976 6.01333 12.7791 10.838 15.5482C14.9268 17.8913 16.419 18.3413 16.9484 18.3968C16.9674 18.3589 16.9837 18.3198 17.0013 18.2859C16.4947 18.2556 15.0352 17.8335 10.8923 15.4601C5.89734 12.5959 4.94439 11.1156 4.78315 10.7866C4.75475 10.8225 4.72764 10.8578 4.70183 10.8936Z" fill="#101211"/>
<path d="M10.6133 19.2636C7.50326 19.2535 5.63159 18.878 4.53684 18.5049C4.49342 18.5704 4.45173 18.6385 4.41016 18.7066C4.5539 18.9485 4.71146 19.1767 4.88156 19.3997C7.27064 20.0628 10.6132 20.0628 10.6132 20.0628C10.6132 20.0628 13.9576 20.0628 16.3461 19.3997C16.5148 19.1767 16.6737 18.9473 16.8173 18.7066C16.7758 18.6372 16.7341 18.5704 16.6888 18.5049C15.595 18.878 13.724 19.2536 10.6133 19.2636Z" fill="#F5E600"/>
<path d="M10.6133 20.0804C10.5798 20.0804 7.23986 20.0729 4.8766 19.4175L4.87022 19.415L4.8658 19.4099C4.6956 19.1881 4.53684 18.9549 4.39375 18.7167L4.38867 18.7067L4.39375 18.6978C4.44159 18.6158 4.48133 18.5554 4.52043 18.4949L4.52799 18.481L4.54062 18.4873C5.53699 18.8276 7.39991 19.2347 10.612 19.246C13.8248 19.2347 15.687 18.8276 16.6839 18.4873L16.6965 18.481L16.7054 18.4949C16.7443 18.5554 16.7847 18.6184 16.8327 18.6978L16.8377 18.7067L16.8327 18.7167C16.6889 18.9562 16.5301 19.1881 16.3613 19.4099L16.3562 19.415L16.3512 19.4175C13.9874 20.0728 10.6467 20.0804 10.6133 20.0804ZM4.89172 19.3846C7.24991 20.035 10.5798 20.045 10.6133 20.045C10.6467 20.045 13.9767 20.035 16.3348 19.3846C16.5012 19.1679 16.6563 18.9384 16.7949 18.7067C16.7546 18.6385 16.7167 18.5805 16.6815 18.525C15.6807 18.8653 13.8153 19.2737 10.612 19.2813C7.40996 19.2737 5.5452 18.8653 4.54192 18.525C4.50725 18.5805 4.4714 18.6385 4.42971 18.7067C4.57032 18.941 4.7254 19.168 4.89172 19.3846Z" fill="#101211"/>
<path d="M10.6133 19.4071C7.43198 19.3996 5.54649 19.0064 4.46189 18.6245C4.44428 18.651 4.42852 18.6799 4.41016 18.7089C4.5148 18.8828 4.62636 19.053 4.74483 19.2169C7.13899 19.9175 10.6133 19.9175 10.6133 19.9175C10.6133 19.9175 14.0863 19.9175 16.4822 19.2169C16.6008 19.0529 16.7116 18.8828 16.8163 18.7089C16.8 18.6798 16.7824 18.651 16.7645 18.6245C15.6808 19.0064 13.7952 19.3996 10.6133 19.4071Z" fill="#F5E600"/>
<path d="M10.6129 19.9369C10.5782 19.9369 7.10898 19.9268 4.73945 19.2336L4.73253 19.2311L4.72875 19.226C4.61158 19.0622 4.49937 18.8908 4.39472 18.7168L4.38965 18.7093L4.41546 18.6665C4.4255 18.6489 4.43565 18.6312 4.44635 18.6136L4.45391 18.6011L4.46838 18.606C5.46593 18.9578 7.34268 19.3799 10.6141 19.3888C13.886 19.3786 15.7633 18.9578 16.7604 18.606L16.773 18.6011L16.7818 18.6136C16.7919 18.6312 16.802 18.6489 16.8134 18.6665L16.8397 18.7093L16.8334 18.7168C16.7288 18.8907 16.6166 19.0622 16.4982 19.226L16.4944 19.2311L16.4881 19.2336C14.1175 19.9268 10.6476 19.9369 10.6129 19.9369ZM4.75457 19.2008C7.11913 19.8915 10.5782 19.899 10.6129 19.899C10.6476 19.899 14.1068 19.8915 16.4718 19.2008C16.5852 19.0419 16.6936 18.8756 16.7944 18.7092L16.7818 18.6827C16.7717 18.6689 16.7641 18.6564 16.7567 18.6424C15.7534 18.9941 13.8741 19.4176 10.6129 19.4227C7.35164 19.4151 5.4736 18.9941 4.46967 18.6424C4.46147 18.6564 4.45391 18.6689 4.44635 18.6827L4.43187 18.7092C4.53145 18.8757 4.63987 19.042 4.75457 19.2008Z" fill="#101211"/>
<path d="M10.613 16.8161C10.613 16.8161 15.7182 16.8161 17.818 15.5684C17.8293 15.4398 17.8357 15.3087 17.8395 15.1776C17.837 15.0289 17.8306 14.8827 17.818 14.7358C17.1777 15.1576 15.3035 16.0045 10.613 16.0171C5.92559 16.0045 4.05003 15.1576 3.40724 14.7358C3.3959 14.8827 3.39094 15.0289 3.3877 15.1776C3.39083 15.3087 3.39839 15.4398 3.40843 15.5684C5.50841 16.8161 10.613 16.8161 10.613 16.8161Z" fill="#F5E600"/>
<path d="M10.6131 16.8364C10.5613 16.8364 5.47873 16.8212 3.39982 15.5835L3.39226 15.5772L3.39096 15.5671C3.38016 15.4373 3.3739 15.3075 3.37012 15.1751C3.3726 15.0112 3.37897 14.8675 3.38902 14.7345L3.39096 14.7036L3.41677 14.7207C3.99714 15.102 5.85942 15.9868 10.6118 15.9994C15.364 15.9868 17.2256 15.102 17.8079 14.7207L17.8344 14.7036L17.8369 14.7345C17.8469 14.8687 17.8532 15.0112 17.8558 15.1751C17.8533 15.3075 17.8456 15.4373 17.8356 15.5671V15.5772L17.8254 15.5835C15.746 16.8212 10.6635 16.8364 10.6131 16.8364ZM3.42563 15.5584C5.50217 16.7834 10.5614 16.7986 10.6131 16.7986C10.6647 16.7986 15.7233 16.7833 17.8004 15.5584C17.8105 15.4299 17.818 15.3038 17.8206 15.1778C17.8181 15.0291 17.813 14.8929 17.803 14.7682C17.1917 15.1602 15.3074 16.0248 10.6131 16.0373C5.91935 16.0248 4.03505 15.1602 3.42304 14.7682C3.41364 14.8929 3.40856 15.0291 3.40597 15.1778C3.40986 15.3037 3.41688 15.4298 3.42563 15.5584Z" fill="#101211"/>
<path d="M10.6137 16.1633C5.92626 16.1508 4.0507 15.3013 3.40791 14.8828C3.39905 15.0013 3.39409 15.1223 3.3916 15.2433C3.3929 15.3013 3.39538 15.3593 3.39916 15.4173C5.49395 16.6726 10.6137 16.6726 10.6137 16.6726C10.6137 16.6726 15.7341 16.6726 17.8288 15.4173C17.8313 15.3593 17.8339 15.3013 17.8363 15.2433C17.8339 15.1223 17.8288 15.0013 17.8186 14.8828C17.1758 15.3013 15.303 16.1508 10.6137 16.1633Z" fill="#F5E600"/>
<path d="M10.6135 16.6902C10.5618 16.6902 5.46406 16.6751 3.39011 15.4324L3.3819 15.4273L3.38061 15.4186C3.37812 15.358 3.37564 15.3 3.37305 15.242C3.37683 15.0997 3.3819 14.9849 3.39011 14.879L3.39141 14.8481L3.41722 14.8652C3.99759 15.2446 5.85986 16.1333 10.6122 16.1458C15.3645 16.1333 17.2261 15.2459 17.8084 14.8652L17.8349 14.8481L17.8373 14.879C17.8448 14.9849 17.8499 15.0997 17.8536 15.2395C17.8512 15.3001 17.8486 15.3581 17.8461 15.4198V15.4273L17.8373 15.4324C15.764 16.6752 10.6639 16.6902 10.6135 16.6902ZM3.41733 15.4071C5.48879 16.6397 10.5632 16.6549 10.6136 16.6549C10.664 16.6549 15.7389 16.6397 17.8111 15.4071C17.8135 15.3516 17.8161 15.2962 17.8185 15.2407C17.8161 15.1147 17.8111 15.0087 17.8034 14.9129C17.1922 15.3038 15.3079 16.1684 10.6135 16.181C5.9198 16.1671 4.03549 15.3025 3.42348 14.9129C3.41722 15.0087 3.41149 15.1147 3.40901 15.2432C3.41031 15.2962 3.4129 15.3517 3.41733 15.4071Z" fill="#101211"/>
<path d="M10.6132 7.77197C6.62281 7.77197 3.38672 11.0073 3.38672 14.999C3.38672 18.9918 6.62281 22.2259 10.6132 22.2259C14.6043 22.2259 17.841 18.9918 17.841 14.999C17.8411 11.0073 14.6043 7.77197 10.6132 7.77197ZM10.6132 21.5025C7.02174 21.5025 4.10835 18.591 4.10835 14.999C4.10835 11.4076 7.02045 8.49477 10.6132 8.49477C14.2066 8.49477 17.1175 11.4074 17.1175 14.999C17.1175 18.591 14.2054 21.5025 10.6132 21.5025Z" fill="#F5E600"/>
<path d="M10.6133 22.2434C6.61905 22.2434 3.36914 18.9941 3.36914 14.9988C3.36914 11.0059 6.61905 7.75488 10.6133 7.75488C14.608 7.75488 17.8586 11.0059 17.8586 14.9988C17.8587 18.9941 14.6081 22.2434 10.6133 22.2434ZM10.6133 7.79138C6.63795 7.79138 3.405 11.0243 3.405 14.9988C3.405 18.9741 6.63914 22.2081 10.6133 22.2081C14.5873 22.2081 17.8208 18.9741 17.8208 14.9988C17.8208 11.0242 14.5886 7.79138 10.6133 7.79138ZM10.6133 21.5225C7.01605 21.5225 4.09196 18.5959 4.09196 14.9987C4.09196 11.4022 7.01734 8.47627 10.6133 8.47627C14.2092 8.47627 17.1351 11.4035 17.1351 14.9987C17.1351 18.596 14.2105 21.5225 10.6133 21.5225ZM10.6133 8.51418C7.03689 8.51418 4.12781 11.4244 4.12781 14.9988C4.12781 18.5759 7.03689 21.4847 10.6133 21.4847C14.1897 21.4847 17.0998 18.5758 17.0998 14.9988C17.0998 11.4244 14.1897 8.51418 10.6133 8.51418Z" fill="#101211"/>
<path d="M10.6128 7.91748C6.70114 7.91748 3.53125 11.0886 3.53125 14.9989C3.53125 18.9112 6.70243 22.0822 10.6128 22.0822C14.5238 22.0822 17.6943 18.9112 17.6943 14.9989C17.6943 11.0886 14.5251 7.91748 10.6128 7.91748ZM10.6128 21.6486C6.94121 21.6486 3.96485 18.6716 3.96485 14.9988C3.96485 11.3285 6.94132 8.35161 10.6128 8.35161C14.285 8.35161 17.2607 11.3285 17.2607 14.9988C17.2607 18.6716 14.285 21.6486 10.6128 21.6486Z" fill="#F5E600"/>
<path d="M10.6135 22.0997C6.69803 22.0997 3.51367 18.9135 3.51367 14.9987C3.51367 11.0833 6.69933 7.90088 10.6135 7.90088C14.5284 7.90088 17.7126 11.0845 17.7126 14.9987C17.7126 18.9135 14.5284 22.0997 10.6135 22.0997ZM10.6135 7.93436C6.71823 7.93436 3.54963 11.1029 3.54963 14.9987C3.54963 18.8933 6.71823 22.0644 10.6135 22.0644C14.5087 22.0644 17.6774 18.8933 17.6774 14.9987C17.6774 11.1042 14.5088 7.93436 10.6135 7.93436ZM10.6135 21.666C6.93757 21.666 3.94598 18.6777 3.94598 14.9986C3.94598 11.3234 6.93627 8.33307 10.6135 8.33307C14.2907 8.33307 17.2816 11.3221 17.2816 14.9986C17.2791 18.6765 14.2895 21.666 10.6135 21.666ZM10.6135 8.36784C6.95711 8.36784 3.98378 11.3429 3.98378 14.9986C3.98378 18.6563 6.9583 21.6308 10.6135 21.6308C14.2686 21.6308 17.2438 18.6563 17.2438 14.9986C17.2438 11.3429 14.2687 8.36784 10.6135 8.36784Z" fill="#101211"/>
<path d="M10.252 7.77197H10.9748V22.2259H10.252V7.77197Z" fill="#F5E600"/>
<path d="M10.9925 22.2434H10.2324V7.75488H10.9925V22.2434ZM10.2697 22.2081H10.9566V7.79257H10.2697V22.2081Z" fill="#101211"/>
<path d="M10.252 7.70068H10.3962V22.299H10.252V7.70068Z" fill="#F5E600"/>
<path d="M10.4146 22.3164H10.2324V7.68408H10.4146V22.3164ZM10.2697 22.2811H10.3781V7.71745H10.2697V22.2811Z" fill="#101211"/>
<path d="M10.8301 7.70068H10.975V22.299H10.8301V7.70068Z" fill="#F5E600"/>
<path d="M10.9927 22.3164H10.8105V7.68408H10.9927V22.3164ZM10.8485 22.2811H10.9569V7.71745H10.8485V22.2811Z" fill="#101211"/>
<path d="M3.39244 14.7355C3.38996 14.8231 3.38672 14.91 3.38672 14.9983C3.38672 15.1873 3.39363 15.3739 3.40875 15.5593C4.05024 15.1383 5.9258 14.2907 10.6145 14.2774C15.3037 14.2907 17.178 15.1382 17.8208 15.5593C17.836 15.3739 17.8434 15.1886 17.8434 14.9983C17.8434 14.9113 17.8411 14.8244 17.8372 14.7355C15.7474 13.477 10.6157 13.4771 10.6157 13.4771C10.6157 13.4771 5.48151 13.477 3.39244 14.7355Z" fill="#F5E600"/>
<path d="M17.8349 15.5908L17.8085 15.5732C17.2286 15.1925 15.3645 14.3071 10.6123 14.2945C5.85995 14.3071 3.99767 15.1925 3.4173 15.5732L3.39149 15.5908L3.3902 15.5618C3.37572 15.374 3.36816 15.1861 3.36816 14.9984C3.36816 14.9202 3.36946 14.8377 3.37313 14.7355V14.7255L3.38069 14.7204C5.45097 13.4733 10.5606 13.4595 10.6123 13.4595C10.664 13.4595 15.7742 13.4733 17.8425 14.7204L17.8514 14.7255L17.8526 14.7355C17.8564 14.8364 17.859 14.9202 17.859 14.9984C17.859 15.1862 17.8502 15.374 17.8363 15.5618L17.8349 15.5908ZM10.6135 14.258C15.3077 14.2724 17.1921 15.1371 17.8034 15.5253C17.8159 15.3514 17.8236 15.1749 17.8236 14.9985C17.8236 14.9229 17.8211 14.8429 17.8185 14.747C15.7503 13.5106 10.6652 13.4954 10.6136 13.4954C10.562 13.4954 5.47689 13.5106 3.40909 14.747C3.40661 14.8428 3.40413 14.9228 3.40413 14.9985C3.40413 15.1749 3.41039 15.3514 3.42367 15.5253C4.03547 15.137 5.91978 14.2724 10.6135 14.258Z" fill="#101211"/>
<path d="M10.6129 13.6221C10.6129 13.6221 5.4812 13.6221 3.39213 14.8799C3.39084 14.9126 3.39084 14.9454 3.38965 14.9807C3.39213 15.1245 3.39721 15.2707 3.40855 15.4144C4.05004 14.9934 5.9256 14.1445 10.6143 14.1319C15.3035 14.1445 17.1778 14.9934 17.8206 15.4144C17.8319 15.2707 17.8383 15.1245 17.8409 14.9807C17.8396 14.9454 17.8384 14.9127 17.8371 14.8799C15.7446 13.6221 10.6129 13.6221 10.6129 13.6221Z" fill="#F5E600"/>
<path d="M17.8344 15.4447L17.8079 15.4296C17.2281 15.0489 15.364 14.163 10.6118 14.1484C5.85942 14.1629 3.99714 15.0489 3.41677 15.4296L3.39096 15.4447L3.38966 15.4146C3.37897 15.2835 3.3726 15.1424 3.37012 14.9809C3.37012 14.9456 3.37141 14.9129 3.3726 14.88V14.87L3.38016 14.8662C5.45044 13.6191 10.56 13.604 10.6118 13.604C10.6635 13.604 15.7736 13.6191 17.842 14.8662L17.8508 14.87L17.8521 14.88C17.8521 14.9128 17.8534 14.9456 17.8559 14.9783C17.8521 15.1423 17.8457 15.2834 17.8357 15.4145L17.8344 15.4447ZM3.40846 14.8927C3.40716 14.9204 3.40716 14.9507 3.40597 14.9809C3.40846 15.1271 3.41353 15.2608 3.42303 15.3818C4.03505 14.991 5.91925 14.1264 10.6131 14.1137C15.3073 14.1264 17.1917 14.991 17.803 15.3818C17.813 15.2608 17.8181 15.1284 17.8206 14.9784C17.8181 14.9507 17.8181 14.9204 17.8181 14.8928C15.7499 13.6557 10.6648 13.6413 10.6132 13.6413C10.5615 13.6413 5.47625 13.6543 3.40846 14.8927Z" fill="#101211"/>
<path d="M4.06445 11.9405C4.59072 11.7086 6.60041 10.9624 10.5871 10.9883V10.9896H10.6375V10.9883C14.6242 10.9625 16.6357 11.7099 17.1625 11.9405C17.0327 11.6669 16.8876 11.4035 16.7289 11.1508C16.691 11.0884 16.6495 11.0254 16.6091 10.965C15.8101 10.7003 14.2926 10.3285 11.9073 10.2396C11.4095 10.22 11.0118 10.2176 10.7874 10.22C10.737 10.22 10.6878 10.22 10.6362 10.22C10.6286 10.22 10.5933 10.22 10.5858 10.22C10.534 10.22 10.4849 10.22 10.4351 10.22C10.2102 10.2176 9.81241 10.22 9.31455 10.2396C6.92925 10.3272 5.41299 10.699 4.61393 10.965C4.573 11.0254 4.53272 11.0885 4.49298 11.1508C4.33671 11.4036 4.19178 11.667 4.06445 11.9405Z" fill="#F5E600"/>
<path d="M4.02734 11.9751L4.04808 11.9329C4.16785 11.6771 4.30338 11.4244 4.45328 11.183L4.48039 11.1414C4.52456 11.0709 4.56419 11.0103 4.60199 10.9543L4.60447 10.9493L4.60955 10.9468C5.46531 10.6645 6.9753 10.3091 9.31524 10.2202C9.73178 10.2051 10.0778 10.2007 10.2945 10.2007C10.3475 10.2007 10.3954 10.2007 10.437 10.202H10.4572H10.5284H10.6059H10.6135H10.6292H10.6986H10.7698H10.7894C10.8303 10.2007 10.8783 10.2007 10.9312 10.2007C11.1479 10.2007 11.4939 10.2051 11.9105 10.2202C14.2504 10.3078 15.7616 10.6645 16.6162 10.9468L16.6213 10.9493L16.6263 10.9543C16.6628 11.0104 16.7032 11.0696 16.7473 11.1414L16.7737 11.183C16.9238 11.4256 17.0624 11.6771 17.1783 11.9329L17.1997 11.9751L17.1569 11.9562C16.6415 11.73 14.6342 10.9814 10.659 11.0059H10.6408H10.615H10.5708C10.5103 11.0046 10.4497 11.0046 10.3893 11.0046C6.535 11.0046 4.58007 11.7325 4.07281 11.9562L4.02734 11.9751ZM4.53212 11.1288L4.51257 11.1584C4.36191 11.3997 4.22206 11.6499 4.10229 11.9045C4.67262 11.6619 6.63198 10.9686 10.3892 10.9686H10.5889H10.6072H10.6148H10.6305H10.6407C14.5284 10.9428 16.5468 11.6569 17.1279 11.9045C17.0069 11.6499 16.8682 11.3984 16.7169 11.1584L16.6892 11.1168H16.6917C16.6589 11.067 16.6287 11.0228 16.601 10.98C15.7477 10.6977 14.2428 10.3454 11.9122 10.2578C11.4963 10.2407 11.1503 10.2383 10.9336 10.2383C10.8806 10.2383 10.8327 10.2383 10.7918 10.2383H10.4408C10.3992 10.2383 10.3512 10.2383 10.299 10.2383C10.0816 10.2383 9.73621 10.2407 9.32021 10.2578C6.98912 10.3441 5.48421 10.6977 4.63147 10.98C4.59767 11.0254 4.56678 11.0734 4.53212 11.1288Z" fill="#101211"/>
<path d="M10.6375 10.8435C10.6299 10.8435 10.5946 10.8435 10.5871 10.8435C6.79642 10.8177 4.79353 11.4925 4.15204 11.7585C4.12245 11.8196 4.09286 11.8801 4.06445 11.9407C4.59072 11.7088 6.60041 10.9626 10.5871 10.9885V10.9898H10.6375V10.9885C14.6242 10.9627 16.6357 11.7101 17.1625 11.9407C17.1322 11.8801 17.1019 11.8185 17.0717 11.7585C16.4315 11.4913 14.428 10.8189 10.6375 10.8435Z" fill="#F5E600"/>
<path d="M4.02734 11.9753L4.04808 11.9331C4.07648 11.8713 4.10607 11.8102 4.13696 11.7497L4.13944 11.7434L4.14636 11.741C4.82252 11.4605 6.82151 10.8001 10.5876 10.8259H10.6059H10.6135H10.6292H10.6394C14.4041 10.8001 16.4032 11.4605 17.0812 11.741L17.0876 11.7434L17.0914 11.7497C17.1204 11.8103 17.1518 11.8713 17.1783 11.9331L17.1997 11.9753L17.1581 11.9564C16.6413 11.7302 14.6341 10.9815 10.6589 11.0061H10.6407H10.6149H10.5713C6.59732 10.9827 4.58881 11.7315 4.0727 11.9564L4.02734 11.9753ZM4.16666 11.7717C4.14398 11.8171 4.12314 11.8593 4.1011 11.906C4.68342 11.6583 6.70196 10.9456 10.5878 10.9701H10.606H10.6136H10.6293H10.6395H10.8398C14.5964 10.9701 16.5557 11.6621 17.1254 11.906C17.1052 11.8606 17.0838 11.8184 17.0599 11.7717C16.3919 11.497 14.4585 10.8618 10.8399 10.8618C10.7788 10.8618 10.7183 10.8618 10.6577 10.8618H10.6395H10.6137H10.5702C6.83361 10.8398 4.84725 11.4914 4.16666 11.7717Z" fill="#101211"/>
<path d="M10.5875 10.3649C10.595 10.3649 10.6302 10.3649 10.6379 10.3662V10.3649C13.9074 10.3441 15.8471 10.8419 16.7294 11.1494C16.6915 11.087 16.65 11.024 16.6096 10.9636C15.6758 10.6548 13.7662 10.1991 10.638 10.2199C10.6305 10.2199 10.5951 10.2199 10.5876 10.2199C7.45928 10.1991 5.54916 10.6547 4.61705 10.9636C4.57612 11.024 4.53584 11.0871 4.49609 11.1494C5.3782 10.842 7.31856 10.3454 10.5875 10.3649Z" fill="#F5E600"/>
<path d="M4.45312 11.1843L4.48023 11.1415C4.5244 11.071 4.56404 11.0097 4.60184 10.9543L4.60432 10.9494L4.60939 10.9469C5.46774 10.6627 7.40119 10.1831 10.5862 10.2033H10.6044H10.612H10.6278H10.6379C13.8261 10.1831 15.7564 10.6627 16.6146 10.9469L16.6197 10.9494L16.6235 10.9543C16.6625 11.0117 16.7029 11.0722 16.7444 11.1415L16.7722 11.1843L16.723 11.166C15.8849 10.873 14.0012 10.3827 10.8364 10.3827C10.7759 10.3827 10.7155 10.3827 10.6549 10.384H10.6366H10.6108H10.5667C10.5062 10.3827 10.4456 10.3827 10.3851 10.3827C7.22159 10.3827 5.33847 10.8743 4.49848 11.166L4.45312 11.1843ZM4.62894 10.9802C4.60184 11.0217 4.5716 11.0659 4.53941 11.1157C5.42368 10.815 7.35832 10.3273 10.5888 10.3469H10.607H10.6146H10.6304H10.6405C13.8709 10.326 15.8056 10.8138 16.689 11.1157C16.6589 11.0672 16.6286 11.023 16.6009 10.9802C15.7437 10.6966 13.8249 10.2215 10.6588 10.2398H10.6405H10.6147H10.5712C7.40378 10.2214 5.48535 10.6966 4.62894 10.9802Z" fill="#101211"/>
<path d="M4.15723 18.25C4.27192 18.4769 4.3986 18.6987 4.53532 18.9104C5.63115 18.5347 7.50293 18.1592 10.6117 18.1517C13.7224 18.1592 15.5933 18.5348 16.6886 18.9104C16.8248 18.6987 16.9508 18.4767 17.0668 18.25C14.7029 17.3525 10.6117 17.3525 10.6117 17.3525C10.6117 17.3525 6.52179 17.3526 4.15723 18.25Z" fill="#F5E600"/>
<path d="M16.6968 18.9334L16.6842 18.9283C15.6884 18.5867 13.8251 18.1796 10.6123 18.1695C7.40022 18.1797 5.53729 18.5867 4.54092 18.9283L4.52829 18.9334L4.52073 18.9207C4.3839 18.709 4.25603 18.4846 4.14069 18.2566L4.13184 18.2377L4.15138 18.2301C6.49132 17.3428 10.5726 17.334 10.6135 17.334C10.6551 17.334 14.7356 17.344 17.0761 18.2301L17.095 18.2377L17.0849 18.2566C16.9714 18.4835 16.8429 18.709 16.7056 18.9207L16.6968 18.9334ZM4.18238 18.2602C4.2921 18.4744 4.4137 18.6862 4.54351 18.8904C5.54679 18.5476 7.41026 18.1418 10.6136 18.1342C13.8169 18.1418 15.681 18.5476 16.6842 18.8904C16.8141 18.6862 16.9339 18.4744 17.0447 18.2602C14.7073 17.3805 10.6551 17.3705 10.6136 17.3705C10.5726 17.3705 6.51973 17.3805 4.18238 18.2602Z" fill="#101211"/>
<path d="M4.21973 18.3712C4.29597 18.515 4.376 18.6536 4.46239 18.7922C5.54699 18.409 7.43249 18.0158 10.6138 18.0083C13.7957 18.0157 15.6812 18.4103 16.765 18.7922C16.8508 18.6536 16.9315 18.515 17.0071 18.3712C14.6357 17.4966 10.6137 17.4966 10.6137 17.4966C10.6137 17.4966 6.59369 17.4966 4.21973 18.3712Z" fill="#F5E600"/>
<path d="M16.772 18.815L16.7595 18.81C15.7612 18.457 13.8839 18.0337 10.6132 18.026C7.34176 18.0348 5.4663 18.457 4.46745 18.81L4.45298 18.815L4.44542 18.8025C4.36032 18.6638 4.279 18.5226 4.20276 18.3789L4.19336 18.3613L4.21291 18.3537C6.56224 17.4892 10.5722 17.479 10.612 17.479C10.6523 17.479 14.6635 17.4892 17.0116 18.3537L17.0305 18.3613L17.0192 18.3789C16.9435 18.5226 16.8642 18.6638 16.7772 18.8025L16.772 18.815ZM10.6132 17.9883C13.8744 17.9983 15.7536 18.4168 16.7569 18.7696C16.8351 18.6423 16.9107 18.5125 16.9812 18.3814C14.6363 17.5244 10.6534 17.513 10.6132 17.513C10.5734 17.513 6.59054 17.5244 4.24498 18.3814C4.31496 18.5125 4.39121 18.6423 4.46875 18.7696C5.47268 18.4167 7.35191 17.9982 10.6132 17.9883Z" fill="#101211"/>
<path d="M16.3158 19.4376C16.607 19.0646 16.8616 18.6637 17.0758 18.2352C16.888 17.8621 15.8873 16.4001 10.9812 13.5857C6.29752 10.8986 5.05729 10.7322 4.75609 10.7644C4.49453 11.1262 4.2645 11.5131 4.07227 11.9208C4.50587 11.9365 5.90366 12.2812 10.2016 14.7447C15.3125 17.6782 16.1834 19.1426 16.3158 19.4376Z" fill="#F5E600"/>
<path d="M16.3106 19.4728L16.2981 19.4451C16.1795 19.1804 15.33 17.7107 10.1915 14.764C5.82231 12.2577 4.45541 11.9559 4.07105 11.9414L4.04395 11.9401L4.05528 11.9143C4.24622 11.5091 4.47755 11.1184 4.74214 10.7541L4.74592 10.7478L4.75348 10.7465C4.77421 10.7453 4.79624 10.7427 4.81957 10.7427C5.19269 10.7427 6.54005 11.0187 10.9886 13.5704C15.8846 16.3785 16.8954 17.8443 17.0908 18.2274L17.0945 18.235L17.0908 18.2452C16.8765 18.6686 16.6206 19.0744 16.3294 19.4499L16.3106 19.4728ZM4.10053 11.9067C4.6079 11.9363 6.06865 12.3573 10.2104 14.7318C15.2053 17.5974 16.157 19.0744 16.3183 19.4047C16.6006 19.0391 16.8476 18.646 17.0543 18.2351C16.8527 17.8444 15.8267 16.3875 10.9705 13.6025C6.52946 11.056 5.18967 10.7799 4.81968 10.7799C4.80013 10.7799 4.78188 10.7812 4.76557 10.7824C4.5107 11.136 4.28769 11.5141 4.10053 11.9067Z" fill="#101211"/>
<path d="M10.274 14.6286C6.13358 12.254 4.65458 11.8255 4.14343 11.7764C4.11881 11.8243 4.09559 11.8747 4.07227 11.9219C4.50587 11.9377 5.90366 12.2824 10.2016 14.7457C15.3125 17.6769 16.1833 19.1426 16.3157 19.4363C16.351 19.3909 16.3863 19.3469 16.4216 19.2989C16.1922 18.8755 15.1056 17.4007 10.274 14.6286Z" fill="#F5E600"/>
<path d="M16.3106 19.4729L16.2981 19.4452C16.1795 19.1805 15.33 17.7108 10.1915 14.7641C5.82231 12.2578 4.45541 11.956 4.07105 11.9415L4.04395 11.9402L4.05528 11.9144C4.07861 11.8653 4.10313 11.8167 4.12645 11.7688L4.13153 11.7568L4.14481 11.7581C4.6647 11.8073 6.15396 12.2446 10.2817 14.6116C15.155 17.4084 16.2237 18.9007 16.4355 19.2902L16.4418 19.3014L16.4355 19.309C16.4003 19.3568 16.3637 19.4022 16.3296 19.449L16.3106 19.4729ZM4.10053 11.9068C4.6079 11.9364 6.06865 12.3574 10.2104 14.7319C15.2053 17.5975 16.157 19.0745 16.3183 19.4048C16.3461 19.3696 16.3738 19.3343 16.4003 19.299C16.1771 18.8957 15.0893 17.411 10.2647 14.6456C6.1747 12.2989 4.68296 11.8513 4.15486 11.7972C4.1352 11.8318 4.11749 11.869 4.10053 11.9068Z" fill="#101211"/>
<path d="M10.8909 13.7017C15.6123 16.4098 16.7555 17.8793 17.0214 18.3432C17.0404 18.3078 17.0593 18.2725 17.0769 18.2347C16.8878 17.8616 15.8871 16.3996 10.9823 13.5852C6.29863 10.8981 5.05841 10.7317 4.75721 10.7639C4.73831 10.791 4.71877 10.8181 4.69922 10.8452C5.14718 10.8658 6.57089 11.2251 10.8909 13.7017Z" fill="#F5E600"/>
<path d="M17.0221 18.381L17.0045 18.352C16.7158 17.8492 15.5449 16.3947 10.8809 13.7195C6.63714 11.2857 5.18514 10.8881 4.69743 10.866L4.66406 10.8648L4.69873 10.8156C4.7132 10.7954 4.72713 10.7758 4.7416 10.7551L4.74538 10.7487L4.75294 10.7474C4.77368 10.7461 4.79571 10.7437 4.81914 10.7437C5.19227 10.7437 6.53962 11.0197 10.9882 13.5713C15.8855 16.3795 16.8963 17.844 17.0904 18.2271L17.094 18.2347L17.0904 18.2459C17.0727 18.275 17.0575 18.309 17.0399 18.3405L17.0221 18.381ZM4.73199 10.8315C5.25383 10.8674 6.73909 11.301 10.8991 13.6874C15.4868 16.3203 16.7045 17.7762 17.0196 18.3067C17.0322 18.2827 17.0447 18.2614 17.0548 18.2349C16.8532 17.8442 15.8272 16.3873 10.971 13.6023C6.53001 11.0558 5.19022 10.7797 4.82022 10.7797C4.80068 10.7797 4.78243 10.781 4.76612 10.7822C4.75532 10.798 4.74398 10.8144 4.73199 10.8315Z" fill="#101211"/>
<path d="M6.9093 17.9076C7.63341 19.2964 8.87806 19.9998 10.6137 19.9998C12.3485 19.9998 13.5939 19.2964 14.3179 17.9076C14.8586 16.8677 14.8882 15.8103 14.8882 15.8002V10.124H6.33887V15.8026C6.33887 15.8103 6.36727 16.8689 6.9093 17.9076Z" fill="white"/>
<path d="M14.8884 10.1262V15.8004C14.8884 15.8105 14.8589 16.8691 14.3181 17.9078C14.0018 18.5166 13.5733 19.0005 13.0483 19.3472C12.3886 19.7807 11.5705 20 10.6152 20C9.66037 20 8.84047 19.7807 8.18256 19.3472C7.65576 18.9992 7.22842 18.5153 6.91275 17.9078C6.37018 16.8693 6.34178 15.8105 6.34178 15.8029V10.1262H14.8884ZM14.9609 10.0537H6.26855V15.8029C6.26855 15.8029 6.35744 20.0744 10.6151 20.0744C14.8733 20.0744 14.9621 15.8029 14.9621 15.8029V10.0537H14.9609Z" fill="black"/>
<path d="M6.87684 17.9228C7.37794 18.8882 8.43349 20.0353 10.6134 20.0353C12.7945 20.0353 13.8508 18.8857 14.351 17.9203C14.8955 16.8704 14.9246 15.813 14.9246 15.8004V10.0884H6.30273V15.8029C6.30273 15.813 6.33103 16.8742 6.87684 17.9228ZM8.14546 11.9329H13.0812V15.7601C13.0736 15.871 13.0168 16.5403 12.6734 17.149C12.4011 17.6355 11.9197 18.1926 10.6133 18.1926C9.3075 18.1926 8.82605 17.6355 8.5525 17.149C8.21026 16.5402 8.15227 15.871 8.14536 15.7601L8.14546 11.9329Z" fill="black"/>
<path d="M6.87684 17.9228C7.37794 18.8882 8.43349 20.0353 10.6134 20.0353C12.7945 20.0353 13.8508 18.8857 14.351 17.9203C14.8955 16.8704 14.9246 15.813 14.9246 15.8004V10.0884H6.30273V15.8029C6.30273 15.813 6.33103 16.8742 6.87684 17.9228ZM8.10194 11.8888H13.1253V15.7627C13.117 15.8711 13.0603 16.5479 12.7131 17.1692C12.5342 17.4893 12.3142 17.7263 12.0419 17.8977C11.6796 18.122 11.2007 18.238 10.6133 18.238C10.0259 18.238 9.54757 18.122 9.18589 17.8977C8.91364 17.725 8.6943 17.4893 8.5147 17.1692C8.16749 16.5492 8.11069 15.871 8.10313 15.7627V11.8888H8.10194Z" fill="#E32121"/>
<path d="M6.87684 17.9228C7.37794 18.8882 8.43349 20.0353 10.6134 20.0353C12.7945 20.0353 13.8508 18.8857 14.351 17.9203C14.8955 16.8704 14.9246 15.813 14.9246 15.8004V10.0884H6.30273V15.8029C6.30273 15.813 6.33103 16.8742 6.87684 17.9228ZM6.52585 10.3133H14.6996V15.798C14.6996 15.8509 14.6624 16.8364 14.1526 17.817C13.4645 19.1405 12.2746 19.8134 10.6135 19.8134C8.95921 19.8134 7.77126 19.1453 7.08246 17.8321C6.56754 16.8515 6.52855 15.8483 6.52607 15.7979V10.3133H6.52585Z" fill="black"/>
<path d="M6.87684 17.9228C7.37794 18.8882 8.43349 20.0353 10.6134 20.0353C12.7945 20.0353 13.8508 18.8857 14.351 17.9203C14.8955 16.8704 14.9246 15.813 14.9246 15.8004V10.0884H6.30273V15.8029C6.30273 15.813 6.33103 16.8742 6.87684 17.9228ZM6.48363 10.2705H14.7424V15.8004C14.7411 15.8483 14.7046 16.8478 14.1897 17.8371C13.8853 18.4244 13.4738 18.8908 12.969 19.2235C12.3338 19.6445 11.5403 19.8562 10.6121 19.8562C9.68818 19.8562 8.89668 19.6445 8.26329 19.2285C7.75722 18.8982 7.34705 18.4344 7.04078 17.8496C6.52207 16.8589 6.48363 15.8456 6.48244 15.8002V10.2705H6.48363Z" fill="white"/>
<path d="M11.1356 11.2551L10.6138 11.252L10.0926 11.2551L10.0371 11.7107H10.6138H11.191L11.1356 11.2551Z" fill="#F5E600"/>
<path d="M11.2009 11.7197H10.0249C10.006 11.7197 9.99023 11.7361 9.99023 11.7544C9.99023 11.7726 10.006 11.7891 10.0249 11.7891H11.2009C11.2204 11.7891 11.2355 11.7726 11.2355 11.7544C11.2355 11.7361 11.2216 11.7197 11.2009 11.7197Z" fill="#F5E600"/>
<path d="M11.1647 11.1826H10.0625C10.0505 11.1889 10.043 11.2009 10.043 11.2135C10.043 11.2331 10.0587 11.2482 10.0776 11.2482H11.1478C11.1673 11.2482 11.1824 11.2318 11.1824 11.2135C11.1836 11.2009 11.1761 11.1889 11.1647 11.1826Z" fill="#F5E600"/>
<path d="M11.2121 10.7656C11.2121 10.7183 11.2121 10.637 11.2121 10.637H11.1232V10.7026H11.0626V10.6383H11.0173H10.9719V10.7026H10.9113V10.637H10.8225V10.7656C10.8225 10.8135 10.878 10.816 10.878 10.816L10.8679 11.0769H10.7621L10.7514 10.5784C10.7514 10.5784 10.8068 10.5771 10.8068 10.5299C10.8068 10.4807 10.8068 10.397 10.8068 10.397H10.7192V10.4638H10.6587V10.3996H10.6134H10.5686V10.4638H10.5074V10.397H10.4186V10.5299C10.4186 10.5772 10.474 10.5784 10.474 10.5784L10.4639 11.0769H10.3581L10.3473 10.8185C10.3473 10.8185 10.4028 10.816 10.4028 10.768C10.4028 10.7195 10.4028 10.6369 10.4028 10.6369H10.314V10.7025H10.2535V10.6382H10.2082H10.1628V10.7025H10.1022V10.6369H10.0146V10.768C10.0146 10.8159 10.0702 10.8185 10.0702 10.8185L10.0601 11.0769H10.0481C10.0286 11.0769 10.0146 11.094 10.0146 11.1116C10.0146 11.1298 10.0304 11.1462 10.0481 11.1462H11.175C11.1957 11.1462 11.2109 11.1298 11.2109 11.1116C11.2109 11.094 11.1945 11.0769 11.175 11.0769H11.1661L11.1542 10.816C11.1553 10.816 11.2121 10.8135 11.2121 10.7656Z" fill="#F5E600"/>
<path d="M10.184 10.8984C10.1889 10.8807 10.1972 10.8726 10.2098 10.8726C10.2218 10.8726 10.2306 10.8808 10.2356 10.8984C10.2394 10.9117 10.2394 10.9242 10.2394 10.9242V10.9917H10.1814V10.9242C10.1802 10.9243 10.1802 10.9117 10.184 10.8984Z" fill="black"/>
<path d="M10.9916 10.8984C10.9966 10.8807 11.006 10.8726 11.0174 10.8726C11.0294 10.8726 11.0381 10.8808 11.0432 10.8984C11.047 10.9117 11.047 10.9242 11.047 10.9242V10.9917H10.989V10.9242C10.9878 10.9243 10.9878 10.9117 10.9916 10.8984Z" fill="black"/>
<path d="M10.5878 10.7452C10.5927 10.7244 10.6009 10.7168 10.6136 10.7168C10.6268 10.7168 10.6343 10.7257 10.6394 10.7452C10.6432 10.7603 10.6432 10.7748 10.6432 10.7748V10.8561H10.584V10.7748C10.584 10.7761 10.584 10.7603 10.5878 10.7452Z" fill="black"/>
<path d="M11.2028 11.6862L11.1549 11.2835C11.1902 11.2797 11.2185 11.2495 11.2185 11.2135C11.2185 11.1978 11.2147 11.1864 11.2065 11.1751C11.2298 11.1631 11.2456 11.1398 11.2456 11.1115C11.2456 11.0755 11.2185 11.0447 11.182 11.0421L11.1744 10.8253C11.2002 10.8197 11.2299 10.802 11.2299 10.7617V10.6186H11.1045V10.6817H11.0786V10.6199H10.9526V10.6817H10.9268V10.6186H10.8027V10.7617C10.8027 10.802 10.8323 10.8197 10.8581 10.8253L10.8506 11.0408H10.7781L10.768 10.5864C10.7939 10.5801 10.8234 10.5618 10.8234 10.5215V10.3784H10.6994V10.4427H10.6735V10.3809H10.5475V10.4427H10.5217V10.3784H10.3975V10.5215C10.3975 10.5619 10.4284 10.5801 10.453 10.5864L10.443 11.0408H10.3717L10.3628 10.8253C10.3887 10.8197 10.4184 10.802 10.4184 10.7617V10.6186H10.2942V10.6817H10.2682V10.6199H10.1422V10.6817H10.1164V10.6186H9.99231V10.7617C9.99231 10.802 10.0219 10.8197 10.0465 10.8253L10.039 11.0421C10.0025 11.0446 9.97601 11.0742 9.97601 11.1115C9.97601 11.1386 9.99113 11.1632 10.0145 11.1751C10.0069 11.1864 10.0025 11.1991 10.0025 11.2135C10.0025 11.2482 10.0302 11.2797 10.0661 11.2835L10.0182 11.6862C9.98108 11.6862 9.9502 11.7171 9.9502 11.7555C9.9502 11.7946 9.98108 11.8267 10.0208 11.8267H11.1968C11.2352 11.8267 11.268 11.7958 11.268 11.7555C11.2715 11.717 11.2419 11.6862 11.2028 11.6862ZM10.6192 11.3698L10.613 11.366L10.6066 11.3698C10.4477 11.4328 10.4283 11.6238 10.427 11.6849H10.3444C10.3469 11.6162 10.3728 11.3711 10.6015 11.2847H10.6261C10.8568 11.3698 10.8801 11.6161 10.8826 11.6849H10.8001C10.7976 11.6238 10.7781 11.4316 10.6192 11.3698ZM10.7643 11.6849H10.4624C10.4649 11.6301 10.4826 11.4612 10.6131 11.4045C10.7434 11.4612 10.7617 11.6307 10.7643 11.6849ZM10.5203 11.2847C10.3331 11.3969 10.3123 11.6187 10.3085 11.6849H10.0584L10.1057 11.2847H10.5203ZM10.9161 11.6849C10.9136 11.6187 10.8909 11.3969 10.705 11.2847H11.1203L11.1682 11.6849H10.9161ZM10.8405 10.7629V10.6546H10.8947V10.7182H10.9899V10.6557H11.0454V10.7182H11.1412V10.6546H11.1954V10.7629C11.1954 10.79 11.1607 10.7925 11.155 10.7925H11.1512H10.879C10.8752 10.7926 10.8405 10.79 10.8405 10.7629ZM11.1474 11.0421H10.8865L10.8947 10.8291H11.1386L11.1474 11.0421ZM10.4365 10.5228V10.4144H10.4907V10.4794H10.5859V10.417H10.6413V10.4794H10.7371V10.4144H10.79V10.5228C10.79 10.5512 10.7547 10.5524 10.7509 10.5537H10.7345H10.488H10.476C10.4712 10.5537 10.4365 10.5525 10.4365 10.5228ZM10.7434 11.0408H10.4812L10.4919 10.5903H10.7346L10.7434 11.0408ZM10.0326 10.7629V10.6546H10.0855V10.7182H10.1807V10.6557H10.2362V10.7182H10.332V10.6546H10.3861V10.7629C10.3861 10.79 10.3508 10.7925 10.3457 10.7925H10.3432H10.0722H10.0709C10.0673 10.7926 10.0326 10.79 10.0326 10.7629ZM10.3395 11.0421H10.0773L10.0855 10.8291H10.3295L10.3395 11.0421ZM10.0155 11.1114C10.0155 11.0951 10.0269 11.0818 10.0426 11.078C10.0451 11.078 10.0477 11.0767 10.0502 11.0767H11.177C11.1978 11.0767 11.2117 11.0938 11.2117 11.1114C11.2117 11.1296 11.1966 11.146 11.177 11.146H10.0502C10.0294 11.148 10.0155 11.131 10.0155 11.1114ZM10.0426 11.2135C10.0426 11.1991 10.0502 11.1877 10.0622 11.1826H11.1645C11.1758 11.1889 11.1834 11.2009 11.1834 11.2135C11.1834 11.2331 11.1683 11.2482 11.1487 11.2482H10.0786C10.0584 11.2495 10.0426 11.2331 10.0426 11.2135ZM11.2004 11.7901H10.0244C10.0055 11.7901 9.98972 11.7738 9.98972 11.7554C9.98972 11.7378 10.0055 11.7208 10.0244 11.7208H11.2004C11.2199 11.7208 11.235 11.7378 11.235 11.7554C11.235 11.7738 11.2211 11.7901 11.2004 11.7901Z" fill="black"/>
<path d="M7.84626 11.2551L7.32507 11.252L6.80324 11.2551L6.74902 11.7107H7.32507H7.90166L7.84626 11.2551Z" fill="#F5E600"/>
<path d="M7.9131 11.7197H6.73584C6.71629 11.7197 6.70117 11.7361 6.70117 11.7544C6.70117 11.7726 6.71629 11.7891 6.73584 11.7891H7.9131C7.932 11.7891 7.94777 11.7726 7.94777 11.7544C7.94777 11.7361 7.932 11.7197 7.9131 11.7197Z" fill="#F5E600"/>
<path d="M7.87599 11.1826H6.77378C6.76244 11.1889 6.75488 11.2009 6.75488 11.2135C6.75488 11.2331 6.77 11.2482 6.78955 11.2482H7.86087C7.88041 11.2482 7.89553 11.2318 7.89553 11.2135C7.89553 11.2009 7.88797 11.1889 7.87599 11.1826Z" fill="#F5E600"/>
<path d="M7.92336 10.7656C7.92336 10.7183 7.92336 10.637 7.92336 10.637H7.83448V10.7026H7.77389V10.6383H7.72854H7.68318V10.7026H7.62259V10.637H7.53382V10.7656C7.53382 10.8135 7.58933 10.816 7.58933 10.816L7.57864 11.0769H7.4728L7.46276 10.5784C7.46276 10.5784 7.51816 10.5771 7.51816 10.5299C7.51816 10.4807 7.51816 10.397 7.51816 10.397H7.42939V10.4638H7.3688V10.3996H7.32345H7.27809V10.4638H7.21761V10.397H7.12873V10.5299C7.12873 10.5772 7.18543 10.5784 7.18543 10.5784L7.17344 11.0769H7.0676L7.05745 10.8185C7.05745 10.8185 7.11296 10.816 7.11296 10.768C7.11296 10.7195 7.11296 10.6369 7.11296 10.6369H7.02408V10.7025H6.96296V10.6382H6.91814H6.87278V10.7025H6.8123V10.6369H6.72461V10.768C6.72461 10.8159 6.78012 10.8185 6.78012 10.8185L6.76943 11.0769H6.75938C6.73984 11.0769 6.72472 11.094 6.72472 11.1116C6.72472 11.1298 6.73984 11.1462 6.75938 11.1462H7.8874C7.90695 11.1462 7.92206 11.1298 7.92206 11.1116C7.92206 11.094 7.905 11.0769 7.8874 11.0769H7.8766L7.86537 10.816C7.86655 10.816 7.92336 10.8135 7.92336 10.7656Z" fill="#F5E600"/>
<path d="M6.89587 10.8984C6.90084 10.8807 6.90851 10.8726 6.92168 10.8726C6.93432 10.8726 6.94242 10.8808 6.94749 10.8984C6.95127 10.9117 6.95127 10.9242 6.95127 10.9242V10.9917H6.89328V10.9242C6.89209 10.9243 6.89209 10.9117 6.89587 10.8984Z" fill="black"/>
<path d="M7.70446 10.8984C7.70954 10.8807 7.71894 10.8726 7.73027 10.8726C7.74161 10.8726 7.75101 10.8808 7.75609 10.8984C7.75987 10.9117 7.75987 10.9242 7.75987 10.9242V10.9917H7.70187V10.9242C7.70068 10.9243 7.70068 10.9117 7.70446 10.8984Z" fill="black"/>
<path d="M7.30024 10.7452C7.30521 10.7244 7.31277 10.7168 7.32605 10.7168C7.33858 10.7168 7.34679 10.7257 7.35186 10.7452C7.35564 10.7603 7.35564 10.7748 7.35564 10.7748V10.8561H7.29765V10.7748C7.29635 10.7761 7.29635 10.7603 7.30024 10.7452Z" fill="black"/>
<path d="M7.91638 11.6862L7.86713 11.2835C7.9031 11.2797 7.9301 11.2495 7.9301 11.2135C7.9301 11.1978 7.92632 11.1864 7.91876 11.1751C7.94338 11.1631 7.9585 11.1398 7.9585 11.1115C7.9585 11.0755 7.93139 11.0447 7.89554 11.0421L7.88668 10.8253C7.91249 10.8197 7.94219 10.802 7.94219 10.7617V10.6186H7.8167V10.6817H7.79089V10.6199H7.66615V10.6817H7.64034V10.6186H7.51626V10.7617C7.51626 10.802 7.54585 10.8197 7.57166 10.8253L7.5628 11.0408H7.49034L7.48029 10.5864C7.5061 10.5801 7.5357 10.5618 7.5357 10.5215V10.3784H7.41161V10.4427H7.3858V10.3809H7.26031V10.4427H7.23514V10.3784H7.11354V10.5215C7.11354 10.5619 7.14443 10.5801 7.16905 10.5864L7.1589 11.0408H7.08773L7.07887 10.8253C7.10469 10.8197 7.13428 10.802 7.13428 10.7617V10.6186H7.01019V10.6817H6.98438V10.6199H6.85835V10.6817H6.83243V10.6186H6.70823V10.7617C6.70823 10.802 6.73782 10.8197 6.76234 10.8253L6.75348 11.0421C6.71698 11.0446 6.68987 11.0742 6.68987 11.1115C6.68987 11.1386 6.70564 11.1632 6.72897 11.1751C6.72076 11.1864 6.71698 11.1991 6.71698 11.2135C6.71698 11.2482 6.74409 11.2797 6.78059 11.2835L6.73275 11.6862C6.69484 11.6862 6.66406 11.7171 6.66406 11.7555C6.66406 11.7946 6.69495 11.8267 6.73534 11.8267H7.91249C7.95094 11.8267 7.98301 11.7958 7.98301 11.7555C7.98442 11.717 7.95342 11.6862 7.91638 11.6862ZM7.33148 11.3698L7.32521 11.366L7.31884 11.3698C7.15879 11.4328 7.14054 11.6238 7.13795 11.6849H7.05663C7.05911 11.6162 7.08503 11.3711 7.31312 11.2847H7.33644C7.56777 11.3698 7.59099 11.6161 7.59358 11.6849H7.51226C7.50988 11.6238 7.49034 11.4316 7.33148 11.3698ZM7.4777 11.6849H7.17391C7.17639 11.6301 7.19475 11.4612 7.32521 11.4045C7.45567 11.4612 7.47457 11.6307 7.4777 11.6849ZM7.2332 11.2847C7.04604 11.3969 7.02455 11.6187 7.02207 11.6849H6.77001L6.81785 11.2847H7.2332ZM7.62836 11.6849C7.62587 11.6187 7.60254 11.3969 7.41658 11.2847H7.83258L7.88042 11.6849H7.62836ZM7.55211 10.7629V10.6546H7.60632V10.7182H7.70212V10.6557H7.75633V10.7182H7.85147V10.6546H7.90634V10.7629C7.90634 10.79 7.87102 10.7925 7.86724 10.7925H7.86227H7.59131C7.58732 10.7926 7.55211 10.79 7.55211 10.7629ZM7.86087 11.0421H7.59995L7.60881 10.8291H7.85137L7.86087 11.0421ZM7.1481 10.5228V10.4144H7.20231V10.4794H7.29811V10.417H7.35232V10.4794H7.44746V10.4144H7.50232V10.5228C7.50232 10.5512 7.46701 10.5524 7.46323 10.5537H7.44617H7.19972H7.18709C7.18341 10.5537 7.1481 10.5525 7.1481 10.5228ZM7.45686 11.0408H7.19346L7.2035 10.5903H7.44617L7.45686 11.0408ZM6.74419 10.7629V10.6546H6.79711V10.7182H6.89291V10.6557H6.94842V10.7182H7.04356V10.6546H7.09766V10.7629C7.09766 10.79 7.063 10.7925 7.05922 10.7925H7.05673H6.78577H6.78448C6.7794 10.7926 6.74419 10.79 6.74419 10.7629ZM7.05295 11.0421H6.79074L6.7996 10.8291H7.04226L7.05295 11.0421ZM6.72778 11.1114C6.72778 11.0951 6.73912 11.0818 6.75489 11.078C6.75737 11.078 6.75996 11.0767 6.76245 11.0767H7.88927C7.90882 11.0767 7.92394 11.0938 7.92394 11.1114C7.92394 11.1296 7.90882 11.146 7.88927 11.146H6.76245C6.7416 11.148 6.72778 11.131 6.72778 11.1114ZM6.75489 11.2135C6.75489 11.1991 6.76245 11.1877 6.77379 11.1826H7.8761C7.88808 11.1889 7.89564 11.2009 7.89564 11.2135C7.89564 11.2331 7.88053 11.2482 7.86098 11.2482H6.78966C6.77001 11.2495 6.75489 11.2331 6.75489 11.2135ZM7.91379 11.7901H6.73653C6.71698 11.7901 6.70186 11.7738 6.70186 11.7554C6.70186 11.7378 6.71698 11.7208 6.73653 11.7208H7.91379C7.93269 11.7208 7.94845 11.7378 7.94845 11.7554C7.94845 11.7738 7.93269 11.7901 7.91379 11.7901Z" fill="black"/>
<path d="M7.84626 14.5718L7.32507 14.5693L6.80324 14.5718L6.74902 15.0287H7.32507H7.90166L7.84626 14.5718Z" fill="#F5E600"/>
<path d="M7.9131 15.0391H6.73584C6.71629 15.0391 6.70117 15.0543 6.70117 15.0745C6.70117 15.0921 6.71629 15.1098 6.73584 15.1098H7.9131C7.932 15.1098 7.94777 15.0908 7.94777 15.0745C7.94777 15.0543 7.932 15.0391 7.9131 15.0391Z" fill="#F5E600"/>
<path d="M7.87599 14.4995H6.77378C6.76244 14.5064 6.75488 14.5178 6.75488 14.5304C6.75488 14.5499 6.77 14.5657 6.78955 14.5657H7.86087C7.88041 14.5657 7.89553 14.5488 7.89553 14.5304C7.89553 14.5178 7.88797 14.5064 7.87599 14.4995Z" fill="#F5E600"/>
<path d="M7.92336 14.0841C7.92336 14.0361 7.92336 13.9536 7.92336 13.9536H7.83448V14.0192H7.77389V13.9562H7.72854H7.68318V14.0192H7.62259V13.9536H7.53382V14.0841L7.58933 14.1332L7.57864 14.3935H7.4728L7.46276 13.8969C7.46276 13.8969 7.51816 13.8956 7.51816 13.8465C7.51816 13.7973 7.51816 13.7148 7.51816 13.7148H7.42939V13.7822H7.3688V13.7161H7.32345H7.27809V13.7822H7.21761V13.7148H7.12873V13.8465C7.12873 13.8969 7.18543 13.8969 7.18543 13.8969L7.17344 14.3935H7.0676L7.05745 14.1357C7.05745 14.1357 7.11296 14.1332 7.11296 14.0853C7.11296 14.0373 7.11296 13.9535 7.11296 13.9535H7.02408V14.0204H6.96296V13.9561H6.91814H6.87278V14.0204H6.8123V13.9535H6.72461V14.0853C6.72461 14.1344 6.78012 14.1357 6.78012 14.1357L6.76943 14.3935H6.75938C6.73984 14.3935 6.72472 14.4105 6.72472 14.4288C6.72472 14.4464 6.73984 14.4634 6.75938 14.4634H7.8874C7.90695 14.4634 7.92206 14.4464 7.92206 14.4288C7.92206 14.4105 7.905 14.3935 7.8874 14.3935H7.8766L7.86537 14.1332C7.86655 14.1332 7.92336 14.132 7.92336 14.0841Z" fill="#F5E600"/>
<path d="M6.89587 14.2172C6.90084 14.2003 6.90851 14.1914 6.92168 14.1914C6.93432 14.1914 6.94242 14.2003 6.94749 14.2172C6.95127 14.2299 6.95127 14.243 6.95127 14.243V14.3099H6.89328V14.243C6.89209 14.2418 6.89209 14.2287 6.89587 14.2172Z" fill="black"/>
<path d="M7.70446 14.2172C7.70954 14.2003 7.71894 14.1914 7.73027 14.1914C7.74161 14.1914 7.75101 14.2003 7.75609 14.2172C7.75987 14.2299 7.75987 14.243 7.75987 14.243V14.3099H7.70187V14.243C7.70068 14.2418 7.70068 14.2287 7.70446 14.2172Z" fill="black"/>
<path d="M7.30024 14.062C7.30521 14.0424 7.31277 14.0337 7.32605 14.0337C7.33858 14.0337 7.34679 14.0437 7.35186 14.062C7.35564 14.0778 7.35564 14.0916 7.35564 14.0916V14.1729H7.29765V14.0916C7.29635 14.0929 7.29635 14.0778 7.30024 14.062Z" fill="black"/>
<path d="M7.91638 15.0038L7.86713 14.6005C7.9031 14.5967 7.9301 14.5683 7.9301 14.5305C7.9301 14.5154 7.92632 14.5034 7.91876 14.492C7.94338 14.48 7.9585 14.4574 7.9585 14.4291C7.9585 14.3926 7.93139 14.3616 7.89554 14.3592L7.88668 14.1424C7.91249 14.1374 7.94219 14.119 7.94219 14.0794V13.9357H7.8167V14.0006H7.79089V13.937H7.66615V14.0006H7.64034V13.9357H7.51626V14.0794C7.51626 14.1191 7.54585 14.1374 7.57166 14.1424L7.5628 14.3579H7.49034L7.48029 13.9035C7.5061 13.8984 7.5357 13.8801 7.5357 13.8405V13.6968H7.41161V13.7617H7.3858V13.6987H7.26031V13.7617H7.23514V13.6968H7.11354V13.8405C7.11354 13.8803 7.14443 13.8985 7.16905 13.9035L7.1589 14.3579H7.08773L7.07887 14.1424C7.10469 14.1374 7.13428 14.119 7.13428 14.0794V13.9357H7.01019V14.0006H6.98438V13.937H6.85835V14.0006H6.83243V13.9357H6.70823V14.0794C6.70823 14.1191 6.73782 14.1374 6.76234 14.1424L6.75348 14.3592C6.71698 14.3617 6.68987 14.3913 6.68987 14.4291C6.68987 14.4562 6.70564 14.4802 6.72897 14.492C6.72076 14.5034 6.71698 14.5167 6.71698 14.5305C6.71698 14.567 6.74409 14.5967 6.78059 14.6005L6.73275 15.0038C6.69484 15.0038 6.66406 15.0328 6.66406 15.0744C6.66406 15.1122 6.69495 15.145 6.73534 15.145H7.91249C7.95094 15.145 7.98301 15.1121 7.98301 15.0744C7.98442 15.0339 7.95342 15.0038 7.91638 15.0038ZM7.33148 14.6867L7.32521 14.6843L7.31884 14.6867C7.15879 14.7504 7.14054 14.9407 7.13795 15.0038H7.05663C7.05911 14.9357 7.08503 14.688 7.31312 14.6029H7.33644C7.56777 14.6893 7.59099 14.9332 7.59358 15.0038H7.51226C7.50988 14.9407 7.49034 14.7504 7.33148 14.6867ZM7.4777 15.0038H7.17391C7.17639 14.9483 7.19475 14.7789 7.32521 14.7221C7.45567 14.7788 7.47457 14.9483 7.4777 15.0038ZM7.2332 14.6016C7.04604 14.7139 7.02455 14.9382 7.02207 15.0038H6.77001L6.81785 14.6016H7.2332ZM7.62836 15.0038C7.62587 14.9383 7.60254 14.7139 7.41658 14.6016H7.83258L7.88042 15.0038H7.62836ZM7.55211 14.0805V13.9722H7.60632V14.0364H7.70212V13.9746H7.75633V14.0364H7.85147V13.9722H7.90634V14.0805C7.90634 14.1076 7.87102 14.1101 7.86724 14.1101H7.86227H7.59131C7.58732 14.1114 7.55211 14.1089 7.55211 14.0805ZM7.86087 14.3591H7.59995L7.60881 14.146H7.85137L7.86087 14.3591ZM7.1481 13.8429V13.7345H7.20231V13.7987H7.29811V13.7358H7.35232V13.7987H7.44746V13.7345H7.50232V13.8429C7.50232 13.87 7.46701 13.8725 7.46323 13.8725L7.44617 13.8738H7.19972L7.18709 13.8725C7.18341 13.8725 7.1481 13.87 7.1481 13.8429ZM7.45686 14.3578H7.19346L7.2035 13.9084H7.44617L7.45686 14.3578ZM6.74419 14.0805V13.9722H6.79711V14.0364H6.89291V13.9746H6.94842V14.0364H7.04356V13.9722H7.09766V14.0805C7.09766 14.1076 7.063 14.1101 7.05922 14.1101H7.05673H6.78577H6.78448C6.7794 14.1114 6.74419 14.1089 6.74419 14.0805ZM7.05295 14.3591H6.79074L6.7996 14.146H7.04226L7.05295 14.3591ZM6.72778 14.4303C6.72778 14.4132 6.73912 14.4019 6.75489 14.3962C6.75737 14.3962 6.75996 14.395 6.76245 14.395H7.88927C7.90882 14.395 7.92394 14.412 7.92394 14.4303C7.92394 14.4479 7.90882 14.4649 7.88927 14.4649H6.76245C6.7416 14.4649 6.72778 14.4479 6.72778 14.4303ZM6.75489 14.5317C6.75489 14.5178 6.76245 14.5065 6.77379 14.5008H7.8761C7.88808 14.5077 7.89564 14.519 7.89564 14.5317C7.89564 14.5512 7.88053 14.567 7.86098 14.567H6.78966C6.77001 14.567 6.75489 14.5499 6.75489 14.5317ZM7.91379 15.1096H6.73653C6.71698 15.1096 6.70186 15.0919 6.70186 15.0756C6.70186 15.0542 6.71698 15.0402 6.73653 15.0402H7.91379C7.93269 15.0402 7.94845 15.0567 7.94845 15.0756C7.94845 15.0919 7.93269 15.1096 7.91379 15.1096Z" fill="black"/>
<path d="M8.56487 17.6885L8.19434 18.054L7.82812 18.4246L8.11172 18.7875L8.51822 18.3792L8.92601 17.9734L8.56487 17.6885Z" fill="#F5E600"/>
<path d="M8.94252 17.9708L8.10998 18.8027C8.09615 18.8152 8.09615 18.8379 8.10998 18.8531C8.12445 18.8656 8.14594 18.8656 8.16041 18.8531L8.99295 18.0212C9.00677 18.0061 9.00677 17.9834 8.99295 17.9708C8.97837 17.9557 8.95699 17.9557 8.94252 17.9708Z" fill="#F5E600"/>
<path d="M8.53513 17.6152L7.75561 18.3966C7.75183 18.4067 7.75432 18.4218 7.76317 18.4306C7.77635 18.4445 7.79968 18.4445 7.81361 18.4306L8.56979 17.6719C8.58437 17.6593 8.58437 17.6379 8.56979 17.6241C8.56223 17.6152 8.54765 17.6126 8.53513 17.6152Z" fill="#F5E600"/>
<path d="M8.27445 17.2876C8.24097 17.2548 8.18427 17.1968 8.18427 17.1968L8.12066 17.2598L8.16732 17.3052L8.12379 17.348L8.07844 17.3026L8.04625 17.3354L8.01353 17.3683L8.05889 17.4136L8.01666 17.4552L7.97001 17.4074L7.90823 17.4717C7.90823 17.4717 7.96493 17.5296 7.9996 17.5611C8.03297 17.5952 8.07455 17.5587 8.07455 17.5587L8.25231 17.7491L8.17801 17.8234L7.81881 17.4792C7.81881 17.4792 7.85791 17.4402 7.82259 17.4036C7.78793 17.3709 7.72993 17.3104 7.72993 17.3104L7.66697 17.3733L7.71427 17.4213L7.67205 17.4641L7.62539 17.4187L7.59451 17.4488L7.56243 17.4817L7.60844 17.527L7.56621 17.5687L7.51826 17.5246L7.45649 17.5851C7.45649 17.5851 7.51448 17.6457 7.54915 17.6772C7.58381 17.7124 7.6241 17.6748 7.6241 17.6748L7.96882 18.0326L7.89376 18.1082L7.70412 17.9318C7.70412 17.9318 7.74257 17.8914 7.7079 17.8549C7.67324 17.8234 7.61524 17.7654 7.61524 17.7654L7.55282 17.8259L7.60066 17.8738L7.55725 17.9154L7.51189 17.8713L7.47982 17.9028L7.44828 17.9331L7.49364 17.9784L7.45141 18.0212L7.40476 17.9758L7.3418 18.0389C7.3418 18.0389 7.39979 18.0968 7.43446 18.1296C7.46912 18.1636 7.50941 18.1271 7.50941 18.1271L7.68468 18.3149L7.67712 18.3224C7.66449 18.3388 7.66449 18.3603 7.67712 18.3728C7.68976 18.3892 7.71309 18.3892 7.72626 18.3728L8.52349 17.5777C8.53677 17.5637 8.53677 17.5424 8.52349 17.5271C8.50966 17.5133 8.48752 17.5133 8.4737 17.5271L8.46549 17.5347L8.27456 17.3569C8.27067 17.3633 8.30782 17.3229 8.27445 17.2876Z" fill="#F5E600"/>
<path d="M7.64287 18.1093C7.63467 18.0941 7.63467 18.0816 7.64287 18.074C7.65173 18.0639 7.66307 18.0639 7.67884 18.074C7.69018 18.0791 7.69957 18.088 7.69957 18.0904L7.74752 18.1345L7.70594 18.1773L7.6581 18.1294C7.6567 18.1294 7.64914 18.1194 7.64287 18.1093Z" fill="black"/>
<path d="M8.21368 17.5375C8.20612 17.5224 8.20612 17.5097 8.21368 17.5022C8.22124 17.4947 8.23452 17.4947 8.24834 17.5022C8.26033 17.5072 8.26908 17.5174 8.26908 17.5174L8.31692 17.5652L8.27534 17.6055L8.22739 17.5577C8.22761 17.5577 8.21875 17.55 8.21368 17.5375Z" fill="black"/>
<path d="M7.81917 17.7161C7.80913 17.6985 7.80784 17.6833 7.8154 17.6758C7.82425 17.6682 7.83753 17.6682 7.85449 17.6783C7.86713 17.6857 7.87846 17.6985 7.87846 17.6985L7.93581 17.754L7.89423 17.7968L7.83753 17.7388C7.83743 17.7388 7.82727 17.7287 7.81917 17.7161Z" fill="black"/>
<path d="M8.91926 17.9431L8.60165 17.6935C8.62498 17.667 8.62368 17.6255 8.59787 17.6014C8.58782 17.5901 8.57584 17.5825 8.5632 17.58C8.57076 17.5548 8.56569 17.5271 8.54614 17.5069C8.52033 17.4817 8.4794 17.4817 8.45229 17.5044L8.29343 17.3582C8.30725 17.3355 8.31676 17.3027 8.28835 17.2724L8.1863 17.1729L8.09871 17.2599L8.14353 17.3053L8.12582 17.3229L8.08176 17.2788L7.99288 17.3683L8.03629 17.4111L8.01869 17.4287L7.97333 17.3833L7.88575 17.4716L7.9878 17.5724C8.0162 17.6026 8.04957 17.5926 8.07161 17.5799L8.21718 17.7387L8.16675 17.7892L7.83909 17.4742C7.85356 17.4539 7.86242 17.4186 7.83402 17.3922L7.73196 17.2888L7.64437 17.3758L7.68909 17.4212L7.67137 17.4401L7.62731 17.3973L7.53843 17.4843L7.58195 17.5271L7.56424 17.5486L7.51888 17.5031L7.4313 17.5875L7.53336 17.6909C7.56176 17.7186 7.59513 17.7098 7.61716 17.696L7.93035 18.0236L7.87927 18.0741L7.72051 17.9291C7.73315 17.9077 7.74319 17.8736 7.71479 17.8472L7.61338 17.7463L7.52644 17.8307L7.5718 17.8761L7.55355 17.8975L7.51003 17.8521L7.4205 17.9391L7.46467 17.9845L7.44642 18.0034L7.40171 17.9581L7.31348 18.045L7.41553 18.1459C7.44394 18.1723 7.47795 18.1673 7.49934 18.1509L7.64556 18.3098C7.62224 18.3363 7.62353 18.3816 7.64934 18.4043C7.66889 18.4257 7.69718 18.4308 7.72181 18.4232C7.72429 18.4371 7.73066 18.4498 7.74071 18.4572C7.76652 18.4837 7.80691 18.4837 7.8352 18.4636L8.08532 18.78C8.05951 18.8078 8.05951 18.8518 8.08662 18.8758C8.11372 18.9035 8.15908 18.9035 8.18619 18.8758L9.01873 18.0439C9.04583 18.0162 9.04583 17.9734 9.01873 17.9456C8.99043 17.9178 8.94626 17.9178 8.91926 17.9431ZM8.28274 18.1322L8.27647 18.1372L8.27399 18.1423C8.20595 18.2985 8.3282 18.4499 8.36978 18.4926L8.31179 18.5506C8.26513 18.5002 8.11005 18.3073 8.20973 18.0868L8.22615 18.0691C8.4511 17.9682 8.64204 18.1246 8.69118 18.17L8.63318 18.2279C8.58901 18.1876 8.4403 18.064 8.28274 18.1322ZM8.60986 18.2531L8.39559 18.4674C8.35779 18.427 8.25196 18.296 8.30358 18.1624C8.43652 18.112 8.56817 18.2178 8.60986 18.2531ZM8.15411 18.1423C8.1012 18.354 8.243 18.5278 8.28835 18.5759L8.11005 18.7548L7.86112 18.4372L8.15411 18.1423ZM8.71688 18.1472C8.66904 18.1018 8.4957 17.9606 8.28457 18.0136L8.57821 17.7175L8.89464 17.9657L8.71688 18.1472ZM8.01048 17.5474L7.93359 17.4718L7.97074 17.4339L8.0161 17.4792L8.08413 17.4112L8.04072 17.3684L8.07917 17.328L8.12334 17.3734L8.19008 17.3054L8.14472 17.26L8.18252 17.2221L8.25876 17.2977C8.27896 17.318 8.25628 17.3455 8.25304 17.3481L8.24926 17.3506L8.05821 17.5422C8.05584 17.5474 8.03003 17.5675 8.01048 17.5474ZM8.42518 17.5271L8.24051 17.7149L8.09623 17.556L8.26762 17.3846L8.42518 17.5271ZM7.55614 17.6657L7.47925 17.5875L7.5164 17.5522L7.56176 17.5951L7.62861 17.527L7.58509 17.4842L7.62353 17.4463L7.6677 17.4892L7.73574 17.4211L7.69038 17.3757L7.72818 17.3379L7.80572 17.4161C7.82646 17.4362 7.80324 17.4614 7.79881 17.4639L7.78747 17.4764L7.61349 17.6504L7.60409 17.6616C7.6015 17.6632 7.57558 17.6859 7.55614 17.6657ZM8.13835 17.812L7.95249 17.9986L7.64178 17.6734L7.81317 17.5019L8.13835 17.812ZM7.43886 18.1195L7.36132 18.0439L7.39912 18.0061L7.44383 18.0515L7.51251 17.9834L7.46834 17.938L7.50744 17.9002L7.55096 17.9429L7.61964 17.8749L7.57429 17.8296L7.61208 17.7942L7.68898 17.8711C7.70982 17.8913 7.68649 17.9152 7.68401 17.9178L7.68271 17.9203L7.49048 18.1119L7.48919 18.1142C7.48551 18.1169 7.4597 18.1397 7.43886 18.1195ZM7.85291 18.0993L7.66889 18.2833L7.52396 18.1271L7.696 17.9557L7.85291 18.0993ZM7.67397 18.3791C7.66198 18.3666 7.66079 18.3489 7.67019 18.3364C7.67137 18.3339 7.67267 18.3313 7.67397 18.3288L8.47184 17.5323C8.48447 17.5197 8.5078 17.5197 8.52162 17.5323C8.53491 17.5487 8.53491 17.5702 8.52162 17.5827L7.7244 18.3792C7.70863 18.3944 7.6866 18.3944 7.67397 18.3791ZM7.76533 18.432C7.75647 18.422 7.75399 18.4069 7.75777 18.3968L8.53728 17.6166C8.54992 17.6141 8.56439 17.6166 8.57325 17.6279C8.58772 17.6405 8.58772 17.6618 8.57325 17.6746L7.81706 18.4345C7.80183 18.4447 7.77851 18.4447 7.76533 18.432ZM8.99302 18.0211L8.16049 18.853C8.14601 18.8655 8.12452 18.8655 8.11005 18.853C8.09623 18.8378 8.09623 18.8151 8.11005 18.8026L8.94259 17.9707C8.95706 17.9556 8.97855 17.9556 8.99302 17.9707C9.00555 17.9834 9.00555 18.0061 8.99302 18.0211Z" fill="black"/>
<path d="M14.4236 11.2551L13.9006 11.252L13.3794 11.2551L13.3252 11.7107H13.9006H14.4778L14.4236 11.2551Z" fill="#F5E600"/>
<path d="M14.4893 11.7197H13.3127C13.2931 11.7197 13.2773 11.7361 13.2773 11.7544C13.2773 11.7726 13.2931 11.7891 13.3127 11.7891H14.4893C14.5088 11.7891 14.5246 11.7726 14.5246 11.7544C14.5246 11.7361 14.5088 11.7197 14.4893 11.7197Z" fill="#F5E600"/>
<path d="M14.4529 11.1826H13.3506C13.3393 11.1889 13.3311 11.2009 13.3311 11.2135C13.3311 11.2331 13.3468 11.2482 13.3664 11.2482H14.4371C14.4579 11.2482 14.4725 11.2318 14.4725 11.2135C14.4725 11.2009 14.4643 11.1889 14.4529 11.1826Z" fill="#F5E600"/>
<path d="M14.5015 10.7656C14.5015 10.7183 14.5015 10.637 14.5015 10.637H14.412V10.7026H14.3514V10.6383H14.306H14.2613V10.7026H14.2007V10.637H14.1125V10.7656C14.1125 10.8135 14.168 10.816 14.168 10.816L14.158 11.0769H14.0521L14.0408 10.5784C14.0408 10.5784 14.0975 10.5771 14.0975 10.5299C14.0975 10.4807 14.0975 10.397 14.0975 10.397H14.008V10.4638H13.9475V10.3996H13.9028H13.8586V10.4638H13.7968V10.397H13.7086V10.5299C13.7086 10.5772 13.764 10.5784 13.764 10.5784L13.7539 11.0769H13.6481L13.6381 10.8185C13.6381 10.8185 13.6936 10.816 13.6936 10.768C13.6936 10.7195 13.6936 10.6369 13.6936 10.6369H13.6041V10.7025H13.5436V10.6382H13.4982H13.4534V10.7025H13.3929V10.6369H13.3047V10.768C13.3047 10.8159 13.3602 10.8185 13.3602 10.8185L13.35 11.0769H13.34C13.3205 11.0769 13.3047 11.094 13.3047 11.1116C13.3047 11.1298 13.3205 11.1462 13.34 11.1462H14.4668C14.4857 11.1462 14.5015 11.1298 14.5015 11.1116C14.5015 11.094 14.4857 11.0769 14.4668 11.0769H14.456L14.446 10.816C14.4447 10.816 14.5015 10.8135 14.5015 10.7656Z" fill="#F5E600"/>
<path d="M13.4727 10.8984C13.4776 10.8807 13.4853 10.8726 13.4978 10.8726C13.5111 10.8726 13.5187 10.8808 13.5236 10.8984C13.5281 10.9117 13.5281 10.9242 13.5281 10.9242V10.9917H13.4694V10.9242C13.4682 10.9243 13.4682 10.9117 13.4727 10.8984Z" fill="black"/>
<path d="M14.2803 10.8984C14.2854 10.8807 14.2929 10.8726 14.3054 10.8726C14.3174 10.8726 14.3262 10.8808 14.3313 10.8984C14.3357 10.9117 14.3357 10.9242 14.3357 10.9242V10.9917H14.277V10.9242C14.2759 10.9243 14.2759 10.9117 14.2803 10.8984Z" fill="black"/>
<path d="M13.8769 10.7452C13.8819 10.7244 13.8908 10.7168 13.9027 10.7168C13.9141 10.7168 13.9229 10.7257 13.9279 10.7452C13.9323 10.7603 13.9323 10.7748 13.9323 10.7748V10.8561H13.8738V10.7748C13.8725 10.7761 13.8725 10.7603 13.8769 10.7452Z" fill="black"/>
<path d="M14.4916 11.6862L14.4443 11.2835C14.479 11.2797 14.5073 11.2495 14.5073 11.2135C14.5073 11.1978 14.5035 11.1864 14.4959 11.1751C14.5186 11.1631 14.5357 11.1398 14.5357 11.1115C14.5357 11.0755 14.5073 11.0447 14.4727 11.0421L14.4633 10.8253C14.4891 10.8197 14.5188 10.802 14.5188 10.7617V10.6186H14.3953V10.6817H14.3695V10.6199H14.2441V10.6817H14.2183V10.6186H14.0947V10.7617C14.0947 10.802 14.1243 10.8197 14.1502 10.8253L14.1408 11.0408H14.0702L14.0583 10.5864C14.0841 10.5801 14.115 10.5618 14.115 10.5215V10.3784H13.9903V10.4427H13.9645V10.3809H13.8378V10.4427H13.812V10.3784H13.6884V10.5215C13.6884 10.5619 13.718 10.5801 13.7439 10.5864L13.7332 11.0408H13.6626L13.6532 10.8253C13.679 10.8197 13.7087 10.802 13.7087 10.7617V10.6186H13.5852V10.6817H13.5594V10.6199H13.434V10.6817H13.4082V10.6186H13.2841V10.7617C13.2841 10.802 13.3143 10.8197 13.3401 10.8253L13.3307 11.0421C13.2948 11.0446 13.2678 11.0742 13.2678 11.1115C13.2678 11.1386 13.2829 11.1632 13.3075 11.1751C13.3 11.1864 13.2962 11.1991 13.2962 11.2135C13.2962 11.2482 13.3233 11.2797 13.3592 11.2835L13.3118 11.6862C13.2739 11.6862 13.2432 11.7171 13.2432 11.7555C13.2432 11.7946 13.2752 11.8267 13.3143 11.8267H14.4909C14.53 11.8267 14.5621 11.7958 14.5621 11.7555C14.5603 11.717 14.5307 11.6862 14.4916 11.6862ZM13.9086 11.3698L13.9017 11.366L13.8953 11.3698C13.7365 11.4328 13.7176 11.6238 13.7145 11.6849H13.6331C13.6363 11.6162 13.6602 11.3711 13.8903 11.2847H13.9136C14.1461 11.3698 14.1688 11.6161 14.1701 11.6849H14.0888C14.0864 11.6238 14.0675 11.4316 13.9086 11.3698ZM14.0517 11.6849H13.7499C13.7524 11.6301 13.7706 11.4612 13.9005 11.4045C14.0323 11.4612 14.0504 11.6307 14.0517 11.6849ZM13.8092 11.2847C13.622 11.3969 13.5999 11.6187 13.5974 11.6849H13.346L13.3938 11.2847H13.8092ZM14.2055 11.6849C14.203 11.6187 14.1797 11.3969 13.9937 11.2847H14.4091L14.4569 11.6849H14.2055ZM14.1293 10.7629V10.6546H14.1822V10.7182H14.2792V10.6557H14.3334V10.7182H14.4285V10.6546H14.4827V10.7629C14.4827 10.79 14.4481 10.7925 14.4431 10.7925H14.4387H14.1677C14.1626 10.7926 14.1293 10.79 14.1293 10.7629ZM14.4362 11.0421H14.1746L14.1822 10.8291H14.426L14.4362 11.0421ZM13.7253 10.5228V10.4144H13.7782V10.4794H13.8733V10.417H13.9288V10.4794H14.0246V10.4144H14.0788V10.5228C14.0788 10.5512 14.0442 10.5524 14.0391 10.5537H14.0233H13.7769H13.7636C13.7587 10.5537 13.7253 10.5525 13.7253 10.5228ZM14.0335 11.0408H13.7707L13.7808 10.5903H14.0234L14.0335 11.0408ZM13.3214 10.7629V10.6546H13.3743V10.7182H13.4707V10.6557H13.5249V10.7182H13.6207V10.6546H13.6748V10.7629C13.6748 10.79 13.6402 10.7925 13.6364 10.7925H13.6339H13.3623H13.361C13.3547 10.7926 13.3214 10.79 13.3214 10.7629ZM13.6283 11.0421H13.3667L13.3756 10.8291H13.6182L13.6283 11.0421ZM13.3031 11.1114C13.3031 11.0951 13.3151 11.0818 13.3302 11.078C13.3327 11.078 13.3353 11.0767 13.3378 11.0767H14.4646C14.4841 11.0767 14.4999 11.0938 14.4999 11.1114C14.4999 11.1296 14.4841 11.146 14.4646 11.146H13.3378C13.3189 11.148 13.3031 11.131 13.3031 11.1114ZM13.3302 11.2135C13.3302 11.1991 13.3378 11.1877 13.3498 11.1826H14.4521C14.4634 11.1889 14.4716 11.2009 14.4716 11.2135C14.4716 11.2331 14.4558 11.2482 14.4363 11.2482H13.3655C13.3472 11.2495 13.3302 11.2331 13.3302 11.2135ZM14.4891 11.7901H13.3125C13.293 11.7901 13.2772 11.7738 13.2772 11.7554C13.2772 11.7378 13.293 11.7208 13.3125 11.7208H14.4891C14.5087 11.7208 14.5244 11.7378 14.5244 11.7554C14.5244 11.7738 14.5087 11.7901 14.4891 11.7901Z" fill="black"/>
<path d="M14.4236 14.5718L13.9006 14.5693L13.3794 14.5718L13.3252 15.0287H13.9006H14.4778L14.4236 14.5718Z" fill="#F5E600"/>
<path d="M14.4893 15.0391H13.3127C13.2931 15.0391 13.2773 15.0543 13.2773 15.0745C13.2773 15.0921 13.2931 15.1098 13.3127 15.1098H14.4893C14.5088 15.1098 14.5246 15.0908 14.5246 15.0745C14.5258 15.0543 14.5088 15.0391 14.4893 15.0391Z" fill="#F5E600"/>
<path d="M14.4529 14.4995H13.3506C13.3393 14.5064 13.3311 14.5178 13.3311 14.5304C13.3311 14.5499 13.3468 14.5657 13.3664 14.5657H14.4371C14.4579 14.5657 14.4725 14.5488 14.4725 14.5304C14.4725 14.5178 14.4643 14.5064 14.4529 14.4995Z" fill="#F5E600"/>
<path d="M14.5015 14.0841C14.5015 14.0361 14.5015 13.9536 14.5015 13.9536H14.412V14.0192H14.3514V13.9562H14.306H14.2613V14.0192H14.2007V13.9536H14.1125V14.0841L14.168 14.1332L14.158 14.3935H14.0521L14.0408 13.8969C14.0408 13.8969 14.0975 13.8956 14.0975 13.8465C14.0975 13.7973 14.0975 13.7148 14.0975 13.7148H14.008V13.7822H13.9475V13.7161H13.9028H13.8586V13.7822H13.7968V13.7148H13.7086V13.8465C13.7086 13.8969 13.764 13.8969 13.764 13.8969L13.7539 14.3935H13.6481L13.6381 14.1357C13.6381 14.1357 13.6936 14.1332 13.6936 14.0853C13.6936 14.0373 13.6936 13.9535 13.6936 13.9535H13.6041V14.0204H13.5436V13.9561H13.4982H13.4534V14.0204H13.3929V13.9535H13.3047V14.0853C13.3047 14.1344 13.3602 14.1357 13.3602 14.1357L13.35 14.3935H13.34C13.3205 14.3935 13.3047 14.4105 13.3047 14.4288C13.3047 14.4464 13.3205 14.4634 13.34 14.4634H14.4668C14.4857 14.4634 14.5015 14.4464 14.5015 14.4288C14.5015 14.4105 14.4857 14.3935 14.4668 14.3935H14.456L14.446 14.1332C14.4447 14.1332 14.5015 14.132 14.5015 14.0841Z" fill="#F5E600"/>
<path d="M13.4727 14.2172C13.4776 14.2003 13.4853 14.1914 13.4978 14.1914C13.5111 14.1914 13.5187 14.2003 13.5236 14.2172C13.5281 14.2299 13.5281 14.243 13.5281 14.243V14.3099H13.4694V14.243C13.4682 14.2418 13.4682 14.2287 13.4727 14.2172Z" fill="black"/>
<path d="M14.2803 14.2172C14.2854 14.2003 14.2929 14.1914 14.3054 14.1914C14.3174 14.1914 14.3262 14.2003 14.3313 14.2172C14.3357 14.2299 14.3357 14.243 14.3357 14.243V14.3099H14.277V14.243C14.2759 14.2418 14.2759 14.2287 14.2803 14.2172Z" fill="black"/>
<path d="M13.8769 14.062C13.8819 14.0424 13.8908 14.0337 13.9027 14.0337C13.9141 14.0337 13.9229 14.0437 13.9279 14.062C13.9323 14.0778 13.9323 14.0916 13.9323 14.0916V14.1729H13.8738V14.0916C13.8725 14.0929 13.8725 14.0778 13.8769 14.062Z" fill="black"/>
<path d="M14.4916 15.0038L14.4443 14.6005C14.479 14.5967 14.5073 14.5683 14.5073 14.5305C14.5073 14.5154 14.5035 14.5034 14.4959 14.492C14.5186 14.48 14.5357 14.4574 14.5357 14.4291C14.5357 14.3926 14.5073 14.3616 14.4727 14.3592L14.4633 14.1424C14.4891 14.1374 14.5188 14.119 14.5188 14.0794V13.9357H14.3953V14.0006H14.3695V13.937H14.2441V14.0006H14.2183V13.9357H14.0947V14.0794C14.0947 14.1191 14.1243 14.1374 14.1502 14.1424L14.1408 14.3579H14.0702L14.0583 13.9035C14.0841 13.8984 14.115 13.8801 14.115 13.8405V13.6968H13.9903V13.7617H13.9645V13.6987H13.8378V13.7617H13.812V13.6968H13.6884V13.8405C13.6884 13.8803 13.718 13.8985 13.7439 13.9035L13.7332 14.3579H13.6626L13.6532 14.1424C13.679 14.1374 13.7087 14.119 13.7087 14.0794V13.9357H13.5852V14.0006H13.5594V13.937H13.434V14.0006H13.4082V13.9357H13.2841V14.0794C13.2841 14.1191 13.3143 14.1374 13.3401 14.1424L13.3307 14.3592C13.2948 14.3617 13.2678 14.3913 13.2678 14.4291C13.2678 14.4562 13.2829 14.4802 13.3075 14.492C13.3 14.5034 13.2962 14.5167 13.2962 14.5305C13.2962 14.567 13.3233 14.5967 13.3592 14.6005L13.3118 15.0038C13.2739 15.0038 13.2432 15.0328 13.2432 15.0744C13.2432 15.1122 13.2752 15.145 13.3143 15.145H14.4909C14.53 15.145 14.5621 15.1121 14.5621 15.0744C14.5603 15.0339 14.5307 15.0038 14.4916 15.0038ZM13.9086 14.6867L13.9017 14.6843L13.8953 14.6867C13.7365 14.7504 13.7176 14.9407 13.7145 15.0038H13.6331C13.6363 14.9357 13.6602 14.688 13.8903 14.6029H13.9136C14.1461 14.6893 14.1688 14.9332 14.1701 15.0038H14.0888C14.0864 14.9407 14.0675 14.7504 13.9086 14.6867ZM14.0517 15.0038H13.7499C13.7524 14.9483 13.7706 14.7789 13.9005 14.7221C14.0323 14.7788 14.0504 14.9483 14.0517 15.0038ZM13.8092 14.6016C13.622 14.7139 13.5999 14.9382 13.5974 15.0038H13.346L13.3938 14.6016H13.8092ZM14.2055 15.0038C14.203 14.9383 14.1797 14.7139 13.9937 14.6016H14.4091L14.4569 15.0038H14.2055ZM14.1293 14.0805V13.9722H14.1822V14.0364H14.2792V13.9746H14.3334V14.0364H14.4285V13.9722H14.4827V14.0805C14.4827 14.1076 14.4481 14.1101 14.4431 14.1101H14.4387H14.1677C14.1626 14.1114 14.1293 14.1089 14.1293 14.0805ZM14.4362 14.3591H14.1746L14.1822 14.146H14.426L14.4362 14.3591ZM13.7253 13.8429V13.7345H13.7782V13.7987H13.8733V13.7358H13.9288V13.7987H14.0246V13.7345H14.0788V13.8429C14.0788 13.87 14.0442 13.8725 14.0391 13.8725L14.0233 13.8738H13.7769L13.7636 13.8725C13.7587 13.8725 13.7253 13.87 13.7253 13.8429ZM14.0335 14.3578H13.7707L13.7808 13.9084H14.0234L14.0335 14.3578ZM13.3214 14.0805V13.9722H13.3743V14.0364H13.4707V13.9746H13.5249V14.0364H13.6207V13.9722H13.6748V14.0805C13.6748 14.1076 13.6402 14.1101 13.6364 14.1101H13.6339H13.3623H13.361C13.3547 14.1114 13.3214 14.1089 13.3214 14.0805ZM13.6283 14.3591H13.3667L13.3756 14.146H13.6182L13.6283 14.3591ZM13.3031 14.4303C13.3031 14.4132 13.3151 14.4019 13.3302 14.3962C13.3327 14.3962 13.3353 14.395 13.3378 14.395H14.4646C14.4841 14.395 14.4999 14.412 14.4999 14.4303C14.4999 14.4479 14.4841 14.4649 14.4646 14.4649H13.3378C13.3189 14.4649 13.3031 14.4479 13.3031 14.4303ZM13.3302 14.5317C13.3302 14.5178 13.3378 14.5065 13.3498 14.5008H14.4521C14.4634 14.5077 14.4716 14.519 14.4716 14.5317C14.4716 14.5512 14.4558 14.567 14.4363 14.567H13.3655C13.3472 14.567 13.3302 14.5499 13.3302 14.5317ZM14.4891 15.1096H13.3125C13.293 15.1096 13.2772 15.0919 13.2772 15.0756C13.2772 15.0542 13.293 15.0402 13.3125 15.0402H14.4891C14.5087 15.0402 14.5244 15.0567 14.5244 15.0756C14.5256 15.0919 14.5087 15.1096 14.4891 15.1096Z" fill="black"/>
<path d="M13.3993 18.4246L13.0313 18.054L12.6606 17.6885L12.3008 17.9734L12.7073 18.3792L13.1151 18.7875L13.3993 18.4246Z" fill="#F5E600"/>
<path d="M13.116 18.8027L12.2835 17.9708C12.2709 17.9557 12.2476 17.9557 12.2331 17.9708C12.2192 17.9834 12.2192 18.0061 12.2331 18.0187L13.0655 18.8518C13.08 18.8656 13.102 18.8656 13.116 18.8518C13.1304 18.8379 13.1304 18.8152 13.116 18.8027Z" fill="#F5E600"/>
<path d="M13.4691 18.3971L12.6896 17.6156C12.6782 17.6132 12.6638 17.6156 12.6549 17.6258C12.6411 17.6383 12.6411 17.661 12.6549 17.6736L13.4112 18.4323C13.4257 18.4449 13.4477 18.4449 13.4616 18.4323C13.4722 18.4222 13.4748 18.4071 13.4691 18.3971Z" fill="#F5E600"/>
<path d="M13.7976 18.1347C13.8323 18.1018 13.889 18.0438 13.889 18.0438L13.8272 17.9809L13.7806 18.0262L13.7364 17.9835L13.7818 17.938L13.7509 17.9079L13.7188 17.8763L13.6735 17.9204L13.6294 17.8788L13.6772 17.8335L13.6143 17.7704C13.6143 17.7704 13.5563 17.8284 13.5223 17.8598C13.4889 17.8927 13.5267 17.9368 13.5267 17.9368L13.3351 18.1145L13.2608 18.0377L13.6049 17.6809C13.6049 17.6809 13.6453 17.7175 13.6798 17.6834C13.7151 17.6506 13.7731 17.5902 13.7731 17.5902L13.7094 17.5296L13.6634 17.575L13.6206 17.5322L13.6673 17.4868L13.6351 17.454L13.6036 17.4237L13.5576 17.4692L13.5148 17.4263L13.5626 17.3785L13.5009 17.3155C13.5009 17.3155 13.4422 17.376 13.4076 17.4087C13.3742 17.4441 13.4113 17.4843 13.4113 17.4843L13.0528 17.8285L12.9779 17.7542L13.1537 17.5638C13.1537 17.5638 13.1934 17.6016 13.228 17.5702C13.2633 17.5349 13.3213 17.4769 13.3213 17.4769L13.2595 17.4139L13.2129 17.4606L13.17 17.419L13.2153 17.3735L13.1833 17.3408L13.1511 17.308L13.1057 17.3533L13.0628 17.3106L13.1095 17.2652L13.0477 17.2021C13.0477 17.2021 12.9897 17.2601 12.9544 17.2953C12.921 17.3282 12.9582 17.3686 12.9582 17.3686L12.7673 17.5463L12.7597 17.5375C12.7472 17.5249 12.7237 17.5249 12.7106 17.5375C12.6967 17.5538 12.6967 17.5754 12.7106 17.5879L13.5071 18.3845C13.5198 18.3997 13.5431 18.3997 13.5563 18.3845C13.5702 18.3718 13.5702 18.3504 13.5563 18.334L13.5494 18.3289L13.7265 18.1362C13.7239 18.1296 13.7635 18.1699 13.7976 18.1347Z" fill="#F5E600"/>
<path d="M12.9781 17.5017C12.9939 17.4942 13.0052 17.4942 13.0128 17.5017C13.021 17.5092 13.021 17.522 13.0128 17.537C13.0077 17.5495 12.9989 17.5572 12.9989 17.5572L12.9511 17.605L12.9102 17.5648L12.9575 17.5169C12.9572 17.5168 12.9666 17.5068 12.9781 17.5017Z" fill="black"/>
<path d="M13.5495 18.074C13.5652 18.0639 13.5766 18.0639 13.5848 18.074C13.5924 18.0816 13.5924 18.0942 13.5848 18.1093C13.5779 18.1194 13.5703 18.1295 13.5703 18.1295L13.5224 18.1774L13.4814 18.1346L13.5293 18.0892C13.5293 18.0891 13.5381 18.0791 13.5495 18.074Z" fill="black"/>
<path d="M13.372 17.6784C13.3897 17.6682 13.4029 17.6682 13.4118 17.6759C13.42 17.6833 13.4187 17.6986 13.408 17.7162C13.4004 17.7288 13.3897 17.7388 13.3897 17.7388L13.3342 17.7968L13.292 17.7541L13.3487 17.6986C13.3487 17.6986 13.3587 17.6858 13.372 17.6784Z" fill="black"/>
<path d="M13.1434 18.7797L13.3924 18.4621C13.4201 18.4823 13.461 18.4823 13.4869 18.457C13.4969 18.4469 13.5026 18.4343 13.5064 18.4218C13.531 18.4292 13.5593 18.4242 13.5783 18.4041C13.6054 18.3789 13.6054 18.336 13.5828 18.3109L13.7283 18.1495C13.7505 18.1648 13.7838 18.1722 13.8121 18.1445L13.9143 18.0436L13.8267 17.9555L13.7814 18.0008L13.7631 17.9832L13.8073 17.9378L13.7184 17.8496L13.6742 17.895L13.656 17.8748L13.7 17.832L13.6138 17.7438L13.5117 17.8447C13.4833 17.8724 13.4922 17.9077 13.5066 17.9279L13.3479 18.0742L13.2974 18.0237L13.6113 17.6961C13.6327 17.7086 13.668 17.7188 13.6964 17.691L13.7984 17.5876L13.7102 17.5019L13.6668 17.5474L13.6472 17.5271L13.6926 17.4843L13.6031 17.3961L13.5595 17.4389L13.5413 17.4213L13.5866 17.3759L13.4984 17.2878L13.397 17.3911C13.3686 17.4189 13.3775 17.4541 13.3913 17.4744L13.0636 17.7894L13.0119 17.7389L13.1581 17.5801C13.1802 17.5927 13.2135 17.6028 13.2419 17.5726L13.344 17.4718L13.2557 17.3835L13.211 17.4289L13.1928 17.4113L13.237 17.3685L13.1474 17.2777L13.104 17.3231L13.0858 17.3055L13.1311 17.2601L13.0434 17.1719L12.9414 17.2727C12.913 17.303 12.9218 17.3358 12.9351 17.3585L12.7762 17.5034C12.7491 17.4794 12.7076 17.4794 12.6818 17.5059C12.6622 17.5273 12.6559 17.5537 12.6648 17.5802C12.6522 17.5827 12.639 17.5903 12.6301 17.6005C12.6043 17.6257 12.603 17.6659 12.6251 17.6937L12.3074 17.942C12.2803 17.9155 12.2368 17.9155 12.2097 17.9445C12.1827 17.9709 12.1827 18.0163 12.2097 18.0427L13.0421 18.8759C13.0686 18.9024 13.1141 18.9024 13.1424 18.8759C13.1692 18.8502 13.1692 18.8074 13.1434 18.7797ZM12.9537 18.142L12.9512 18.1369L12.9461 18.1318C12.7886 18.0637 12.6386 18.1873 12.5951 18.2276L12.5384 18.1696C12.5876 18.1243 12.7811 17.968 13.0029 18.0688L13.0187 18.0865C13.1214 18.3108 12.9645 18.4999 12.9178 18.5503L12.8598 18.4923C12.8995 18.4494 13.0224 18.2981 12.9537 18.142ZM12.8327 18.467L12.6185 18.2528C12.6594 18.2175 12.7912 18.1091 12.9228 18.1621C12.9757 18.2957 12.8699 18.4266 12.8327 18.467ZM12.9436 18.0132C12.7332 17.9603 12.5592 18.1015 12.5113 18.1481L12.333 17.9679L12.6506 17.7196L12.9436 18.0132ZM12.941 18.5755C12.9859 18.5275 13.127 18.3535 13.0753 18.1419L13.3683 18.4367L13.12 18.7543L12.941 18.5755ZM13.5385 17.8696L13.616 17.794L13.6532 17.8306L13.6084 17.8734L13.6764 17.9414L13.7206 17.8999L13.7602 17.9365L13.7148 17.9818L13.7835 18.0499L13.8289 18.0058L13.866 18.0423L13.7885 18.1192C13.7696 18.1395 13.7425 18.1167 13.7394 18.1141L13.7369 18.1117L13.5447 17.9176C13.5411 17.915 13.5177 17.8898 13.5385 17.8696ZM13.5593 18.283L13.3748 18.099L13.5322 17.9554L13.7036 18.1267L13.5593 18.283ZM13.4213 17.4159L13.4982 17.3378L13.536 17.3755L13.4906 17.421L13.5593 17.489L13.6028 17.4462L13.6419 17.4841L13.5978 17.5268L13.6665 17.595L13.7099 17.5495L13.7478 17.5874L13.6715 17.6656C13.6507 17.6858 13.6249 17.6631 13.6223 17.6605L13.6096 17.648L13.4338 17.4741L13.4263 17.464C13.4251 17.4613 13.4018 17.436 13.4213 17.4159ZM13.2738 17.9981L13.0879 17.8115L13.4131 17.5015L13.5851 17.673L13.2738 17.9981ZM12.9682 17.2974L13.0444 17.2218L13.0817 17.2597L13.0363 17.305L13.105 17.3731L13.1484 17.3277L13.1875 17.3681L13.1434 17.4109L13.2121 17.4789L13.2569 17.4335L13.2947 17.4714L13.2172 17.5495C13.1964 17.5672 13.1705 17.5446 13.1681 17.5421L13.1656 17.5396L12.9746 17.348C12.9707 17.3453 12.9474 17.3177 12.9682 17.2974ZM12.9871 17.7134L12.8017 17.5267L12.9587 17.3831L13.1307 17.5545L12.9871 17.7134ZM12.7072 17.5318C12.7186 17.5218 12.7356 17.5193 12.7501 17.5267C12.7526 17.5292 12.7552 17.5292 12.7565 17.5318L13.5524 18.3284C13.5669 18.3436 13.5669 18.365 13.5524 18.3788C13.5398 18.394 13.5164 18.394 13.5038 18.3788L12.7072 17.5822C12.6928 17.5697 12.6928 17.547 12.7072 17.5318ZM12.6556 17.6251C12.6645 17.615 12.6789 17.6125 12.6903 17.615L13.4698 18.3964C13.4742 18.4065 13.4711 18.4216 13.4622 18.4316C13.4496 18.4442 13.4263 18.4442 13.4118 18.4316L12.6555 17.6717C12.6418 17.6604 12.6418 17.6378 12.6556 17.6251ZM13.0671 18.8528L12.2346 18.0183C12.222 18.0058 12.222 17.9844 12.2346 17.9705C12.2491 17.9554 12.2712 17.9554 12.2851 17.9705L13.1175 18.8036C13.1308 18.8175 13.1308 18.8389 13.1175 18.8541C13.1037 18.8653 13.0817 18.8653 13.0671 18.8528Z" fill="black"/>
<path d="M10.0674 12.4956V13.284C10.0674 13.2853 10.0712 13.4327 10.1398 13.5769C10.2325 13.7692 10.3914 13.8687 10.6132 13.8687C10.835 13.8687 10.9938 13.7704 11.0871 13.5769C11.1551 13.434 11.1595 13.2851 11.1595 13.284V12.4956H10.0674ZM10.3175 12.6891C10.3768 12.6891 10.4259 12.737 10.4259 12.7974C10.4259 12.8566 10.3768 12.9058 10.3175 12.9058C10.2583 12.9058 10.2092 12.8566 10.2092 12.7974C10.2092 12.737 10.2583 12.6891 10.3175 12.6891ZM10.3175 13.4944C10.2583 13.4944 10.2092 13.4465 10.2092 13.386C10.2092 13.3268 10.2583 13.2777 10.3175 13.2777C10.3768 13.2777 10.4259 13.3268 10.4259 13.386C10.4259 13.4466 10.3781 13.4944 10.3175 13.4944ZM10.6131 13.2014C10.5538 13.2014 10.5047 13.1522 10.5047 13.093C10.5047 13.0325 10.5538 12.9846 10.6131 12.9846C10.6723 12.9846 10.7214 13.0325 10.7214 13.093C10.7215 13.151 10.6724 13.2014 10.6131 13.2014ZM10.9074 12.6891C10.9666 12.6891 11.0157 12.737 11.0157 12.7974C11.0157 12.8566 10.9666 12.9058 10.9074 12.9058C10.8481 12.9058 10.7989 12.8566 10.7989 12.7974C10.7989 12.737 10.8482 12.6891 10.9074 12.6891ZM10.9074 13.4957C10.8481 13.4957 10.7989 13.4465 10.7989 13.3873C10.7989 13.3268 10.8481 13.279 10.9074 13.279C10.9666 13.279 11.0157 13.3268 11.0157 13.3873C11.0158 13.4466 10.9679 13.4957 10.9074 13.4957Z" fill="#153A8D"/>
<path d="M10.0674 16.2388V17.0303C10.0674 17.0303 10.0712 17.1765 10.1398 17.3226C10.2325 17.5142 10.3914 17.6137 10.6132 17.6137C10.835 17.6137 10.9938 17.5168 11.0871 17.3226C11.1551 17.1777 11.1595 17.0303 11.1595 17.0278V16.2388H10.0674ZM10.3175 16.4328C10.3768 16.4328 10.4259 16.4833 10.4259 16.5413C10.4259 16.6017 10.3768 16.6497 10.3175 16.6497C10.2583 16.6497 10.2092 16.6017 10.2092 16.5413C10.2092 16.4833 10.2583 16.4328 10.3175 16.4328ZM10.3175 17.2395C10.2583 17.2395 10.2092 17.1916 10.2092 17.1311C10.2092 17.0731 10.2583 17.0227 10.3175 17.0227C10.3768 17.0227 10.4259 17.0731 10.4259 17.1311C10.4259 17.1916 10.3781 17.2395 10.3175 17.2395ZM10.6131 16.9446C10.5538 16.9446 10.5047 16.8968 10.5047 16.8362C10.5047 16.7782 10.5538 16.7278 10.6131 16.7278C10.6723 16.7278 10.7214 16.7782 10.7214 16.8362C10.7215 16.8967 10.6724 16.9446 10.6131 16.9446ZM10.9074 16.4328C10.9666 16.4328 11.0157 16.4833 11.0157 16.5413C11.0157 16.6017 10.9666 16.6497 10.9074 16.6497C10.8481 16.6497 10.7989 16.6017 10.7989 16.5413C10.7989 16.4833 10.8482 16.4328 10.9074 16.4328ZM10.9074 17.2395C10.8481 17.2395 10.7989 17.1916 10.7989 17.1311C10.7989 17.0731 10.8481 17.0227 10.9074 17.0227C10.9666 17.0227 11.0157 17.0731 11.0157 17.1311C11.0158 17.1916 10.9679 17.2395 10.9074 17.2395Z" fill="#153A8D"/>
<path d="M10.0674 14.3677V15.1574C10.0674 15.1574 10.0712 15.3037 10.1398 15.4511C10.2325 15.6415 10.3914 15.7422 10.6132 15.7422C10.835 15.7422 10.9938 15.6439 11.0871 15.4511C11.1551 15.3048 11.1595 15.1574 11.1595 15.1574V14.3677H10.0674ZM10.3175 14.5618C10.3768 14.5618 10.4259 14.6091 10.4259 14.6702C10.4259 14.7293 10.3768 14.7786 10.3175 14.7786C10.2583 14.7786 10.2092 14.7293 10.2092 14.6702C10.2092 14.609 10.2583 14.5618 10.3175 14.5618ZM10.3175 15.3666C10.2583 15.3666 10.2092 15.3187 10.2092 15.2582C10.2092 15.2002 10.2583 15.1498 10.3175 15.1498C10.3768 15.1498 10.4259 15.2002 10.4259 15.2582C10.4259 15.3187 10.3781 15.3666 10.3175 15.3666ZM10.6131 15.0742C10.5538 15.0742 10.5047 15.0237 10.5047 14.9631C10.5047 14.9052 10.5538 14.8554 10.6131 14.8554C10.6723 14.8554 10.7214 14.9052 10.7214 14.9631C10.7215 15.0237 10.6724 15.0742 10.6131 15.0742ZM10.9074 14.5618C10.9666 14.5618 11.0157 14.6091 11.0157 14.6702C11.0157 14.7293 10.9666 14.7786 10.9074 14.7786C10.8481 14.7786 10.7989 14.7293 10.7989 14.6702C10.7989 14.609 10.8482 14.5618 10.9074 14.5618ZM10.9074 15.3666C10.8481 15.3666 10.7989 15.3187 10.7989 15.2582C10.7989 15.2002 10.8481 15.1498 10.9074 15.1498C10.9666 15.1498 11.0157 15.2002 11.0157 15.2582C11.0158 15.3187 10.9679 15.3666 10.9074 15.3666Z" fill="#153A8D"/>
<path d="M8.53711 14.3677V15.1574C8.53711 15.1574 8.54089 15.3037 8.61087 15.4511C8.70342 15.6415 8.86228 15.7422 9.08411 15.7422C9.30658 15.7422 9.46479 15.6439 9.5581 15.4511C9.62797 15.3048 9.63186 15.1574 9.63186 15.1574V14.3677H8.53711ZM8.78863 14.5618C8.84846 14.5618 8.89695 14.6091 8.89695 14.6702C8.89695 14.7293 8.84846 14.7786 8.78863 14.7786C8.72934 14.7786 8.6802 14.7293 8.6802 14.6702C8.6802 14.609 8.72934 14.5618 8.78863 14.5618ZM8.78863 15.3666C8.72934 15.3666 8.6802 15.3187 8.6802 15.2582C8.6802 15.2002 8.72934 15.1498 8.78863 15.1498C8.84846 15.1498 8.89695 15.2002 8.89695 15.2582C8.89695 15.3187 8.84976 15.3666 8.78863 15.3666ZM9.08411 15.0742C9.02363 15.0742 8.97579 15.0237 8.97579 14.9631C8.97579 14.9052 9.02363 14.8554 9.08411 14.8554C9.1434 14.8554 9.19253 14.9052 9.19253 14.9631C9.19253 15.0237 9.1434 15.0742 9.08411 15.0742ZM9.3785 14.5618C9.43768 14.5618 9.48563 14.6091 9.48563 14.6702C9.48563 14.7293 9.43779 14.7786 9.3785 14.7786C9.31792 14.7786 9.27008 14.7293 9.27008 14.6702C9.27008 14.609 9.31792 14.5618 9.3785 14.5618ZM9.3785 15.3666C9.31792 15.3666 9.27008 15.3187 9.27008 15.2582C9.27008 15.2002 9.31792 15.1498 9.3785 15.1498C9.43768 15.1498 9.48563 15.2002 9.48563 15.2582C9.48682 15.3187 9.43963 15.3666 9.3785 15.3666Z" fill="#153A8D"/>
<path d="M11.5967 14.3677V15.1574C11.5967 15.1574 11.5992 15.3037 11.6698 15.4511C11.7631 15.6415 11.9219 15.7422 12.1437 15.7422C12.3655 15.7422 12.5244 15.6439 12.6177 15.4511C12.6857 15.3048 12.6908 15.1574 12.6908 15.1574V14.3677H11.5967ZM11.8482 14.5618C11.9074 14.5618 11.9553 14.6091 11.9553 14.6702C11.9553 14.7293 11.9075 14.7786 11.8482 14.7786C11.7876 14.7786 11.7398 14.7293 11.7398 14.6702C11.7385 14.609 11.7876 14.5618 11.8482 14.5618ZM11.8482 15.3666C11.7876 15.3666 11.7398 15.3187 11.7398 15.2582C11.7398 15.2002 11.7876 15.1498 11.8482 15.1498C11.9074 15.1498 11.9565 15.2002 11.9565 15.2582C11.9565 15.3187 11.9074 15.3666 11.8482 15.3666ZM12.1424 15.0742C12.0832 15.0742 12.0341 15.0237 12.0341 14.9631C12.0341 14.9052 12.0832 14.8554 12.1424 14.8554C12.203 14.8554 12.2508 14.9052 12.2508 14.9631C12.2508 15.0237 12.203 15.0742 12.1424 15.0742ZM12.4368 14.5618C12.496 14.5618 12.5451 14.6091 12.5451 14.6702C12.5451 14.7293 12.496 14.7786 12.4368 14.7786C12.3775 14.7786 12.3284 14.7293 12.3284 14.6702C12.3296 14.609 12.3775 14.5618 12.4368 14.5618ZM12.4368 15.3666C12.3775 15.3666 12.3284 15.3187 12.3284 15.2582C12.3284 15.2002 12.3775 15.1498 12.4368 15.1498C12.496 15.1498 12.5451 15.2002 12.5451 15.2582C12.5451 15.3187 12.496 15.3666 12.4368 15.3666Z" fill="#153A8D"/>
</g>
</svg>
