<svg width="30" height="30" viewBox="0 0 30 30" fill="none" xmlns="http://www.w3.org/2000/svg">
<g clip-path="url(#clip0_313_1392)">
<path d="M15 30C23.2843 30 30 23.2843 30 15C30 6.71573 23.2843 0 15 0C6.71573 0 0 6.71573 0 15C0 23.2843 6.71573 30 15 30Z" fill="#F0F0F0"/>
<path d="M29.9999 15.0001C29.9999 8.55064 25.9293 3.0525 20.2173 0.933105V29.0672C25.9293 26.9477 29.9999 21.4496 29.9999 15.0001Z" fill="#D80027"/>
<path d="M0 15.0001C0 21.4496 4.07068 26.9477 9.78264 29.0671V0.933105C4.07068 3.0525 0 8.55064 0 15.0001Z" fill="#0052B4"/>
</g>
<defs>
<clipPath id="clip0_313_1392">
<rect width="30" height="30" fill="white"/>
</clipPath>
</defs>
</svg>
