<svg width="30" height="30" viewBox="0 0 30 30" fill="none" xmlns="http://www.w3.org/2000/svg">
<path d="M22.6318 10.7227H17.1533V8.02734C17.1533 8.02734 17.1729 7.60254 17.2119 6.75293C17.251 5.90332 17.7197 5.47852 18.6182 5.47852C19.6143 5.47852 20.4639 5.47852 21.167 5.47852C21.8701 5.47852 22.2217 5.47852 22.2217 5.47852V0H16.0693C16.0693 0 15.8057 0.0292969 15.2783 0.0878906C14.7314 0.126953 14.1357 0.307617 13.4912 0.629883C12.8467 0.952148 12.2607 1.46484 11.7334 2.16797C11.1865 2.87109 10.9131 3.86719 10.9131 5.15625C10.9131 5.70312 10.9131 6.46484 10.9131 7.44141C10.9131 8.41797 10.9131 9.51172 10.9131 10.7227H7.36816V15.1465H10.8838C10.8838 16.9043 10.8838 18.6621 10.8838 20.4199C10.8838 22.1973 10.8789 23.7939 10.8691 25.21C10.8594 26.626 10.8545 27.7734 10.8545 28.6523C10.8545 29.5508 10.8545 30 10.8545 30H17.1533V15.1465H21.2842L22.6318 10.7227Z" fill="#51AB7E"/>
</svg>
