<svg width="24" height="24" viewBox="0 0 24 24" fill="none" xmlns="http://www.w3.org/2000/svg">
<g clip-path="url(#clip0_582_8888)">
<path d="M21.5001 3.99995H18.8334V5.99995C18.8334 6.19256 18.7955 6.38328 18.7218 6.56122C18.6481 6.73917 18.54 6.90085 18.4038 7.03705C18.2677 7.17324 18.106 7.28127 17.928 7.35498C17.7501 7.42868 17.5594 7.46662 17.3668 7.46662C17.1742 7.46662 16.9834 7.42868 16.8055 7.35498C16.6275 7.28127 16.4659 7.17324 16.3297 7.03705C16.1935 6.90085 16.0854 6.73917 16.0117 6.56122C15.938 6.38328 15.9001 6.19256 15.9001 5.99995V3.99995H8.13342V5.99995C8.13342 6.38894 7.9789 6.76199 7.70385 7.03704C7.42879 7.3121 7.05574 7.46662 6.66676 7.46662C6.27777 7.46662 5.90472 7.3121 5.62967 7.03704C5.35461 6.76199 5.20009 6.38894 5.20009 5.99995V3.99995H2.53342C2.37477 3.99815 2.21737 4.02818 2.07053 4.08826C1.92368 4.14835 1.79038 4.23727 1.6785 4.34977C1.56662 4.46227 1.47844 4.59607 1.41917 4.74324C1.35989 4.89042 1.33074 5.04798 1.33342 5.20662V20.1266C1.33077 20.2825 1.35885 20.4373 1.41605 20.5823C1.47325 20.7273 1.55846 20.8596 1.6668 20.9716C1.77514 21.0837 1.90449 21.1733 2.04747 21.2353C2.19045 21.2974 2.34425 21.3307 2.50009 21.3333H21.5001C21.6559 21.3307 21.8097 21.2974 21.9527 21.2353C22.0957 21.1733 22.225 21.0837 22.3334 20.9716C22.4417 20.8596 22.5269 20.7273 22.5841 20.5823C22.6413 20.4373 22.6694 20.2825 22.6668 20.1266V5.20662C22.6694 5.05078 22.6413 4.89594 22.5841 4.75096C22.5269 4.60597 22.4417 4.47367 22.3334 4.36162C22.225 4.24956 22.0957 4.15995 21.9527 4.09789C21.8097 4.03584 21.6559 4.00256 21.5001 3.99995ZM6.66676 17.3333H5.33342V16H6.66676V17.3333ZM6.66676 14H5.33342V12.6666H6.66676V14ZM6.66676 10.6666H5.33342V9.33329H6.66676V10.6666ZM10.6668 17.3333H9.33342V16H10.6668V17.3333ZM10.6668 14H9.33342V12.6666H10.6668V14ZM10.6668 10.6666H9.33342V9.33329H10.6668V10.6666ZM14.6668 17.3333H13.3334V16H14.6668V17.3333ZM14.6668 14H13.3334V12.6666H14.6668V14ZM14.6668 10.6666H13.3334V9.33329H14.6668V10.6666ZM18.6668 17.3333H17.3334V16H18.6668V17.3333ZM18.6668 14H17.3334V12.6666H18.6668V14ZM18.6668 10.6666H17.3334V9.33329H18.6668V10.6666Z" fill="#51AB7E"/>
<path d="M6.66667 6.66671C6.84348 6.66671 7.01305 6.59647 7.13807 6.47145C7.2631 6.34642 7.33333 6.17685 7.33333 6.00004V2.00004C7.33333 1.82323 7.2631 1.65366 7.13807 1.52864C7.01305 1.40361 6.84348 1.33337 6.66667 1.33337C6.48986 1.33337 6.32029 1.40361 6.19526 1.52864C6.07024 1.65366 6 1.82323 6 2.00004V6.00004C6 6.17685 6.07024 6.34642 6.19526 6.47145C6.32029 6.59647 6.48986 6.66671 6.66667 6.66671Z" fill="#51AB7E"/>
<path d="M17.3334 6.66671C17.5102 6.66671 17.6798 6.59647 17.8048 6.47145C17.9298 6.34642 18.0001 6.17685 18.0001 6.00004V2.00004C18.0001 1.82323 17.9298 1.65366 17.8048 1.52864C17.6798 1.40361 17.5102 1.33337 17.3334 1.33337C17.1566 1.33337 16.987 1.40361 16.862 1.52864C16.737 1.65366 16.6667 1.82323 16.6667 2.00004V6.00004C16.6667 6.17685 16.737 6.34642 16.862 6.47145C16.987 6.59647 17.1566 6.66671 17.3334 6.66671Z" fill="#51AB7E"/>
</g>
<defs>
<clipPath id="clip0_582_8888">
<rect width="24" height="24" fill="white"/>
</clipPath>
</defs>
</svg>
