<svg width="30" height="30" viewBox="0 0 30 30" fill="none" xmlns="http://www.w3.org/2000/svg">
<path d="M15 0C11.8965 0.00414832 8.87075 0.971931 6.34087 2.76967C3.81098 4.5674 1.90177 7.10637 0.876953 10.0359H29.1231C28.0983 7.10637 26.1891 4.5674 23.6592 2.76967C21.1293 0.971931 18.1036 0.00414832 15 0Z" fill="#ED2939"/>
<path d="M15 30.0002C18.1036 29.9961 21.1293 29.0283 23.6592 27.2305C26.1891 25.4328 28.0983 22.8938 29.1231 19.9644H0.876953C1.90177 22.8938 3.81098 25.4328 6.34087 27.2305C8.87075 29.0283 11.8965 29.9961 15 30.0002Z" fill="#00A1DE"/>
<path d="M0.876915 10.0356C-0.292305 13.2646 -0.292305 16.8012 0.876915 20.0301H29.1231C30.2923 16.8012 30.2923 13.2646 29.1231 10.0356H0.876915Z" fill="#F2F2F2"/>
</svg>
