<svg width="20" height="20" viewBox="0 0 20 20" fill="none" xmlns="http://www.w3.org/2000/svg">
<path d="M8.52732 17.8588L8.3423 18.5731H3.21462C2.36205 18.5731 1.5444 18.2344 0.941541 17.6316C0.338682 17.0287 0 16.2111 0 15.3585V3.21458C0 2.36202 0.338682 1.54438 0.941541 0.941528C1.5444 0.338678 2.36205 0 3.21462 0H15.3587C16.2113 0 17.029 0.338678 17.6318 0.941528C18.2347 1.54438 18.5734 2.36202 18.5734 3.21458V8.27646C18.3384 8.22857 18.0987 8.20771 17.859 8.21432V5.7148H0.71436V15.3585C0.71436 16.0216 0.97778 16.6576 1.44667 17.1265C1.91556 17.5953 2.55151 17.8588 3.21462 17.8588H8.52732ZM0.71436 5.00045H17.859V3.21458C17.859 2.55148 17.5956 1.91553 17.1267 1.44665C16.6578 0.977767 16.0219 0.71435 15.3587 0.71435H3.21462C2.55151 0.71435 1.91556 0.977767 1.44667 1.44665C0.97778 1.91553 0.71436 2.55148 0.71436 3.21458V5.00045ZM13.2407 18.9067L19.3913 12.804C19.7719 12.4266 19.9902 11.9155 19.9997 11.3795C20.0092 10.8436 19.8091 10.3251 19.442 9.93447C19.2529 9.73305 19.0251 9.57179 18.7723 9.46031C18.5195 9.34883 18.2468 9.28942 17.9705 9.28561C17.6942 9.28181 17.42 9.3337 17.1642 9.43819C16.9085 9.54267 16.6763 9.69761 16.4817 9.89375L10.3618 16.0657C10.1253 16.3043 9.95604 16.6015 9.87175 16.9265L9.3074 19.1067C9.27628 19.227 9.27707 19.3533 9.3097 19.4732C9.34233 19.5931 9.40566 19.7024 9.49345 19.7904C9.58123 19.8783 9.69044 19.9418 9.81028 19.9746C9.93011 20.0074 10.0564 20.0084 10.1768 19.9775L12.3341 19.4218C12.6765 19.3332 12.9893 19.1555 13.2407 18.9067ZM5.71488 9.64373C5.71488 9.92792 5.60199 10.2005 5.40104 10.4014C5.20008 10.6024 4.92753 10.7153 4.64334 10.7153C4.35915 10.7153 4.0866 10.6024 3.88565 10.4014C3.6847 10.2005 3.5718 9.92792 3.5718 9.64373C3.5718 9.35954 3.6847 9.087 3.88565 8.88605C4.0866 8.6851 4.35915 8.5722 4.64334 8.5722C4.92753 8.5722 5.20008 8.6851 5.40104 8.88605C5.60199 9.087 5.71488 9.35954 5.71488 9.64373ZM9.28668 10.7153C9.57088 10.7153 9.84343 10.6024 10.0444 10.4014C10.2453 10.2005 10.3582 9.92792 10.3582 9.64373C10.3582 9.35954 10.2453 9.087 10.0444 8.88605C9.84343 8.6851 9.57088 8.5722 9.28668 8.5722C9.00249 8.5722 8.72994 8.6851 8.52899 8.88605C8.32804 9.087 8.21515 9.35954 8.21515 9.64373C8.21515 9.92792 8.32804 10.2005 8.52899 10.4014C8.72994 10.6024 9.00249 10.7153 9.28668 10.7153ZM15.0016 9.64373C15.0016 9.92792 14.8887 10.2005 14.6877 10.4014C14.4868 10.6024 14.2142 10.7153 13.93 10.7153C13.6458 10.7153 13.3733 10.6024 13.1723 10.4014C12.9714 10.2005 12.8585 9.92792 12.8585 9.64373C12.8585 9.35954 12.9714 9.087 13.1723 8.88605C13.3733 8.6851 13.6458 8.5722 13.93 8.5722C14.2142 8.5722 14.4868 8.6851 14.6877 8.88605C14.8887 9.087 15.0016 9.35954 15.0016 9.64373ZM4.64334 15.0014C4.92753 15.0014 5.20008 14.8885 5.40104 14.6875C5.60199 14.4866 5.71488 14.214 5.71488 13.9298C5.71488 13.6456 5.60199 13.3731 5.40104 13.1722C5.20008 12.9712 4.92753 12.8583 4.64334 12.8583C4.35915 12.8583 4.0866 12.9712 3.88565 13.1722C3.6847 13.3731 3.5718 13.6456 3.5718 13.9298C3.5718 14.214 3.6847 14.4866 3.88565 14.6875C4.0866 14.8885 4.35915 15.0014 4.64334 15.0014ZM10.3582 13.9298C10.3582 14.214 10.2453 14.4866 10.0444 14.6875C9.84343 14.8885 9.57088 15.0014 9.28668 15.0014C9.00249 15.0014 8.72994 14.8885 8.52899 14.6875C8.32804 14.4866 8.21515 14.214 8.21515 13.9298C8.21515 13.6456 8.32804 13.3731 8.52899 13.1722C8.72994 12.9712 9.00249 12.8583 9.28668 12.8583C9.57088 12.8583 9.84343 12.9712 10.0444 13.1722C10.2453 13.3731 10.3582 13.6456 10.3582 13.9298Z" fill="white"/>
</svg>
