<svg width="60" height="60" viewBox="0 0 60 60" fill="none" xmlns="http://www.w3.org/2000/svg">
<g clip-path="url(#clip0_557_8144)">
<path d="M30.0012 0C16.818 0 6 10.254 6 22.7604C6 27.5676 7.608 32.0436 10.3188 35.7264L25.8792 57.4704L25.9446 57.5532C26.5578 58.3152 27.1578 58.9152 27.8616 59.358C28.5648 59.8008 29.4384 60.0672 30.2952 59.9856C32.0082 59.8218 33.0588 58.6716 34.0542 57.3882L34.1052 57.321L51.2832 33.3588L51.294 33.3402C51.696 32.6478 51.9918 31.944 52.2444 31.2582C53.4 28.574 53.9973 25.6828 54 22.7604C54 10.254 43.185 0 30.0012 0ZM30.0012 3.192C41.3568 3.192 50.6436 12.0018 50.6436 22.7604C50.6436 25.3506 50.1024 27.8196 49.125 30.0888L49.1082 30.1284L49.092 30.1686C48.8754 30.762 48.6384 31.3086 48.3582 31.7916L48.3552 31.7964L31.3272 55.5174C30.5382 56.5176 29.9652 56.8098 29.9604 56.8098C29.9586 56.8098 29.949 56.8446 29.7144 56.6964C29.487 56.5536 29.1 56.2026 28.6482 55.6506L13.1694 34.0368L13.125 33.9768C10.7526 30.789 9.357 26.928 9.357 22.7604C9.357 12.0024 18.6456 3.1914 30.0012 3.1914M30.0132 10.5354C29.7714 10.5315 29.5359 10.6121 29.3472 10.7634L19.0842 19.0782C18.3708 19.6554 18.8004 20.7648 19.7376 20.7642H20.8716V33.4758C20.8716 34.0044 21.3222 34.4334 21.8784 34.4334H38.1216C38.6778 34.4334 39.1284 34.0044 39.1284 33.4758V20.7648H40.3872C41.3274 20.7654 41.7558 19.6494 41.0364 19.074L30.6492 10.7604C30.4681 10.6169 30.2443 10.5373 30.0132 10.5354Z" fill="#51AB7E"/>
</g>
<defs>
<clipPath id="clip0_557_8144">
<rect width="60" height="60" fill="white"/>
</clipPath>
</defs>
</svg>
