<svg width="88" height="89" viewBox="0 0 88 89" fill="none" xmlns="http://www.w3.org/2000/svg">
<path d="M22 36.5938C22 38.8854 22.7878 40.862 24.3633 42.5234C25.9388 44.1849 27.8438 45.0156 30.0781 45.0156C30.8229 45.0156 31.5247 44.9154 32.1836 44.7148C32.8424 44.5143 33.4583 44.2422 34.0312 43.8984C33.8021 46.1328 32.957 48.8112 31.4961 51.9336C30.0352 55.056 27.2135 58.2786 23.0312 61.6016C22.4583 62.1172 22.1289 62.7474 22.043 63.4922C21.957 64.237 22.1432 64.9245 22.6016 65.5547C22.8307 65.8984 23.1315 66.1562 23.5039 66.3281C23.8763 66.5 24.263 66.5859 24.6641 66.5859C24.9505 66.5859 25.237 66.543 25.5234 66.457C25.8099 66.3711 26.0677 66.2135 26.2969 65.9844C31.3958 61.9167 34.819 57.8919 36.5664 53.9102C38.3138 49.9284 39.2448 46.5339 39.3594 43.7266C39.7031 40.1172 39.4453 37.2956 38.5859 35.2617C37.7266 33.2279 36.8099 31.6953 35.8359 30.6641C35.7214 30.6068 35.6211 30.5208 35.5352 30.4062C35.4492 30.2917 35.349 30.2057 35.2344 30.1484C35.0052 29.9193 34.776 29.7331 34.5469 29.5898C34.3177 29.4466 34.1172 29.3177 33.9453 29.2031C33.888 29.2031 33.8594 29.2031 33.8594 29.2031C33.5729 29.0312 33.3438 28.9023 33.1719 28.8164C33 28.7305 32.9141 28.6875 32.9141 28.6875V28.7734C32.4557 28.6016 31.9974 28.4583 31.5391 28.3438C31.0807 28.2292 30.5938 28.1719 30.0781 28.1719C27.8438 28.1719 25.9388 28.9883 24.3633 30.6211C22.7878 32.2539 22 34.2448 22 36.5938ZM48.6406 36.5938C48.6406 38.8854 49.4284 40.862 51.0039 42.5234C52.5794 44.1849 54.4844 45.0156 56.7188 45.0156C57.4635 45.0156 58.1654 44.9154 58.8242 44.7148C59.4831 44.5143 60.099 44.2422 60.6719 43.8984C60.5 46.1328 59.6693 48.8112 58.1797 51.9336C56.6901 55.056 53.8828 58.2786 49.7578 61.6016C49.1276 62.1172 48.7695 62.7474 48.6836 63.4922C48.5977 64.237 48.7839 64.9245 49.2422 65.5547C49.5286 65.8984 49.8581 66.1562 50.2305 66.3281C50.6029 66.5 50.9896 66.5859 51.3906 66.5859C51.6771 66.5859 51.9492 66.543 52.207 66.457C52.4648 66.3711 52.737 66.2135 53.0234 65.9844C58.1224 61.9167 61.5312 57.8919 63.25 53.9102C64.9688 49.9284 65.9141 46.5339 66.0859 43.7266C66.3724 40.1172 66.0859 37.2956 65.2266 35.2617C64.3672 33.2279 63.4505 31.6953 62.4766 30.6641C62.362 30.6068 62.2617 30.5208 62.1758 30.4062C62.0898 30.2917 61.9896 30.2057 61.875 30.1484C61.6458 29.9193 61.431 29.7331 61.2305 29.5898C61.0299 29.4466 60.8151 29.3177 60.5859 29.2031C60.5859 29.2031 60.5716 29.2031 60.543 29.2031C60.5143 29.2031 60.5 29.2031 60.5 29.2031C60.2135 29.0312 59.9844 28.9023 59.8125 28.8164C59.6406 28.7305 59.5547 28.6875 59.5547 28.6875V28.7734C59.1536 28.6016 58.7096 28.4583 58.2227 28.3438C57.7357 28.2292 57.2344 28.1719 56.7188 28.1719C54.4844 28.1719 52.5794 28.9883 51.0039 30.6211C49.4284 32.2539 48.6406 34.2448 48.6406 36.5938Z" fill="white"/>
</svg>
