<svg width="30" height="30" viewBox="0 0 30 30" fill="none" xmlns="http://www.w3.org/2000/svg">
<g clip-path="url(#clip0_313_1411)">
<path d="M29.9998 15.0001C30.0026 18.4606 28.8088 21.8156 26.6207 24.4966C24.4326 27.1775 21.3849 29.0195 17.994 29.7102C14.6031 30.401 11.0777 29.8981 8.0152 28.2867C4.95273 26.6753 2.5416 24.0547 1.19044 20.8688C-0.366045 17.2063 -0.403873 13.0756 1.08528 9.38519C2.57444 5.69483 5.4686 2.74718 9.13107 1.19069C12.7935 -0.365801 16.9243 -0.403629 20.6147 1.08553C24.3051 2.57468 27.2527 5.46884 28.8092 9.13131C29.5987 10.987 30.0037 12.9834 29.9998 15.0001Z" fill="#E83434"/>
<path d="M30 15.0001C30.0039 17.0167 29.5989 19.0132 28.8094 20.8688H1.19064C0.404884 19.012 0 17.0163 0 15.0001C0 12.9839 0.404884 10.9882 1.19064 9.13135H28.8094C29.5989 10.987 30.0039 12.9835 30 15.0001Z" fill="#FFF915"/>
</g>
<defs>
<clipPath id="clip0_313_1411">
<rect width="30" height="30" fill="white"/>
</clipPath>
</defs>
</svg>
