<svg width="58" height="58" viewBox="0 0 58 58" fill="none" xmlns="http://www.w3.org/2000/svg">
<path fill-rule="evenodd" clip-rule="evenodd" d="M27.0147 21.5684C26.6463 21.3945 26.2079 21.5518 26.0327 21.9189C25.423 23.2088 24.1065 24.0415 22.68 24.0415C21.2543 24.0415 19.9384 23.2088 19.3268 21.9189C19.1535 21.5517 18.7146 21.3945 18.346 21.5684C17.9796 21.743 17.8224 22.1821 17.9963 22.5492C18.8491 24.3501 20.6887 25.5147 22.6801 25.5147C24.6729 25.5147 26.5112 24.3501 27.3653 22.5492C27.5385 22.1821 27.3819 21.743 27.0147 21.5684ZM51.4484 17.5503H46.9485C46.5134 17.5503 46.1597 17.9027 46.1597 18.3391C46.1597 18.7748 46.5135 19.1286 46.9485 19.1286H51.4484C51.8855 19.1286 52.2379 18.7748 52.2379 18.3391C52.2379 17.9027 51.8855 17.5503 51.4484 17.5503ZM19.047 13.9218C19.8025 13.9218 20.4275 14.5107 20.4708 15.263C20.4946 15.6746 20.856 15.9842 21.2489 15.9552C21.6554 15.9326 21.9658 15.5841 21.9412 15.1776C21.8533 13.6472 20.5814 12.4486 19.047 12.4486C17.5133 12.4486 16.2421 13.6472 16.1541 15.1776C16.1294 15.5841 16.4399 15.9326 16.8463 15.9552C17.2513 15.9778 17.6005 15.6694 17.6238 15.263C17.6679 14.5107 18.2928 13.9218 19.047 13.9218ZM29.2075 15.1777C29.1188 13.6474 27.8469 12.4487 26.3133 12.4487C24.7788 12.4487 23.5084 13.6474 23.4196 15.1777C23.3949 15.6009 23.7319 15.9566 24.1552 15.9566C24.5423 15.9566 24.8674 15.6547 24.8894 15.263C24.9333 14.5107 25.5582 13.9218 26.3132 13.9218C27.068 13.9218 27.693 14.5107 27.7362 15.263C27.7603 15.6694 28.1073 15.9785 28.5151 15.9552C28.9209 15.9326 29.2307 15.5841 29.2075 15.1777ZM49.477 34.3778H41.5438C37.5965 38.8714 30.6151 38.8938 26.6411 34.3778H19.4942C19.2723 35.1826 19.2037 35.9228 19.2956 36.5851C19.9727 41.4571 28.1537 40.1311 28.1181 44.307C28.0975 46.8061 26.3738 47.4238 24.7076 48.0214C23.0599 48.6124 21.2085 49.2786 19.9331 51.7818C24.7303 53.8723 30.1697 54.1143 35.1544 52.4314C34.1345 50.3372 31.8501 48.5717 32.4208 46.5316C32.9952 44.4785 35.3547 44.0261 36.5455 42.9711C38.1864 41.5175 37.8004 39.3777 40.9795 38.1787C43.4379 37.2515 46.0098 38.6384 48.7467 38.228C49.1045 36.9889 49.3517 35.7024 49.477 34.3778ZM48.2397 39.7652C46.185 45.2658 41.9136 49.6644 36.5383 51.9097C36.1192 51.019 35.5502 50.2314 35.0346 49.5212C34.2911 48.4944 33.6482 47.609 33.8387 46.9281C34.1995 45.6393 36.2397 45.21 37.5223 44.0738C39.5168 42.3071 38.8954 40.5394 41.4993 39.5572C43.2697 38.8895 45.7679 39.927 48.2397 39.7652ZM18.6033 51.1462C12.4111 47.9149 7.98851 41.712 7.29425 34.3779H17.9737C17.7798 35.2321 17.7332 36.0402 17.8371 36.7872C18.6317 42.4971 26.6667 41.7819 26.6457 44.2946C26.6337 45.7096 25.9342 46.0168 24.2112 46.6345C22.4755 47.2572 20.1457 48.0934 18.6033 51.1462ZM31.1276 20.7403C31.1276 25.398 27.3386 29.1878 22.6801 29.1878C18.0224 29.1878 14.2327 25.3982 14.2327 20.7403V8.61713C19.6327 6.47345 25.7282 6.4731 31.1276 8.61713V20.7403ZM25.9554 30.1038C29.8204 28.7487 32.6 25.0636 32.6 20.7403V14.1576C36.0084 13.9376 39.3848 14.4649 42.5373 15.7153V27.8384C42.5373 32.4962 38.7477 36.2859 34.0898 36.2859C30.2867 36.286 26.9655 33.7229 25.9554 30.1038ZM50.8068 33.1359C50.9467 33.2838 51.0186 33.481 51.0067 33.6843C50.3131 45.6442 40.3765 55.0131 28.3853 55.0131C16.3947 55.0131 6.45813 45.6442 5.76317 33.6843C5.73916 33.2624 6.07672 32.9047 6.49873 32.9047H25.5669C25.1218 32.1598 24.7714 31.3484 24.5329 30.4856C18.4286 31.643 12.7602 26.9544 12.7602 20.7403V8.12274C12.7602 7.82694 12.9374 7.55979 13.2112 7.44379C19.2298 4.90142 26.1325 4.8991 32.1502 7.44379C32.4233 7.55968 32.5999 7.82683 32.5999 8.12274V12.6826C36.3915 12.4539 40.0747 13.0794 43.5598 14.5435C43.8337 14.6581 44.0102 14.9252 44.0102 15.2224V27.8387C44.0102 29.6882 43.5012 31.4211 42.6164 32.9049H50.271C50.4743 32.9047 50.6675 32.9887 50.8068 33.1359ZM36.8854 9.06547C37.3225 9.06547 37.6742 8.71167 37.6742 8.27598V3.7768C37.6742 3.33971 37.3224 2.9873 36.8854 2.9873C36.4497 2.9873 36.0966 3.33971 36.0966 3.7768V8.27598C36.0965 8.71167 36.4496 9.06547 36.8854 9.06547ZM37.7915 23.8064C39.3252 23.8064 40.597 22.6072 40.6857 21.0768C40.7097 20.671 40.3991 20.3226 39.9935 20.2987C39.5838 20.2773 39.2393 20.5859 39.2159 20.9922C39.172 21.7444 38.5464 22.3334 37.7915 22.3334C37.0367 22.3334 36.4123 21.7445 36.3677 20.9922C36.3444 20.5859 35.9945 20.2754 35.5901 20.2987C35.1844 20.3227 34.874 20.6712 34.8978 21.0768C34.9865 22.6071 36.2577 23.8064 37.7915 23.8064ZM33.3795 30.3396C33.3795 31.3843 33.8458 32.0506 34.0897 32.0506C34.3342 32.0506 34.8012 31.3843 34.8012 30.3396C34.8012 29.2949 34.3342 28.6286 34.0897 28.6286C33.8458 28.6288 33.3795 29.2951 33.3795 30.3396ZM31.8018 30.3396C31.8018 32.1838 32.8065 33.6289 34.0897 33.6289C35.3736 33.6289 36.3796 32.1838 36.3796 30.3396C36.3796 28.4955 35.3736 27.051 34.0897 27.051C32.8065 27.051 31.8018 28.4955 31.8018 30.3396ZM43.4433 11.7818C43.7534 12.0892 44.2522 12.089 44.5594 11.7818L47.7421 8.59915C48.0492 8.29071 48.0492 7.79098 47.7421 7.48323C47.4329 7.17606 46.9346 7.17606 46.626 7.48323L43.4433 10.6652C43.1348 10.9737 43.1348 11.4733 43.4433 11.7818Z" fill="#E9B237" fill-opacity="0.91"/>
</svg>
