<svg width="56" height="58" viewBox="0 0 56 58" fill="none" xmlns="http://www.w3.org/2000/svg">
<path d="M54.4632 17.101L41.6335 13.3008C41.4742 13.2582 41.3071 13.2582 41.1478 13.3008L27.6399 17.101L22.4897 15.6855C23.3282 14.0656 23.8337 12.2832 23.9743 10.4506C23.9743 7.67896 22.9122 5.0208 21.0217 3.06092C19.1313 1.10105 16.5673 0 13.8938 0C11.2202 0 8.65621 1.10105 6.76575 3.06092C4.87529 5.0208 3.81324 7.67896 3.81324 10.4506C3.97124 12.3229 4.50168 14.1408 5.37114 15.79L0.816578 17.101C0.618357 17.1585 0.444568 17.2835 0.323211 17.4558C0.201853 17.6282 0.139994 17.8379 0.147599 18.0511V56.0534C0.147599 56.2009 0.180722 56.3464 0.244347 56.4783C0.307971 56.6102 0.400348 56.725 0.514163 56.8135C0.626909 56.9005 0.757457 56.9595 0.895707 56.9858C1.03396 57.0122 1.1762 57.0052 1.31144 56.9655L13.8938 53.2032L27.4016 57.0035C27.5584 57.0415 27.7214 57.0415 27.8782 57.0035L41.3861 53.2032L53.9684 57.0035C54.0503 57.0173 54.1339 57.0173 54.2158 57.0035C54.4588 57.0035 54.6919 56.9034 54.8638 56.7252C55.0357 56.547 55.1322 56.3054 55.1322 56.0534V18.0511C55.1398 17.8379 55.0779 17.6282 54.9566 17.4558C54.8352 17.2835 54.6614 17.1585 54.4632 17.101ZM13.8938 1.90012C16.0812 1.90012 18.179 2.80097 19.7257 4.40451C21.2725 6.00804 22.1414 8.1829 22.1414 10.4506C22.1414 14.1369 16.7255 22.1934 13.8938 26.0126C11.062 22.2124 5.64606 14.1369 5.64606 10.4506C5.64606 8.1829 6.51501 6.00804 8.06175 4.40451C9.60849 2.80097 11.7063 1.90012 13.8938 1.90012ZM6.2234 17.5096C8.28286 21.2312 10.6079 24.788 13.1789 28.1502C13.2648 28.2612 13.3736 28.3507 13.4973 28.4123C13.6211 28.4738 13.7565 28.5057 13.8938 28.5057C14.031 28.5057 14.1664 28.4738 14.2902 28.4123C14.4139 28.3507 14.5227 28.2612 14.6086 28.1502C17.2111 24.7485 19.5608 21.147 21.6374 17.3766L26.7235 18.7826V29.4518C26.7235 29.7038 26.82 29.9454 26.9919 30.1236C27.1638 30.3018 27.3969 30.4019 27.6399 30.4019C27.8829 30.4019 28.116 30.3018 28.2879 30.1236C28.4598 29.9454 28.5563 29.7038 28.5563 29.4518V18.7826L41.3861 15.2009L53.2994 18.7256V40.9095C51.756 41.1234 50.3198 41.8461 49.203 42.9711C48.2704 43.9516 47.0269 44.549 45.7023 44.6527C45.2443 43.115 45.0246 41.5116 45.0517 39.9024C45.0517 39.6969 44.9874 39.4968 44.8684 39.3324L43.2189 37.0523H44.1353C44.3484 37.0572 44.5565 36.9849 44.7238 36.8479C44.891 36.7109 45.007 36.5178 45.0517 36.3017C45.6015 33.6891 47.0128 32.302 47.8009 32.302C48.5301 32.302 49.2293 32.0017 49.7449 31.4672C50.2605 30.9327 50.5502 30.2077 50.5502 29.4518C50.5502 28.6959 50.2605 27.9709 49.7449 27.4364C49.2293 26.9019 48.5301 26.6016 47.8009 26.6016C43.0746 26.6469 38.535 28.5206 35.072 31.8554C33.3711 33.43 31.9974 35.3473 31.0347 37.4903C30.072 39.6333 29.5406 41.9572 29.4727 44.3202C28.8873 44.5493 28.2656 44.6621 27.6399 44.6527C26.9238 44.6535 26.2149 44.505 25.5553 44.2162C24.8957 43.9273 24.2988 43.5039 23.8001 42.9711C22.4609 41.6121 20.6614 40.8511 18.7874 40.8511C16.9134 40.8511 15.1139 41.6121 13.7746 42.9711C13.2743 43.5029 12.6765 43.9255 12.0162 44.214C11.356 44.5025 10.6468 44.6512 9.93028 44.6512C9.21378 44.6512 8.50454 44.5025 7.84431 44.214C7.18408 43.9255 6.58621 43.5029 6.08594 42.9711C4.96673 41.8443 3.52709 41.1214 1.98042 40.9095V18.7636L6.2234 17.5096ZM40.6529 36.6722L43.2189 40.2255C43.2304 41.6344 43.3996 43.0372 43.7229 44.4057C42.9001 44.0829 42.1465 43.5955 41.5052 42.9711C40.1659 41.6121 38.3665 40.8511 36.4924 40.8511C34.6184 40.8511 32.8189 41.6121 31.4797 42.9711L31.388 43.0471C31.8312 39.2744 33.5758 35.7953 36.3 33.252C39.4258 30.2334 43.5292 28.5386 47.8009 28.5017C48.044 28.5017 48.2771 28.6018 48.4489 28.78C48.6208 28.9582 48.7173 29.1998 48.7173 29.4518C48.7173 29.7038 48.6208 29.9454 48.4489 30.1236C48.2771 30.3018 48.044 30.4019 47.8009 30.4019C45.9681 30.4019 44.2178 32.359 43.4296 35.1521H41.3861C41.2168 35.1527 41.051 35.2018 40.9071 35.294C40.7631 35.3862 40.6466 35.518 40.5704 35.6747C40.4933 35.8324 40.4601 36.0094 40.4746 36.1856C40.4892 36.3619 40.551 36.5304 40.6529 36.6722ZM41.6335 51.3031C41.4742 51.2605 41.3071 51.2605 41.1478 51.3031L28.5563 54.8183V49.403C28.5563 49.151 28.4598 48.9094 28.2879 48.7312C28.116 48.553 27.8829 48.453 27.6399 48.453C27.3969 48.453 27.1638 48.553 26.9919 48.7312C26.82 48.9094 26.7235 49.151 26.7235 49.403V54.8183L14.132 51.3031C13.9727 51.2605 13.8056 51.2605 13.6463 51.3031L1.98042 54.7898V42.8286C3.08544 43.0557 4.1019 43.6139 4.90377 44.4342C6.24303 45.7932 8.0425 46.5542 9.91653 46.5542C11.7906 46.5542 13.59 45.7932 14.9293 44.4342C15.4296 43.9025 16.0274 43.4799 16.6877 43.1913C17.3479 42.9028 18.0571 42.7542 18.7736 42.7542C19.4901 42.7542 20.1994 42.9028 20.8596 43.1913C21.5198 43.4799 22.1177 43.9025 22.618 44.4342C23.9572 45.7932 25.7567 46.5542 27.6307 46.5542C29.5048 46.5542 31.3042 45.7932 32.6435 44.4342C33.1446 43.9022 33.7432 43.4794 34.4042 43.1908C35.0652 42.9021 35.7752 42.7534 36.4924 42.7534C37.2097 42.7534 37.9197 42.9021 38.5806 43.1908C39.2416 43.4794 39.8403 43.9022 40.3413 44.4342C41.5767 45.6793 43.2034 46.4213 44.9234 46.5243C44.9655 46.5368 45.0084 46.5463 45.0517 46.5528H45.3541C46.283 46.5592 47.204 46.3753 48.0643 46.0117C48.9245 45.6481 49.707 45.112 50.3669 44.4342C51.1722 43.6137 52.1916 43.0555 53.2994 42.8286V54.7898L41.6335 51.3031Z" fill="#E9B237" fill-opacity="0.91"/>
<path d="M20.3085 10.4507C20.3085 9.13538 19.9323 7.84959 19.2274 6.75593C18.5225 5.66228 17.5207 4.80988 16.3485 4.30653C15.1763 3.80317 13.8865 3.67147 12.6422 3.92808C11.3978 4.18469 10.2548 4.81808 9.35763 5.74816C8.4605 6.67823 7.84954 7.86322 7.60202 9.15327C7.3545 10.4433 7.48154 11.7805 7.96707 12.9957C8.45259 14.2109 9.2748 15.2496 10.3297 15.9803C11.3846 16.7111 12.6249 17.1011 13.8936 17.1011C15.595 17.1011 17.2266 16.4004 18.4296 15.1532C19.6327 13.9061 20.3085 12.2145 20.3085 10.4507ZM9.31158 10.4507C9.31158 9.51118 9.58032 8.59276 10.0838 7.81158C10.5873 7.0304 11.3029 6.42154 12.1402 6.06201C12.9774 5.70247 13.8987 5.6084 14.7875 5.79169C15.6764 5.97498 16.4928 6.4274 17.1336 7.09174C17.7744 7.75608 18.2108 8.6025 18.3876 9.52397C18.5644 10.4454 18.4737 11.4006 18.1269 12.2686C17.7801 13.1366 17.1928 13.8785 16.4393 14.4004C15.6858 14.9224 14.7999 15.201 13.8936 15.201C12.6784 15.201 11.5129 14.7005 10.6536 13.8097C9.79433 12.9188 9.31158 11.7106 9.31158 10.4507Z" fill="#E9B237" fill-opacity="0.91"/>
<path d="M27.6396 35.1519C27.8826 35.1519 28.1157 35.0518 28.2876 34.8737C28.4594 34.6955 28.556 34.4538 28.556 34.2019V33.2518C28.556 32.9998 28.4594 32.7582 28.2876 32.58C28.1157 32.4019 27.8826 32.3018 27.6396 32.3018C27.3965 32.3018 27.1634 32.4019 26.9916 32.58C26.8197 32.7582 26.7231 32.9998 26.7231 33.2518V34.2019C26.7231 34.4538 26.8197 34.6955 26.9916 34.8737C27.1634 35.0518 27.3965 35.1519 27.6396 35.1519Z" fill="#E9B237" fill-opacity="0.91"/>
<path d="M27.6396 40.8525C27.8826 40.8525 28.1157 40.7524 28.2876 40.5742C28.4594 40.396 28.556 40.1544 28.556 39.9024V38.0023C28.556 37.7503 28.4594 37.5087 28.2876 37.3305C28.1157 37.1523 27.8826 37.0522 27.6396 37.0522C27.3965 37.0522 27.1634 37.1523 26.9916 37.3305C26.8197 37.5087 26.7231 37.7503 26.7231 38.0023V39.9024C26.7231 40.1544 26.8197 40.396 26.9916 40.5742C27.1634 40.7524 27.3965 40.8525 27.6396 40.8525Z" fill="#E9B237" fill-opacity="0.91"/>
</svg>
