<svg width="30" height="30" viewBox="0 0 30 30" fill="none" xmlns="http://www.w3.org/2000/svg">
<path d="M15.0093 29.9815C23.2885 29.9815 30 23.2741 30 15C30 6.72599 23.2885 0.0185547 15.0093 0.0185547C6.73014 0.0185547 0.0185547 6.72599 0.0185547 15C0.0185547 23.2741 6.73014 29.9815 15.0093 29.9815Z" fill="#F7F7F7"/>
<path d="M28.9631 9.47427C26.7671 3.92329 21.3475 0 15.0124 0C13.1754 0 11.4125 0.33115 9.7832 0.937324V9.47427H28.9631Z" fill="#4FB851"/>
<path d="M9.7832 29.0627C11.4119 29.6689 13.1754 30 15.0124 30C21.4654 30 26.9637 25.9308 29.081 20.2227H9.78376L9.7832 29.0627Z" fill="#282A2B"/>
<path d="M9.78341 9.47445V0.9375C4.07174 3.0535 0 8.54835 0 14.9974C0 21.4464 4.07174 26.9412 9.78341 29.0628V20.2228V9.47445Z" fill="#DB312D"/>
</svg>
