<svg width="24" height="24" viewBox="0 0 24 24" fill="none" xmlns="http://www.w3.org/2000/svg">
<path d="M12.1291 24C12.1134 24 12.0939 24 12.0705 24C12.047 24 12.0275 24 12.0119 24C11.5275 23.5469 11.0587 23.0703 10.6056 22.5703C10.1525 22.0703 9.71499 21.5469 9.29312 21C8.87124 20.4531 8.46499 19.8906 8.07437 19.3125C7.68374 18.7344 7.30093 18.1484 6.92593 17.5547C6.56656 16.9766 6.20718 16.375 5.84781 15.75C5.50406 15.1094 5.18765 14.4453 4.89859 13.7578C4.60953 13.0703 4.36343 12.3438 4.16031 11.5781C3.95718 10.8125 3.82437 10.0078 3.76187 9.16406C3.65249 7.61719 3.84781 6.28906 4.34781 5.17969C4.84781 4.07031 5.45718 3.15625 6.17593 2.4375C6.91031 1.6875 7.8439 1.06641 8.97671 0.574219C10.1095 0.0820312 11.4181 -0.09375 12.9025 0.046875C13.9806 0.140625 14.9884 0.4375 15.9259 0.9375C16.8634 1.45312 17.6681 2.12109 18.34 2.94141C19.0119 3.76172 19.5197 4.71094 19.8634 5.78906C20.2072 6.88281 20.3322 8.05469 20.2384 9.30469C20.1759 10.1172 20.0509 10.8828 19.8634 11.6016C19.6603 12.3203 19.4181 13.0117 19.1369 13.6758C18.8556 14.3398 18.5353 14.9844 18.1759 15.6094C17.8166 16.2344 17.4494 16.8594 17.0744 17.4844C16.7462 18.0312 16.3947 18.6016 16.0197 19.1953C15.6447 19.7891 15.2462 20.375 14.8244 20.9531C14.4025 21.5312 13.9728 22.0781 13.5353 22.5938C13.0822 23.125 12.6134 23.5938 12.1291 24ZM6.71499 7.80469C6.57437 9.22656 6.83218 10.4102 7.48843 11.3555C8.14468 12.3008 8.89468 12.9688 9.73843 13.3594C10.6759 13.7812 11.6212 13.9375 12.5744 13.8281C13.5275 13.7188 14.3752 13.3945 15.1173 12.8555C15.8595 12.3164 16.4337 11.6016 16.84 10.7109C17.2619 9.82031 17.4103 8.80469 17.2853 7.66406C17.2072 6.99219 17.0119 6.375 16.6994 5.8125C16.3869 5.23438 15.9884 4.73828 15.5041 4.32422C15.0197 3.91016 14.465 3.58594 13.84 3.35156C13.215 3.13281 12.5587 3.03125 11.8712 3.04688C11.1681 3.07812 10.5197 3.21875 9.92593 3.46875C9.33218 3.73438 8.80484 4.07812 8.3439 4.5C7.88296 4.92188 7.51187 5.41406 7.23062 5.97656C6.94937 6.53906 6.77749 7.14844 6.71499 7.80469Z" fill="#51AB7E"/>
</svg>
