<svg width="32" height="32" viewBox="0 0 32 32" fill="none" xmlns="http://www.w3.org/2000/svg">
<path d="M22.122 10.04C22.128 10.04 22.136 10.04 22.144 10.04C22.353 10.04 22.547 10.105 22.706 10.217L22.703 10.215C22.819 10.316 22.897 10.458 22.916 10.618V10.621C22.936 10.743 22.947 10.883 22.947 11.026C22.947 11.091 22.945 11.155 22.94 11.219V11.21C22.715 13.579 21.739 19.324 21.243 21.976C21.033 23.099 20.62 23.475 20.22 23.511C19.351 23.592 18.691 22.937 17.849 22.385C16.531 21.52 15.786 20.982 14.507 20.139C13.028 19.166 13.987 18.629 14.829 17.755C15.05 17.525 18.881 14.04 18.956 13.724C18.96 13.705 18.962 13.684 18.962 13.662C18.962 13.584 18.933 13.513 18.886 13.459C18.834 13.425 18.769 13.406 18.701 13.406C18.656 13.406 18.613 13.415 18.573 13.43L18.575 13.429C18.443 13.459 16.3377 14.8504 12.259 17.603C11.814 17.954 11.252 18.176 10.64 18.202H10.634C9.76703 18.097 8.98003 17.904 8.23303 17.629L8.30703 17.653C7.36903 17.347 6.62403 17.186 6.68803 16.668C6.72203 16.3987 7.09336 16.123 7.80203 15.841C12.1674 13.939 15.0784 12.6854 16.535 12.08C18.142 11.227 20.005 10.525 21.964 10.07L22.121 10.039L22.122 10.04ZM15.93 1.02502C7.62803 1.04502 0.905029 7.78002 0.905029 16.085C0.905029 24.402 7.64703 31.145 15.965 31.145C24.283 31.145 31.025 24.403 31.025 16.085C31.025 7.78002 24.302 1.04502 16.002 1.02502H16C15.9767 1.02502 15.9534 1.02502 15.93 1.02502Z" fill="#E9B237" fill-opacity="0.91"/>
</svg>
