<svg width="15" height="20" viewBox="0 0 15 20" fill="none" xmlns="http://www.w3.org/2000/svg">
<path d="M13.8706 3.96924C14.9312 6.12188 14.6883 8.66216 13.5206 10.7266C12.5318 12.4041 11.1122 13.8237 9.90268 15.3821C9.37681 16.077 8.85091 16.8215 8.46164 17.6254C8.32487 17.8933 8.23014 18.1712 8.12491 18.4491C8.01967 18.727 7.92494 19.0049 7.83022 19.2828C7.7355 19.5408 7.61974 19.8484 7.27287 19.8486C6.86293 19.8488 6.74751 19.4123 6.66355 19.1147C6.41161 18.3905 6.15966 17.696 5.77105 17.0314C5.32994 16.2477 4.77317 15.5237 4.20589 14.8195L13.8706 3.96924ZM4.25177 6.3754L0.78132 10.2668C1.42192 11.5465 2.37794 12.6375 3.29192 13.7285C3.51254 13.9764 3.73315 14.2343 3.94326 14.5021L8.32863 9.59813L8.28658 9.60808C6.75173 10.105 5.04925 9.37159 4.44026 7.94306C4.35624 7.77442 4.29327 7.57601 4.25131 7.37758C4.19265 7.04919 4.19281 6.71378 4.25176 6.38533L4.25177 6.3754ZM1.58364 2.60622L1.57313 2.61614C-0.130603 4.65113 -0.426199 7.47919 0.592298 9.87L4.78838 5.16458L4.73585 5.115L1.58364 2.60622ZM9.61519 0.35962L6.22888 4.14183L6.27093 4.13188C7.67963 3.67473 9.25604 4.24943 9.97025 5.45961C10.1278 5.73736 10.2538 6.03497 10.2957 6.33262C10.3586 6.70964 10.3795 6.97754 10.3058 7.34471L10.3057 7.35463L13.671 3.58236C12.7915 2.07472 11.3499 0.929737 9.62569 0.369537L9.61519 0.35962ZM5.06181 4.85684L9.17377 0.240776L9.13173 0.230875C8.52215 0.0823488 7.90203 0.00328598 7.28187 0.00360326C5.21117 0.00466264 3.25571 0.849076 1.86758 2.29847L1.84656 2.30841L5.06181 4.85684Z" fill="#51AB7E"/>
</svg>
