<svg width="19" height="29" viewBox="0 0 19 29" fill="none" xmlns="http://www.w3.org/2000/svg">
<path d="M9.6483 28.4283C9.63033 28.4283 9.60787 28.4283 9.58092 28.4283C9.55397 28.4283 9.53152 28.4283 9.51355 28.4283C8.95657 27.9024 8.41757 27.3493 7.89653 26.7689C7.37549 26.1886 6.87241 25.581 6.38731 24.9463C5.9022 24.3115 5.43506 23.6586 4.98589 22.9876C4.53672 22.3166 4.09653 21.6365 3.66532 20.9473C3.25208 20.2763 2.83884 19.578 2.42561 18.8526C2.03033 18.109 1.6665 17.3383 1.33412 16.5403C1.00173 15.7423 0.71875 14.899 0.485181 14.0103C0.251611 13.1217 0.0988924 12.1877 0.0270248 11.2084C-0.0987435 9.4129 0.125843 7.87135 0.700784 6.58371C1.27572 5.29606 1.97643 4.23512 2.80291 3.40087C3.64736 2.53034 4.72088 1.80944 6.02348 1.23816C7.32608 0.666885 8.83081 0.462858 10.5377 0.62608C11.7774 0.734896 12.9362 1.07948 14.0143 1.65982C15.0923 2.25831 16.0176 3.03362 16.7901 3.98575C17.5627 4.93788 18.1466 6.03963 18.5419 7.29101C18.9372 8.56052 19.0809 9.92071 18.9731 11.3716C18.9013 12.3146 18.7575 13.2033 18.5419 14.0375C18.3083 14.8718 18.0299 15.6743 17.7065 16.4451C17.3831 17.2159 17.0147 17.964 16.6015 18.6894C16.1883 19.4148 15.766 20.1403 15.3348 20.8657C14.9575 21.5004 14.5533 22.1624 14.1221 22.8516C13.6909 23.5407 13.2327 24.2208 12.7476 24.8919C12.2625 25.5629 11.7684 26.1976 11.2653 26.7961C10.7443 27.4127 10.2053 27.9568 9.6483 28.4283ZM3.42277 9.63053C3.26107 11.2809 3.55752 12.6547 4.31213 13.7519C5.06674 14.8491 5.92915 15.6244 6.89936 16.0778C7.97738 16.5675 9.06438 16.7489 10.1604 16.6219C11.2563 16.495 12.231 16.1186 13.0845 15.4929C13.9379 14.8673 14.5982 14.0375 15.0653 13.0038C15.5504 11.9701 15.7211 10.7912 15.5774 9.46731C15.4875 8.68747 15.263 7.9711 14.9036 7.31821C14.5443 6.64718 14.0861 6.07137 13.5292 5.59077C12.9722 5.11017 12.3344 4.73385 11.6157 4.46181C10.897 4.20791 10.1424 4.09003 9.35185 4.10816C8.54334 4.14444 7.79771 4.30766 7.11497 4.59783C6.43223 4.90614 5.82584 5.30513 5.29582 5.7948C4.76579 6.28447 4.33908 6.85575 4.01568 7.50864C3.69227 8.16153 3.49464 8.86883 3.42277 9.63053Z" fill="#E9B237" fill-opacity="0.91"/>
</svg>
