<svg width="17" height="17" viewBox="0 0 17 17" fill="none" xmlns="http://www.w3.org/2000/svg">
<path d="M8.4375 0C7.27734 0 6.18164 0.222656 5.15039 0.667969C4.13086 1.10156 3.2373 1.70215 2.46973 2.46973C1.70215 3.2373 1.10156 4.13086 0.667969 5.15039C0.222656 6.18164 0 7.27734 0 8.4375C0 9.59766 0.222656 10.6934 0.667969 11.7246C1.10156 12.7441 1.70215 13.6377 2.46973 14.4053C3.2373 15.1729 4.13086 15.7734 5.15039 16.207C6.18164 16.6523 7.27734 16.875 8.4375 16.875C9.59766 16.875 10.6934 16.6523 11.7246 16.207C12.7441 15.7734 13.6377 15.1729 14.4053 14.4053C15.1729 13.6377 15.7734 12.7441 16.207 11.7246C16.6523 10.6934 16.875 9.59766 16.875 8.4375C16.875 7.27734 16.6523 6.18164 16.207 5.15039C15.7734 4.13086 15.1729 3.2373 14.4053 2.46973C13.6377 1.70215 12.7441 1.10156 11.7246 0.667969C10.6934 0.222656 9.59766 0 8.4375 0ZM12.9375 9H9V12.9375C9 13.0898 8.94434 13.2217 8.83301 13.333C8.72168 13.4443 8.58984 13.5 8.4375 13.5C8.28516 13.5 8.15332 13.4443 8.04199 13.333C7.93066 13.2217 7.875 13.0898 7.875 12.9375V9H3.9375C3.78516 9 3.65332 8.94434 3.54199 8.83301C3.43066 8.72168 3.375 8.58984 3.375 8.4375C3.375 8.28516 3.43066 8.15332 3.54199 8.04199C3.65332 7.93066 3.78516 7.875 3.9375 7.875H7.875V3.9375C7.875 3.78516 7.93066 3.65332 8.04199 3.54199C8.15332 3.43066 8.28516 3.375 8.4375 3.375C8.58984 3.375 8.72168 3.43066 8.83301 3.54199C8.94434 3.65332 9 3.78516 9 3.9375V7.875H12.9375C13.0898 7.875 13.2217 7.93066 13.333 8.04199C13.4443 8.15332 13.5 8.28516 13.5 8.4375C13.5 8.58984 13.4443 8.72168 13.333 8.83301C13.2217 8.94434 13.0898 9 12.9375 9Z" fill="#51AB7E"/>
</svg>
