<svg width="25" height="25" viewBox="0 0 25 25" fill="none" xmlns="http://www.w3.org/2000/svg">
<path d="M22.9143 20.2064L19.7971 23.347L14.4768 18.0267L17.5939 14.8861C17.7502 14.7298 17.9338 14.6517 18.1447 14.6517C18.3557 14.6517 18.5393 14.7298 18.6955 14.8861L22.9143 19.1048C23.0705 19.2611 23.1486 19.4447 23.1486 19.6556C23.1486 19.8665 23.0705 20.0501 22.9143 20.2064ZM10.0002 7.29232L7.07051 10.222L1.7502 4.9017L4.67988 1.97201C4.83613 1.83138 5.01973 1.76107 5.23066 1.76107C5.4416 1.76107 5.6252 1.83138 5.78145 1.97201L10.0002 6.2142C10.1564 6.35482 10.2346 6.53451 10.2346 6.75326C10.2346 6.97201 10.1564 7.1517 10.0002 7.29232ZM11.758 16.972C12.6486 17.8626 13.3752 18.2025 13.9377 17.9915C14.5002 17.7806 14.7814 17.6751 14.7814 17.6751L19.7971 23.3236C18.4377 24.1361 17.0002 24.3079 15.4846 23.8392C13.9689 23.3861 12.5744 22.7259 11.301 21.8587C10.0275 20.9915 8.97676 20.1283 8.14863 19.2689C7.32051 18.4095 6.90645 17.9798 6.90645 17.9798C6.90645 17.9798 6.48457 17.5579 5.64082 16.7142C4.79707 15.8548 3.95723 14.7806 3.12129 13.4915C2.28535 12.2025 1.64863 10.7845 1.21113 9.23763C0.773633 7.70638 0.961133 6.26107 1.77363 4.9017L7.21113 10.1048C7.21113 10.1048 7.10566 10.3861 6.89473 10.9486C6.68379 11.5111 7.02363 12.2376 7.91426 13.1283C8.80488 14.0189 9.34785 14.5619 9.54316 14.7572C9.73848 14.9525 9.83613 15.0501 9.83613 15.0501C9.83613 15.0501 9.93379 15.1478 10.1291 15.3431C10.3244 15.5384 10.8674 16.0814 11.758 16.972ZM18.4143 6.65951C18.8986 7.14388 19.2775 7.68685 19.551 8.28841C19.8244 8.88998 19.9924 9.50326 20.0549 10.1283H21.5783C21.5158 9.30013 21.3088 8.49545 20.9572 7.7142C20.6057 6.93295 20.1096 6.22201 19.4689 5.58138C18.8283 4.92513 18.1018 4.42513 17.2893 4.08138C16.4768 3.73763 15.6486 3.53451 14.8049 3.47201V4.99545C15.4611 5.05795 16.0979 5.22591 16.715 5.49935C17.3322 5.77279 17.8986 6.15951 18.4143 6.65951ZM20.6877 4.31576C21.4377 5.06576 22.0197 5.89388 22.4338 6.80013C22.8479 7.70638 23.1018 8.64388 23.1955 9.61263H24.9768C24.883 8.34701 24.5939 7.18685 24.1096 6.13216C23.6252 5.07748 22.8986 4.06576 21.9299 3.09701C20.9455 2.09701 19.9025 1.35873 18.801 0.882164C17.6994 0.405602 16.5002 0.128258 15.2033 0.0501328V1.80795C16.2033 1.87045 17.176 2.11263 18.1213 2.53451C19.0666 2.95638 19.9221 3.55013 20.6877 4.31576Z" fill="#51AB7E"/>
</svg>
