<svg width="29" height="28" viewBox="0 0 29 28" fill="none" xmlns="http://www.w3.org/2000/svg">
<path d="M27.6798 10.3449L18.9555 9.09092C19.2579 9.1265 19.3557 9.09537 19.249 8.99754C19.1423 8.89972 18.9822 8.62848 18.7688 8.18381L17.4081 5.38245L15.4338 1.43385C15.3804 1.29156 15.2915 1.1804 15.167 1.10036C15.0425 1.02032 14.8913 0.980297 14.7134 0.980297H14.5267C14.3844 0.980297 14.251 1.02032 14.1265 1.10036C14.002 1.1804 13.8953 1.29156 13.8063 1.43385L10.0178 9.35772C10.1601 9.03756 10.1601 8.92195 10.0178 9.01088C9.87553 9.09982 9.57316 9.18875 9.11071 9.27768L6.04255 9.70456L1.6404 10.2648C1.40917 10.3538 1.23131 10.5005 1.1068 10.705C0.982299 10.9096 0.946727 11.1186 1.00009 11.332C1.00009 11.4209 1.01787 11.4921 1.05345 11.5455C1.08902 11.5988 1.13348 11.6522 1.18684 11.7055L7.21645 17.5484C7.21645 17.6907 7.21201 17.8463 7.20311 18.0153C7.19422 18.1842 7.17199 18.331 7.13641 18.4555L6.60282 21.5237L5.85579 25.9525C5.82022 26.1659 5.86024 26.3883 5.97585 26.6195C6.09146 26.8507 6.26488 26.9841 6.4961 27.0197C6.58503 27.073 6.69175 27.0819 6.81626 27.0464C6.94076 27.0108 7.04748 26.9752 7.13641 26.9396L14.5267 23.0711C14.669 23.1067 14.8202 23.1511 14.9802 23.2045C15.1403 23.2578 15.2915 23.329 15.4338 23.4179L18.1284 24.8586L22.1037 26.9396C22.3172 27.0819 22.5484 27.1131 22.7974 27.033C23.0464 26.953 23.2332 26.7973 23.3577 26.5661C23.411 26.4772 23.451 26.3749 23.4777 26.2593C23.5044 26.1437 23.5 26.0414 23.4644 25.9525L22.1037 17.8419C22.1037 17.8419 22.1526 17.7752 22.2505 17.6418C22.3483 17.5084 22.5039 17.3349 22.7174 17.1215L28.0533 11.7856C28.2312 11.6077 28.3201 11.3987 28.3201 11.1586C28.3201 10.9185 28.2312 10.7095 28.0533 10.5316C27.9999 10.4783 27.9466 10.4338 27.8932 10.3982C27.8399 10.3627 27.7687 10.3449 27.6798 10.3449Z" fill="#F0CB00"/>
</svg>
