<svg width="24" height="25" viewBox="0 0 24 25" fill="none" xmlns="http://www.w3.org/2000/svg">
<path d="M14.25 6.61792C14.5781 6.66479 14.8828 6.71948 15.1641 6.78198C15.4453 6.84448 15.7188 6.92261 15.9844 7.01636L15.9141 6.99292C16.4141 7.14917 16.8906 7.33276 17.3438 7.5437C17.7969 7.75464 18.2266 7.98511 18.6328 8.23511L18.5859 8.21167C18.6172 8.22729 18.6484 8.24292 18.6797 8.25854C18.7109 8.27417 18.75 8.28198 18.7969 8.28198C19.2812 8.28198 19.7695 8.28198 20.2617 8.28198C20.7539 8.28198 21.25 8.28198 21.75 8.28198C21.7812 8.28198 21.8164 8.28198 21.8555 8.28198C21.8945 8.28198 21.9375 8.28198 21.9844 8.28198C21.9844 8.29761 21.9844 8.30542 21.9844 8.30542C21.9844 8.30542 21.9844 8.31323 21.9844 8.32886L21.8438 8.53979C21.6719 8.77417 21.5234 9.02417 21.3984 9.28979C21.2734 9.55542 21.1641 9.83667 21.0703 10.1335L21.0469 10.1804C21.0469 10.1804 21.0469 10.1882 21.0469 10.2039C21.0469 10.2195 21.0469 10.2351 21.0469 10.2507C21.0469 10.2664 21.0469 10.282 21.0469 10.2976C21.0469 10.3132 21.0547 10.3289 21.0703 10.3445C21.5078 10.9851 21.7969 11.6492 21.9375 12.3367C22.0781 13.0242 22.0547 13.7429 21.8672 14.4929C21.7109 15.1335 21.4414 15.7156 21.0586 16.239C20.6758 16.7625 20.2109 17.1882 19.6641 17.5164V17.5398C19.2891 17.7742 18.875 17.9578 18.4219 18.0906C17.9688 18.2234 17.5 18.2898 17.0156 18.2898C17 18.2898 16.9922 18.2898 16.9922 18.2898C16.9922 18.2898 16.9844 18.2898 16.9688 18.2898H16.9922C16.9766 18.2898 16.9688 18.2898 16.9688 18.2898C16.75 18.2898 16.5391 18.2781 16.3359 18.2546C16.1328 18.2312 15.9375 18.1882 15.75 18.1257L15.7734 18.1492C15.2891 18.0242 14.8398 17.8367 14.4258 17.5867C14.0117 17.3367 13.6406 17.0398 13.3125 16.696C13.2656 16.6492 13.2227 16.5984 13.1836 16.5437C13.1445 16.489 13.1016 16.4382 13.0547 16.3914L11.9766 17.9851L10.9219 16.4148C10.9062 16.4148 10.8984 16.4148 10.8984 16.4148C10.8984 16.4148 10.8906 16.4226 10.875 16.4382C10.875 16.4382 10.875 16.446 10.875 16.4617C10.4844 16.9148 10.0234 17.2937 9.49219 17.5984C8.96094 17.9031 8.39062 18.1101 7.78125 18.2195H7.75781C7.64844 18.2351 7.52734 18.2468 7.39453 18.2546C7.26172 18.2625 7.125 18.2664 6.98438 18.2664C6.75 18.2664 6.52344 18.2507 6.30469 18.2195C6.08594 18.1882 5.86719 18.1414 5.64844 18.0789L5.67188 18.1023C4.73438 17.8367 3.93359 17.3367 3.26953 16.6023C2.60547 15.8679 2.19531 15.0164 2.03906 14.0476V14.0242C2.02344 13.8992 2.00781 13.7703 1.99219 13.6375C1.97656 13.5046 1.96875 13.3757 1.96875 13.2507C1.96875 13.032 1.98437 12.8171 2.01562 12.6062C2.04688 12.3953 2.08594 12.196 2.13281 12.0085V12.032C2.21094 11.7039 2.31641 11.3992 2.44922 11.1179C2.58203 10.8367 2.74219 10.571 2.92969 10.321V10.3445C2.92969 10.3289 2.93359 10.3132 2.94141 10.2976C2.94922 10.282 2.95312 10.2664 2.95312 10.2507C2.95312 10.2351 2.95312 10.2234 2.95312 10.2156C2.95312 10.2078 2.94531 10.2039 2.92969 10.2039C2.85156 9.90698 2.75391 9.63354 2.63672 9.38354C2.51953 9.13354 2.38281 8.89136 2.22656 8.65698V8.68042C2.19531 8.61792 2.15625 8.55933 2.10938 8.50464C2.0625 8.44995 2.02344 8.39136 1.99219 8.32886V8.30542C1.99219 8.30542 1.99609 8.30542 2.00391 8.30542C2.01172 8.30542 2.01562 8.30542 2.01562 8.30542C2.01562 8.30542 2.01953 8.30542 2.02734 8.30542C2.03516 8.30542 2.03906 8.30542 2.03906 8.30542C3.03906 8.30542 4.04688 8.30542 5.0625 8.30542C5.07812 8.30542 5.09766 8.30151 5.12109 8.2937C5.14453 8.28589 5.16406 8.27417 5.17969 8.25854C5.50781 8.03979 5.85547 7.84058 6.22266 7.66089C6.58984 7.4812 6.96875 7.32104 7.35938 7.18042L7.42969 7.15698C7.67969 7.07886 7.94531 6.99683 8.22656 6.91089C8.50781 6.82495 8.80469 6.75073 9.11719 6.68823H9.1875C9.4375 6.64136 9.70703 6.59839 9.99609 6.55933C10.2852 6.52026 10.5781 6.48511 10.875 6.45386H10.9219C11.0781 6.43823 11.2422 6.43042 11.4141 6.43042C11.5859 6.43042 11.7578 6.43042 11.9297 6.43042C12.3359 6.43042 12.7422 6.44604 13.1484 6.47729C13.5547 6.50854 13.9531 6.55542 14.3438 6.61792H14.25ZM13.0078 13.2742C13.0078 14.3835 13.3984 15.3289 14.1797 16.1101C14.9609 16.8914 15.8984 17.282 16.9922 17.282C18.1016 17.282 19.0469 16.8914 19.8281 16.1101C20.6094 15.3289 21 14.3835 21 13.2742C21 12.1648 20.6094 11.2234 19.8281 10.45C19.0469 9.67651 18.1016 9.28979 16.9922 9.28979C16.9766 9.28979 16.9609 9.28979 16.9453 9.28979C16.9297 9.28979 16.9141 9.28979 16.8984 9.28979H16.9219C15.8281 9.30542 14.9023 9.69995 14.1445 10.4734C13.3867 11.2468 13.0078 12.1804 13.0078 13.2742ZM7.00781 9.26636C5.89844 9.26636 4.95312 9.65698 4.17188 10.4382C3.39062 11.2195 3 12.157 3 13.2507C3 14.3601 3.39062 15.3054 4.17188 16.0867C4.95312 16.8679 5.89844 17.2585 7.00781 17.2585C8.10156 17.2585 9.03906 16.8679 9.82031 16.0867C10.6016 15.3054 10.9922 14.3679 10.9922 13.2742C10.9922 12.1648 10.6016 11.2195 9.82031 10.4382C9.03906 9.65698 8.10156 9.26636 7.00781 9.26636ZM7.19531 8.21167C8.42969 8.27417 9.49219 8.71558 10.3828 9.53589C11.2734 10.3562 11.8125 11.3601 12 12.5476V12.571C12.1719 11.3992 12.6992 10.4031 13.582 9.58276C14.4648 8.76245 15.5078 8.31323 16.7109 8.23511H16.7344C16.0156 7.92261 15.2852 7.69604 14.543 7.55542C13.8008 7.41479 13.0469 7.33667 12.2812 7.32104C11.4062 7.30542 10.543 7.36792 9.69141 7.50854C8.83984 7.64917 8.00781 7.88354 7.19531 8.21167ZM16.9922 10.7429C17.6797 10.7429 18.2617 10.9851 18.7383 11.4695C19.2148 11.9539 19.4531 12.5398 19.4531 13.2273C19.4531 13.8992 19.2109 14.4773 18.7266 14.9617C18.2422 15.446 17.6641 15.6882 16.9922 15.6882C16.3047 15.6882 15.7188 15.446 15.2344 14.9617C14.75 14.4773 14.5078 13.8992 14.5078 13.2273C14.5078 13.2273 14.5078 13.2234 14.5078 13.2156C14.5078 13.2078 14.5078 13.2039 14.5078 13.2039C14.5078 12.532 14.75 11.9539 15.2344 11.4695C15.7188 10.9851 16.2969 10.7429 16.9688 10.7429C16.9688 10.7429 16.9727 10.7429 16.9805 10.7429C16.9883 10.7429 16.9922 10.7429 16.9922 10.7429ZM18.6094 13.2039C18.6094 12.7664 18.4492 12.3875 18.1289 12.0671C17.8086 11.7468 17.4219 11.5867 16.9688 11.5867C16.5312 11.5867 16.1523 11.7468 15.832 12.0671C15.5117 12.3875 15.3516 12.7664 15.3516 13.2039C15.3516 13.657 15.5117 14.0398 15.832 14.3523C16.1523 14.6648 16.5312 14.821 16.9688 14.821C17.4219 14.821 17.8086 14.6648 18.1289 14.3523C18.4492 14.0398 18.6094 13.657 18.6094 13.2039ZM6.9375 10.7429C7.625 10.7429 8.21094 10.9851 8.69531 11.4695C9.17969 11.9539 9.42188 12.5398 9.42188 13.2273C9.42188 13.8992 9.17969 14.4773 8.69531 14.9617C8.21094 15.446 7.625 15.6882 6.9375 15.6882C6.25 15.6882 5.66406 15.446 5.17969 14.9617C4.69531 14.4773 4.45312 13.8992 4.45312 13.2273C4.45312 13.2117 4.45312 13.2039 4.45312 13.2039C4.45312 12.532 4.69531 11.9539 5.17969 11.4695C5.66406 10.9851 6.25 10.7429 6.9375 10.7429ZM8.55469 13.2039C8.55469 12.7664 8.39844 12.3875 8.08594 12.0671C7.77344 11.7468 7.39062 11.5867 6.9375 11.5867C6.48438 11.5867 6.10156 11.7468 5.78906 12.0671C5.47656 12.3875 5.32031 12.7664 5.32031 13.2039C5.32031 13.657 5.47656 14.0398 5.78906 14.3523C6.10156 14.6648 6.48438 14.821 6.9375 14.821C7.39062 14.821 7.77344 14.6648 8.08594 14.3523C8.39844 14.0398 8.55469 13.657 8.55469 13.2039ZM16.9922 12.3835C17.2109 12.3835 17.4023 12.4656 17.5664 12.6296C17.7305 12.7937 17.8125 12.9851 17.8125 13.2039C17.8125 13.4382 17.7305 13.6335 17.5664 13.7898C17.4023 13.946 17.2109 14.0242 16.9922 14.0242C16.7578 14.0242 16.5625 13.946 16.4062 13.7898C16.25 13.6335 16.1719 13.446 16.1719 13.2273C16.1719 13.2273 16.1719 13.2195 16.1719 13.2039C16.1719 12.9851 16.25 12.7937 16.4062 12.6296C16.5625 12.4656 16.7578 12.3835 16.9922 12.3835ZM6.9375 12.3835C6.9375 12.3835 6.94141 12.3835 6.94922 12.3835C6.95703 12.3835 6.96094 12.3835 6.96094 12.3835C7.19531 12.3835 7.39453 12.4656 7.55859 12.6296C7.72266 12.7937 7.80469 12.9851 7.80469 13.2039C7.80469 13.4382 7.72266 13.6375 7.55859 13.8015C7.39453 13.9656 7.19531 14.0476 6.96094 14.0476C6.96094 14.0476 6.95703 14.0476 6.94922 14.0476C6.94141 14.0476 6.9375 14.0476 6.9375 14.0476C6.9375 14.0476 6.93359 14.0476 6.92578 14.0476C6.91797 14.0476 6.91406 14.0476 6.91406 14.0476C6.67969 14.0476 6.48047 13.9656 6.31641 13.8015C6.15234 13.6375 6.07031 13.4382 6.07031 13.2039C6.07031 12.9851 6.15234 12.7937 6.31641 12.6296C6.48047 12.4656 6.67969 12.3835 6.91406 12.3835C6.91406 12.3835 6.91797 12.3835 6.92578 12.3835C6.93359 12.3835 6.9375 12.3835 6.9375 12.3835Z" fill="#51AB7E"/>
</svg>
