<svg width="24" height="25" viewBox="0 0 24 25" fill="none" xmlns="http://www.w3.org/2000/svg">
<path d="M11.7891 21.9461C10.8672 21.9148 9.95707 21.7742 9.05863 21.5242C8.16019 21.2742 7.30472 20.907 6.49222 20.4226C7.17972 20.4226 7.25004 20.0633 6.70316 19.3445C6.15629 18.6258 6.30472 18.1804 7.14847 18.0086C7.99222 17.8523 8.59379 17.4265 8.95316 16.7312C9.31254 16.0359 9.3516 15.6883 9.07035 15.6883C8.58597 15.6883 8.14847 15.5789 7.75785 15.3601C7.36722 15.1414 7.03129 14.8523 6.75004 14.4929C6.39066 14.0086 6.0391 13.7742 5.69535 13.7898C5.3516 13.8054 4.9766 13.8523 4.57035 13.9304C4.17972 14.0086 3.82035 14.3953 3.49222 15.0906C3.1641 15.7859 2.96097 16.2508 2.88285 16.4851C2.6016 15.9695 2.37894 15.4422 2.21488 14.9031C2.05082 14.364 1.92972 13.7976 1.8516 13.2039C2.33597 12.9695 2.80082 12.7117 3.24613 12.4304C3.69144 12.1492 4.13285 11.8679 4.57035 11.5867C4.92972 11.2742 4.97269 11.0359 4.69925 10.8718C4.42582 10.7078 4.25004 10.5476 4.17191 10.3914C4.14066 10.032 4.12504 9.68435 4.12504 9.34841C4.12504 9.01247 4.14066 8.66482 4.17191 8.30544C4.17191 7.86794 4.48832 7.57888 5.12113 7.43825C5.75394 7.29763 6.21097 7.02419 6.49222 6.61794C6.74222 6.30544 6.7305 5.86403 6.45707 5.29372C6.18363 4.72341 5.90629 4.25857 5.62504 3.89919C6.50004 3.21169 7.46488 2.69216 8.51957 2.3406C9.57425 1.98903 10.6407 1.81325 11.7188 1.81325C12 1.81325 12.293 1.82888 12.5977 1.86013C12.9024 1.89138 13.1953 1.92263 13.4766 1.95388C13.5547 2.48513 13.6953 3.05153 13.8985 3.6531C14.1016 4.25466 14.3672 4.657 14.6953 4.86013C15.2578 5.17263 15.8321 5.5945 16.418 6.12575C17.0039 6.657 17.4141 6.98513 17.6485 7.11013C17.8985 7.2195 18.1446 7.66872 18.3868 8.45778C18.6289 9.24685 18.711 9.86794 18.6328 10.3211C18.586 10.6336 18.4141 10.95 18.1172 11.2703C17.8203 11.5906 17.6172 11.9148 17.5078 12.2429L22.6407 15.4539C23.125 13.9539 23.2891 12.4461 23.1328 10.9304C22.9922 9.41482 22.5899 8.00075 21.9258 6.68825C21.2618 5.37575 20.3594 4.2195 19.2188 3.2195C18.0782 2.2195 16.7578 1.47732 15.2578 0.992941C13.7422 0.524191 12.2344 0.360128 10.7344 0.500753C9.21879 0.641378 7.80472 1.04372 6.49222 1.70778C5.17972 2.37185 4.02347 3.27419 3.02347 4.41482C2.02347 5.55544 1.28129 6.87575 0.796911 8.37575C0.312536 9.89138 0.148473 11.407 0.304723 12.9226C0.445348 14.4226 0.847692 15.8289 1.51175 17.1414C2.17582 18.4539 3.07816 19.6101 4.21879 20.6101C5.35941 21.6101 6.67972 22.3523 8.17972 22.8367C8.74222 23.0398 9.32035 23.1843 9.9141 23.2703C10.5078 23.3562 11.1094 23.3992 11.7188 23.3992C11.8438 23.3992 11.9649 23.3992 12.0821 23.3992C12.1993 23.3992 12.3203 23.3992 12.4453 23.3992L12.211 22.0398H11.7891V21.9461ZM19.5 7.97732C19.6563 7.78982 19.836 7.61794 20.0391 7.46169C20.2422 7.30544 20.4688 7.18825 20.7188 7.11013C21.1094 7.82888 21.4063 8.58278 21.6094 9.37185C21.8125 10.1609 21.9141 10.9539 21.9141 11.7508C21.9141 12.0008 21.8985 12.2468 21.8672 12.489C21.836 12.7312 21.7969 12.9929 21.75 13.2742C21.625 12.8054 21.4414 12.3718 21.1993 11.9734C20.9571 11.575 20.6328 11.2351 20.2266 10.9539C19.8985 10.7508 19.6446 10.2859 19.4649 9.55935C19.2852 8.83278 19.2969 8.30544 19.5 7.97732ZM21.3516 22.0398L18.8672 18.3367L23.6719 17.3758L11.6485 9.92263L11.3907 10.0633L14.0391 23.9617L16.6172 19.8601L19.1953 23.5633C19.3516 23.8758 19.6055 24.0984 19.9571 24.2312C20.3086 24.364 20.6641 24.3523 21.0235 24.1961C21.3516 24.0398 21.5821 23.782 21.7149 23.4226C21.8477 23.0633 21.836 22.7039 21.6797 22.3445C21.6016 22.3133 21.5391 22.2625 21.4922 22.1922C21.4453 22.1218 21.3985 22.0711 21.3516 22.0398Z" fill="#51AB7E"/>
</svg>
